<?xml version="1.0" encoding="utf-8"?>
<!-- Generator: Adobe Illustrator 21.0.0, SVG Export Plug-In . SVG Version: 6.00 Build 0)  -->
<svg version="1.1" id="Layer_1" xmlns="http://www.w3.org/2000/svg" xmlns:xlink="http://www.w3.org/1999/xlink" x="0px" y="0px"
	 viewBox="0 0 3770.5 4662.2" style="enable-background:new 0 0 3770.5 4662.2;" xml:space="preserve">
<style type="text/css">
	.st0{fill:#00000;}
	
	.fillpulse {
		animation: fillpulse 10s infinite;
	}
	
	@keyframes fillpulse {
		0%, 20%, 60%, 100% {
			fill: rgba(0,0,0,1);
		}
		30%, 40%, 50% {
			fill: #0074CC;
		}
	}
	
	.move {
		animation: move 10s infinite;
	}
	
	@keyframes move {
	    0% {
	        transform: translate3d(0px, 0px, 0px);
	        animation-timing-function: ease-in;
	    }
	    20% {
	        transform: translate3d(0px, -300px, 0px);
	        animation-timing-function: ease-out;
	    }
		80% {
	        transform: translate3d(0px, -300px, 0px);
	        animation-timing-function: ease-out;
	    }
	    100% {
	        transform: translate3d(0px, 0px, 0px);
	    }
	}
</style>
<g id="Roomba" class="move">
	<g id="Layer_2">
		<g>
			<path class="st0" d="M2724.9,2670.4l-36.9-865.5c-1.9-42.2-9.1-69.8-23.2-89.2c-16.2-22.4-41.5-33.3-77.3-33.3v28.3
				c50.6,0,68.8,24.1,72.1,95.5l36.9,865.4c3.7,97.6-1.2,168.3-15.9,229.2c-16.3,67.8-44.9,123.3-90,174.7
				c-52.8,60.1-113.6,122.1-200.3,168.3c-96,51.2-211.2,76.1-351.9,76.1h-308.3c-140.8,0-255.9-24.9-351.9-76.1
				c-86.7-46.2-147.5-108.2-200.3-168.3c-45.1-51.3-73.7-106.8-90-174.7c-14.6-60.9-19.5-131.6-15.9-229.1l36.9-865.4
				c3.3-71.4,21.5-95.5,72.1-95.5v-28.3c-35.8,0-61.1,10.9-77.3,33.3c-14.1,19.5-21.2,47-23.2,89.3l-36.9,865.6
				c-3.8,100.3,1.4,173.4,16.6,236.9c17.2,71.5,48.6,132.6,96.2,186.8c54.6,62.1,117.5,126.2,208.2,174.6
				c100.2,53.5,219.7,79.5,365.3,79.5h308.3c145.5,0,265-26,365.3-79.5c90.7-48.4,153.7-112.5,208.2-174.6
				c47.6-54.2,79.1-115.3,96.2-186.8C2723.5,2843.8,2728.7,2770.8,2724.9,2670.4z"/>
			<path d="M2238.9,4017.6c-1.4,0.3-2.9,0.5-4.3,0.8c-1.7,0.3-3.3,0.6-5,0.9c-2,0.4-3.9,0.7-5.9,1.1c-1.7,0.3-3.3,0.6-5,0.9
				c-2,0.4-3.9,0.7-5.9,1c-1.7,0.3-3.4,0.6-5,0.9c-2,0.3-3.9,0.7-5.9,1c-1.7,0.3-3.4,0.6-5.1,0.9c-1.9,0.3-3.9,0.6-5.8,1
				c-1.7,0.3-3.4,0.6-5.1,0.8c-1.9,0.3-3.9,0.6-5.8,0.9c-1.7,0.3-3.4,0.5-5.1,0.8c-2,0.3-3.9,0.6-5.9,0.9c-1.7,0.3-3.4,0.5-5.1,0.8
				c-1.9,0.3-3.9,0.6-5.8,0.9c-1.7,0.3-3.4,0.5-5.2,0.7c-1.9,0.3-3.9,0.5-5.8,0.8c-1.7,0.2-3.5,0.5-5.2,0.7
				c-1.9,0.3-3.9,0.5-5.8,0.8c-1.7,0.2-3.5,0.5-5.2,0.7c-1.9,0.3-3.9,0.5-5.8,0.7c-1.7,0.2-3.5,0.4-5.2,0.7
				c-1.9,0.2-3.9,0.5-5.8,0.7c-1.8,0.2-3.5,0.4-5.3,0.6c-1.9,0.2-3.8,0.4-5.8,0.7c-1.8,0.2-3.5,0.4-5.3,0.6
				c-1.9,0.2-3.9,0.4-5.8,0.6c-1.8,0.2-3.5,0.4-5.3,0.6c-1.9,0.2-3.9,0.4-5.8,0.6c-1.8,0.2-3.5,0.4-5.3,0.5
				c-1.9,0.2-3.9,0.4-5.8,0.6c-1.8,0.2-3.5,0.3-5.3,0.5c-1.9,0.2-3.9,0.4-5.8,0.5c-1.8,0.2-3.5,0.3-5.3,0.5
				c-1.9,0.2-3.9,0.3-5.8,0.5c-1.8,0.2-3.5,0.3-5.3,0.5c-1.9,0.2-3.9,0.3-5.8,0.5c-1.8,0.1-3.5,0.3-5.3,0.4
				c-1.9,0.1-3.9,0.3-5.8,0.4c-1.8,0.1-3.5,0.3-5.3,0.4c-1.9,0.1-3.9,0.3-5.8,0.4c-1.8,0.1-3.5,0.2-5.3,0.4c-2,0.1-3.9,0.2-5.9,0.4
				c-1.8,0.1-3.6,0.2-5.3,0.3c-1.9,0.1-3.9,0.2-5.8,0.3c-1.8,0.1-3.6,0.2-5.3,0.3c-2,0.1-3.9,0.2-5.9,0.3c-1.8,0.1-3.5,0.2-5.3,0.3
				c-2,0.1-4,0.2-6,0.3c-1.7,0.1-3.4,0.2-5.2,0.2c-2,0.1-4,0.2-6.1,0.2c-1.7,0.1-3.4,0.1-5.2,0.2c-2.1,0.1-4.1,0.1-6.2,0.2
				c-1.7,0.1-3.3,0.1-5,0.2c-2.1,0.1-4.3,0.1-6.4,0.2c-1.6,0-3.2,0.1-4.8,0.1c-2.2,0.1-4.4,0.1-6.5,0.1c-1.6,0-3.1,0.1-4.7,0.1
				c-2.3,0-4.6,0.1-6.9,0.1c-1.4,0-2.9,0-4.3,0.1c-2.6,0-5.3,0-7.9,0.1c-1.1,0-2.2,0-3.3,0c-3.7,0-7.5,0-11.2,0s-7.5,0-11.2,0
				c-1.2,0-2.4,0-3.6,0c-2.5,0-5.1,0-7.6-0.1c-1.6,0-3.2,0-4.8-0.1c-2.1,0-4.3-0.1-6.4-0.1c-1.6,0-3.3-0.1-4.9-0.1
				c-2.1,0-4.2-0.1-6.4-0.1c-1.6,0-3.3-0.1-4.9-0.1c-2.1-0.1-4.2-0.1-6.3-0.2c-1.7,0-3.4-0.1-5-0.2c-2.1-0.1-4.1-0.1-6.2-0.2
				c-1.7-0.1-3.4-0.1-5-0.2c-2.1-0.1-4.1-0.2-6.2-0.2c-1.7-0.1-3.4-0.2-5.2-0.2c-2-0.1-4-0.2-6-0.3c-1.8-0.1-3.5-0.2-5.3-0.3
				c-2-0.1-3.9-0.2-5.9-0.3c-1.8-0.1-3.5-0.2-5.3-0.3c-2-0.1-3.9-0.2-5.9-0.3c-1.8-0.1-3.5-0.2-5.3-0.3c-2-0.1-3.9-0.2-5.9-0.4
				c-1.8-0.1-3.5-0.2-5.3-0.4c-2-0.1-3.9-0.3-5.9-0.4c-1.8-0.1-3.5-0.3-5.3-0.4c-2-0.1-3.9-0.3-5.9-0.4c-1.8-0.1-3.5-0.3-5.3-0.4
				c-2-0.2-3.9-0.3-5.9-0.5c-1.8-0.1-3.5-0.3-5.3-0.5c-1.9-0.2-3.9-0.3-5.8-0.5c-1.8-0.2-3.5-0.3-5.3-0.5c-1.9-0.2-3.9-0.4-5.8-0.5
				c-1.8-0.2-3.5-0.3-5.3-0.5c-1.9-0.2-3.9-0.4-5.8-0.6c-1.8-0.2-3.5-0.4-5.3-0.5c-1.9-0.2-3.9-0.4-5.8-0.6
				c-1.8-0.2-3.5-0.4-5.3-0.6c-1.9-0.2-3.9-0.4-5.8-0.6c-1.8-0.2-3.5-0.4-5.3-0.6c-1.9-0.2-3.9-0.4-5.8-0.7
				c-1.8-0.2-3.5-0.4-5.3-0.6c-1.9-0.2-3.9-0.5-5.8-0.7c-1.8-0.2-3.5-0.4-5.3-0.7c-1.9-0.2-3.9-0.5-5.8-0.7
				c-1.7-0.2-3.5-0.5-5.2-0.7c-1.9-0.3-3.9-0.5-5.8-0.8c-1.7-0.2-3.5-0.5-5.2-0.7c-1.9-0.3-3.9-0.5-5.8-0.8
				c-1.7-0.2-3.4-0.5-5.2-0.7c-1.9-0.3-3.9-0.6-5.8-0.9c-1.7-0.3-3.4-0.5-5.1-0.8c-2-0.3-3.9-0.6-5.9-0.9c-1.7-0.3-3.4-0.5-5.1-0.8
				c-2-0.3-3.9-0.6-5.9-0.9c-1.7-0.3-3.4-0.6-5.1-0.8c-2-0.3-3.9-0.6-5.9-1c-1.7-0.3-3.4-0.6-5.1-0.9c-1.9-0.3-3.9-0.7-5.8-1
				c-1.7-0.3-3.4-0.6-5.1-0.9c-2-0.3-3.9-0.7-5.8-1c-1.7-0.3-3.3-0.6-5-0.9c-2-0.4-3.9-0.7-5.9-1.1c-1.7-0.3-3.3-0.6-5-0.9
				c-1.4-0.3-2.8-0.5-4.3-0.8c-21.2,15.6-42.5,35.3-63.3,58.8c135.5,29.4,275.7,44.3,417,44.3c141.2,0,281.4-14.9,417-44.3
				C2281.4,4052.9,2260.1,4033.1,2238.9,4017.6z"/>
			<path d="M1555.6,4007.6c1.9,0.3,3.8,0.7,5.7,1c1.7,0.3,3.3,0.6,5,0.9c1.9,0.3,3.8,0.7,5.7,1c1.7,0.3,3.3,0.6,5,0.8
				c1.9,0.3,3.8,0.6,5.7,0.9c1.7,0.3,3.3,0.5,5,0.8c1.9,0.3,3.8,0.6,5.7,0.9c1.7,0.3,3.3,0.5,5,0.8c1.9,0.3,3.8,0.6,5.7,0.9
				c1.6,0.2,3.3,0.5,4.9,0.7c1.9,0.3,3.9,0.6,5.8,0.9c1.6,0.2,3.3,0.5,4.9,0.7c2,0.3,4,0.6,5.9,0.8c1.6,0.2,3.2,0.4,4.8,0.7
				c2,0.3,4,0.5,6.1,0.8c1.6,0.2,3.1,0.4,4.7,0.6c2.1,0.3,4.3,0.5,6.4,0.8c1.5,0.2,2.9,0.4,4.4,0.6c2.4,0.3,4.8,0.6,7.3,0.9
				c1.2,0.1,2.3,0.3,3.5,0.4c3.6,0.4,7.1,0.8,10.7,1.2c1.2,0.1,2.3,0.3,3.5,0.4c2.4,0.3,4.8,0.5,7.3,0.8c1.5,0.2,3,0.3,4.5,0.5
				c2.1,0.2,4.2,0.4,6.3,0.7c1.6,0.2,3.2,0.3,4.8,0.5c2,0.2,4,0.4,6,0.6c1.7,0.2,3.3,0.3,5,0.5c2,0.2,3.9,0.4,5.9,0.5
				c1.7,0.2,3.4,0.3,5.1,0.4c1.9,0.2,3.8,0.3,5.8,0.5c1.7,0.1,3.4,0.3,5.1,0.4c1.9,0.2,3.8,0.3,5.7,0.5c1.7,0.1,3.4,0.3,5.2,0.4
				c1.9,0.1,3.8,0.3,5.7,0.4c1.7,0.1,3.5,0.2,5.2,0.4c1.9,0.1,3.8,0.3,5.7,0.4c1.7,0.1,3.5,0.2,5.2,0.3c1.9,0.1,3.8,0.2,5.7,0.4
				c1.7,0.1,3.4,0.2,5.2,0.3c1.9,0.1,3.8,0.2,5.8,0.3c1.7,0.1,3.4,0.2,5.1,0.3c1.9,0.1,3.9,0.2,5.8,0.3c1.7,0.1,3.4,0.2,5.1,0.2
				c1.9,0.1,3.9,0.2,5.8,0.3c1.7,0.1,3.4,0.1,5.1,0.2c2,0.1,3.9,0.2,5.9,0.2c1.7,0.1,3.4,0.1,5,0.2c2,0.1,4,0.1,6,0.2
				c1.7,0.1,3.3,0.1,5,0.2c2,0.1,4,0.1,6,0.2c1.6,0,3.3,0.1,4.9,0.1c2.1,0,4.1,0.1,6.2,0.1c1.6,0,3.1,0.1,4.7,0.1
				c2.2,0,4.3,0.1,6.5,0.1c1.5,0,3,0,4.4,0.1c2.4,0,4.9,0,7.3,0.1c1.2,0,2.4,0,3.6,0c3.6,0,7.3,0,10.9,0s7.3,0,10.9,0
				c1.2,0,2.5,0,3.7,0c2.4,0,4.8,0,7.2-0.1c1.5,0,3,0,4.4-0.1c2.2,0,4.3-0.1,6.5-0.1c1.6,0,3.1-0.1,4.7-0.1c2.1,0,4.1-0.1,6.2-0.1
				c1.6,0,3.3-0.1,4.9-0.1c2-0.1,4-0.1,6-0.2c1.7,0,3.4-0.1,5-0.2c2-0.1,3.9-0.1,5.9-0.2c1.7-0.1,3.4-0.1,5.1-0.2
				c1.9-0.1,3.8-0.1,5.8-0.2c1.7-0.1,3.5-0.1,5.2-0.2c1.9-0.1,3.8-0.2,5.7-0.3c1.7-0.1,3.5-0.2,5.2-0.2c1.9-0.1,3.8-0.2,5.7-0.3
				c1.8-0.1,3.5-0.2,5.3-0.3c1.9-0.1,3.7-0.2,5.6-0.3c1.8-0.1,3.5-0.2,5.3-0.3s3.7-0.2,5.5-0.3s3.6-0.2,5.3-0.3
				c1.8-0.1,3.7-0.2,5.5-0.4c1.8-0.1,3.6-0.2,5.4-0.4c1.8-0.1,3.7-0.3,5.5-0.4c1.8-0.1,3.6-0.3,5.4-0.4c1.8-0.1,3.6-0.3,5.4-0.4
				c1.8-0.1,3.6-0.3,5.4-0.4c1.8-0.2,3.6-0.3,5.4-0.5c1.8-0.2,3.6-0.3,5.4-0.5c1.8-0.2,3.6-0.3,5.4-0.5c1.8-0.2,3.6-0.3,5.4-0.5
				c1.8-0.2,3.6-0.4,5.4-0.5c1.8-0.2,3.6-0.3,5.4-0.5c1.8-0.2,3.6-0.4,5.5-0.6c1.8-0.2,3.6-0.4,5.3-0.6c1.9-0.2,3.7-0.4,5.6-0.6
				c1.7-0.2,3.5-0.4,5.2-0.6c3.5-0.4,7-0.8,10.5-1.2c1.7-0.2,3.3-0.4,5-0.6c1.9-0.2,3.9-0.5,5.8-0.7c1.7-0.2,3.5-0.4,5.2-0.7
				c1.9-0.2,3.7-0.5,5.6-0.7c1.7-0.2,3.5-0.5,5.2-0.7c1.8-0.2,3.7-0.5,5.5-0.7c1.7-0.2,3.5-0.5,5.2-0.7c1.8-0.3,3.7-0.5,5.5-0.8
				c1.7-0.2,3.5-0.5,5.2-0.8c1.8-0.3,3.6-0.5,5.5-0.8c1.7-0.3,3.5-0.5,5.2-0.8c1.8-0.3,3.6-0.6,5.5-0.8c1.7-0.3,3.5-0.5,5.2-0.8
				c1.8-0.3,3.7-0.6,5.5-0.9c1.7-0.3,3.4-0.6,5.2-0.8c1.8-0.3,3.7-0.6,5.5-0.9c1.7-0.3,3.4-0.6,5.1-0.9c1.9-0.3,3.7-0.6,5.6-1
				c1.7-0.3,3.4-0.6,5.1-0.9c1.9-0.3,3.7-0.7,5.6-1c1.7-0.3,3.3-0.6,5-0.9c0.8-0.1,1.6-0.3,2.5-0.5c-34.9-22.2-70.6-34-106.4-35.1
				c-145.9,9.5-301.1,9.5-461.3,0c-35.8,1.2-71.6,13-106.5,35.1c0.8,0.2,1.7,0.3,2.5,0.5C1552.3,4007,1554,4007.3,1555.6,4007.6z"/>
			<path d="M1761.6,3075.3H2012c52.8,0,87.8-11.5,107.2-35.3c18.8-23,21.3-55.6,21.4-84.5l-8.2-150c-0.5-9-5.7-38.3-53.2-38.3
				h-393.6c-47.5,0-52.7,29.3-53.2,38.3l-8.2,150.1c0,38.4,8.1,65.2,25.5,84.2C1671.5,3063.6,1708.1,3075.3,1761.6,3075.3z"/>
			<path d="M1537.8,2700.8l-11.2,262.9c0,47.9,17.1,88.2,49.3,116.6c37.8,33.2,94.9,50.1,169.8,50.1h271.5
				c75.1,0,132.5-16.9,170.7-50.1c32.8-28.5,50.1-68.8,50.2-116.5l-11.2-262.9c-2.7-50.8-58.3-54.8-75.4-54.8H1613
				C1596.2,2646,1540.5,2650,1537.8,2700.8z M1685.6,2753h393.6c39.9,0,65.7,19.8,67.3,51.7l8.2,150.4v0.2
				c0,31.4-2.9,67.2-24.6,93.7c-22.2,27.2-60.9,40.5-118.2,40.5h-250.4c-57.7,0-97.7-13.2-122.3-40.2c-19.9-21.9-29.2-51.7-29.2-94
				v-0.4l8.2-150.2C1620,2772.8,1645.8,2753,1685.6,2753z"/>
			<path d="M1917.5,2086.5c-2.9,5.9-4.3,8.9-7.3,14.8c6-0.1,9-0.1,15-0.2C1922.1,2095.2,1920.5,2092.3,1917.5,2086.5z"/>
			<path d="M2229.6,2100.4c0.9,6.5,4.2,12.6,9.4,17.4c5.2,4.7,11.9,7.6,19,8.3l-0.8-25.7H2229.6z"/>
			<path d="M2256,2069c-6.9,0.7-13.4,3.6-18.2,8.2c-4.9,4.7-7.8,10.8-8.4,17.2h27.4L2256,2069z"/>
			<path d="M2281.4,2077.2c-5.2-4.6-12-7.5-19-8.2l0.8,25.4h27.7C2289.9,2088,2286.6,2081.9,2281.4,2077.2z"/>
			<path d="M2282.8,2117.7c4.9-4.7,7.8-10.9,8.3-17.4h-27.6l0.8,25.7C2271.4,2125.4,2277.8,2122.5,2282.8,2117.7z"/>
			<path d="M2262.4,2158.6L2262.4,2158.6c18.2,0,35.3-7.1,47.2-19.4c10.6-11.1,16.1-25.4,15.4-40.3c-1.4-32.5-31.4-58.9-67-58.9l0,0
				c-17.8,0-34.8,6.9-46.5,18.9c-10.5,10.8-16.1,24.8-15.8,39.6C2196.4,2131.6,2226.3,2158.6,2262.4,2158.6
				C2262.3,2158.6,2262.4,2158.6,2262.4,2158.6z M2258.4,2141.2c-0.1-3-0.2-6.1-0.3-9.2c-8.7-0.7-17.1-4.2-23.6-10.1
				c-6.4-5.8-10.5-13.5-11.4-21.6h-9.7c-1.8,0-3.3-1.3-3.3-3c0-0.7,0.3-1.4,0.8-2c0.6-0.6,1.4-0.9,2.4-0.9h9.7
				c0.5-8,4.1-15.7,10.2-21.4c6-5.7,14.1-9.2,22.7-9.9l-0.3-9c0-0.7,0.3-1.4,0.8-2c0.6-0.6,1.4-1,2.3-1c1.7,0,3.2,1.3,3.2,2.9l0.3,9
				c8.8,0.7,17.1,4.2,23.6,9.9c6.4,5.8,10.5,13.4,11.5,21.4h9.8c1.8,0,3.3,1.3,3.3,2.9c0,0.8-0.2,1.5-0.8,2.1s-1.4,1-2.3,1h-9.8
				c-0.4,8.1-3.9,15.7-10,21.6c-6.1,5.8-14.3,9.4-23,10.1l0.3,9.2c0,0.8-0.3,1.5-0.8,2.1c-0.6,0.6-1.4,0.9-2.3,0.9
				C2259.9,2144.2,2258.4,2142.9,2258.4,2141.2z"/>
			<g>
				<g>
					<path d="M1908.2,1504.5c-0.5,2.8-1.1,5.7-1.5,8.6c-0.4,3.3,0.8,5.1,3.9,6.2c1.4,0.5,4,0.7,5.2,0.7c4.3-0.1,7.9-1.6,10.6-5
						c2.2-2.8,3.3-6.1,3.7-9.6c0.5-4.5-1.7-7.7-6-8.7c-3.2-0.8-6.4-0.6-9.5,0.5C1911.1,1498.5,1908.8,1500.7,1908.2,1504.5z"/>
					<path d="M1996.4,1496.9c-2.9-0.8-5.8-0.7-8.6,0.1c-6.1,1.8-10,7.4-9.7,14c0.2,3.1,1.3,5.8,4,7.5c1.9,1.2,4,1.6,6.1,1.5
						c0.2,0,0.4,0,0.7,0c4.4-0.1,8-1.7,10.6-5.3c1.8-2.7,2.7-5.8,3-9.1C2002.9,1501.4,2000.5,1498,1996.4,1496.9z"/>
					<path d="M2069.8,1467.5c-0.1-0.6-0.6-0.9-1.2-0.9c-0.6,0-1.3,0-1.9,0c0.1,0.8,0.2,1.4,0.3,2.2c0.6,0,1.1,0,1.6,0
						c0.1,0,0.3,0,0.3,0C2069.5,1468.5,2069.9,1468.1,2069.8,1467.5z"/>
					<path d="M1990.5,1582.6c2.4,2.4,5.3,3.6,8.7,3.6c2.2,0,4.3-0.5,6.1-1.6c1.9-1.1,3.4-2.6,4.5-4.6s1.7-4.1,1.7-6.3
						c0-2.2-0.6-4.3-1.7-6.3s-2.6-3.5-4.5-4.7s-3.9-1.7-6-1.7c-2.2,0-4.2,0.6-6.2,1.7s-3.5,2.6-4.5,4.5c-1.1,1.9-1.6,4-1.6,6.3
						C1986.9,1577.2,1988.1,1580.2,1990.5,1582.6z"/>
					<path d="M1838.1,1562.4c0.8-1.2,1.1-2.5,1.1-3.9s-0.4-2.7-1.1-3.8c-0.8-1.1-1.8-2-3-2.5s-3.3-0.7-6.2-0.7h-7.4v14.2l7.2,0.1
						c2.8,0,4.9-0.3,6.2-0.8C1836.3,1564.4,1837.4,1563.6,1838.1,1562.4z"/>
					<path d="M1851.7,1496.8c-2.4-0.8-4.8-0.8-7.2-0.4c-6,0.9-13.3,6.1-12.9,16c0.1,2.7,1.4,4.9,3.7,6.3c1.8,1.1,3.7,1.4,5.8,1.4
						c0.2,0,0.4,0,0.6,0c4.2-0.1,8-1.5,10.8-4.9c2.4-2.9,3.7-6.3,4.3-10C1857.4,1501.1,1855.5,1498,1851.7,1496.8z"/>
					<path d="M1904.7,1561.4c-3.3,0-6.2,1.2-8.5,3.7c-2.4,2.4-3.6,5.4-3.6,8.9c0,2.2,0.5,4.3,1.6,6.3s2.6,3.4,4.4,4.5
						s3.9,1.6,6.1,1.6s4.2-0.5,6.1-1.6c1.8-1.1,3.3-2.5,4.4-4.5s1.6-4,1.6-6.3c0-3.5-1.2-6.4-3.6-8.9S1908,1561.4,1904.7,1561.4z"/>
					<path d="M2073.3,1469c-0.3-2.8-2.8-4.9-5.5-4.9c-2.6,0-4.6,2.3-4.2,4.9c0.3,2.7,2.8,5,5.5,5
						C2071.7,1473.9,2073.7,1471.7,2073.3,1469z M2067,1469.5c0.1,0.9,0.2,1.8,0.3,2.8c-0.3,0-0.6,0-1,0c-0.3-2.2-0.5-4.4-0.8-6.6
						c1.1,0,2.2,0,3.3,0c1,0.1,1.6,0.7,1.9,1.5c0.2,0.7-0.1,1.5-0.8,1.9l-0.1,0.1c0.5,1,1.1,1.9,1.7,3c-0.8,0.3-1.3,0-1.6-0.7
						c-0.1-0.3-0.3-0.5-0.4-0.8C2068.7,1469.3,2068.7,1469.4,2067,1469.5z"/>
					<path d="M2027.1,1580.1c1.1,2,2.6,3.5,4.5,4.7c1.9,1.1,3.9,1.7,6.1,1.7s4.2-0.6,6.2-1.7s3.5-2.6,4.5-4.5c1.1-1.9,1.6-4,1.6-6.3
						c0-3.6-1.2-6.6-3.5-9s-5.3-3.6-8.7-3.6c-2.2,0-4.3,0.5-6.1,1.6c-1.9,1.1-3.4,2.6-4.5,4.6s-1.7,4.1-1.7,6.3
						C2025.4,1576,2025.9,1578.1,2027.1,1580.1z"/>
					<path d="M1866.5,1561.4c-3.3,0-6.2,1.2-8.5,3.7s-3.6,5.4-3.6,8.9c0,2.2,0.5,4.3,1.6,6.3c1.1,1.9,2.6,3.4,4.4,4.5
						s3.9,1.6,6.1,1.6s4.2-0.5,6.1-1.6c1.8-1.1,3.3-2.5,4.4-4.5c1.1-1.9,1.6-4,1.6-6.3c0-3.5-1.2-6.4-3.6-8.9
						S1869.8,1561.4,1866.5,1561.4z"/>
					<g>
						<path d="M1202.2,1835.5l-36.5,840.1c-3.6,84.7-2.8,183,32.9,261.7c12.7,28.1,29.5,53.2,49.8,76.3
							c51.7,58.9,104.2,110.3,174,147.5c94.2,50.2,202.4,65.1,307.9,65.1h308.3c105.5,0,213.7-14.9,307.9-65.1
							c69.8-37.2,122.3-88.7,174-147.5c20.3-23.1,37.1-48.2,49.8-76.3c35.6-78.7,36-179.5,32.4-264.2l-36.6-857.9l-7.1,0.7l-0.1-1.2
							H1210.5l-0.1,1.3l-7.1-0.9L1202.2,1835.5z M2201.3,2049c14.4-14.7,35.1-23.2,56.7-23.2l0,0c43,0,79.4,32.5,81.1,72.5
							c0.8,18.8-6.1,36.9-19.4,50.7c-14.5,15.1-35.4,23.8-57.4,23.8c0,0,0,0-0.1,0c-43.7,0-80-33.2-80.8-74.1
							C2181,2080.2,2188.1,2062.5,2201.3,2049z M1700.6,2098.2c2.3-45.7,23.3-88.3,59.3-119.8c35.4-31.1,81.5-48.2,129.8-48.2
							c48,0,93.1,17.2,127,48.4c34.7,31.9,53.9,74.5,54,120c0.1,46.5-19.4,90.5-55,124.1c-35.8,33.8-83.4,52.4-133.8,52.4
							c-50.8,0-97.7-18.6-132.1-52.4C1715.8,2189.2,1698.3,2145,1700.6,2098.2z M2151.7,2631.8c41.5,0,86.9,17.9,89.5,68.3
							l11.2,263.3v0.2c0,52-19,96-55,127.3c-40.9,35.5-101.5,53.6-180,53.6h-271.5c-78.5,0-138.8-18-179.2-53.6
							c-35.4-31.2-54.1-75.2-54.1-127.3v-0.3l11.2-263.1c2.6-50.4,48-68.3,89.5-68.3L2151.7,2631.8L2151.7,2631.8z M1432.7,2098
							c1.7-19.5,11.4-37.8,27.2-51.4c15.7-13.5,35.7-21,56.3-21c21.6,0,41.9,8.5,55.7,23.2c12.8,13.7,19.1,31.5,17.9,50.3l0,0
							c-2.8,40.7-40.5,73.9-84,73.9c-21.8,0-42.2-8.6-55.9-23.6C1437.1,2135.4,1431,2117.1,1432.7,2098z"/>
						<g>
							<path d="M3770.5,2770.1c0-111.1-12.9-222.2-38.4-330.1c-24.9-105.1-61.9-208.5-110.2-307.3c-47.4-96.9-106-190.4-174.2-277.8
								c-67.5-86.5-145.1-167.9-230.5-241.8c-85.3-73.9-179.2-140.9-279-199.3c-100.7-58.9-208.4-109.5-320-150.4
								c-113.7-41.6-232.6-73.6-353.5-95c-106.3-18.8-215.3-29.7-324.8-32.4c-17.5-9.4-37.5-14.5-58.2-14.5
								c-20.9,0-41,5.1-58.6,14.8c-106.9,3-213.3,13.8-317.2,32.2c-120.9,21.4-239.8,53.4-353.5,95
								c-111.6,40.9-219.3,91.5-320,150.4c-99.8,58.4-193.7,125.4-279,199.3c-85.4,73.9-162.9,155.3-230.5,241.8
								c-68.2,87.4-126.8,180.9-174.2,277.8c-48.3,98.8-85.3,202.2-110.2,307.3C12.9,2547.9,0,2659,0,2770.1s12.9,222.2,38.4,330.1
								c5.1,21.4,10.6,42.8,16.7,64l-1.4,0.3c39.4,201.3,97.3,383.4,172.1,541.4c75.1,158.5,169.3,297.1,280,412l0.5,0.5
								c86,83.7,181.7,159.8,284.2,226.2c103.4,67,214.5,124.6,330.3,171.2c117.9,47.5,241.7,84,367.8,108.5
								c129.5,25.1,262.9,37.9,396.5,37.9s267-12.7,396.5-37.9c126.1-24.5,249.9-61,367.8-108.5c115.8-46.6,226.9-104.2,330.3-171.2
								c102.5-66.4,198.2-142.5,284.2-226.2l0.5-0.5c110.7-114.9,204.9-253.5,280-412c74.8-158,132.7-340.1,172.1-541.4l-1.4-0.3
								c6.1-21.3,11.7-42.6,16.7-64C3757.6,2992.3,3770.5,2881.2,3770.5,2770.1z M3583.7,2151.4c46.9,96,82.9,196.4,107,298.4
								c20.9,88.6,33.2,179.4,36.4,270.6l-30.3-38.3c-1.9-97.1-14.2-193.9-36.6-288.1c-23.8-100.5-59.4-199.3-105.8-293.7
								c-10.2-20.8-20.9-41.4-32.2-61.8C3544.5,2075.5,3565,2113.2,3583.7,2151.4z M2257.2,4329.9c-121.6,21.5-246.7,32.5-372,32.5
								c-125.2,0-250.4-10.9-372-32.5c-56.2-10-111.9-22.2-166.9-36.7c2.4-22.3,12.7-49.5,31.2-82.6c47.1,11.8,94.8,22,142.8,30.5
								c119.3,21,242,31.7,364.9,31.7c122.8,0,245.6-10.7,364.9-31.7c48-8.5,95.7-18.7,142.8-30.5c18.5,33.1,28.8,60.4,31.2,82.6
								C2369.1,4307.7,2313.4,4319.9,2257.2,4329.9z M2407,4346.8c-11.2,11-27.9,19.8-50.5,26.6c-116.2,32.8-274.8,51.2-471.2,54.8
								c-196.5-3.6-355-22-471.2-54.8c-22.6-6.7-39.3-15.5-50.5-26.6c168.9,42.1,343.9,63.4,521.7,63.4
								C2063.1,4410.3,2238.1,4388.9,2407,4346.8z M234,2990.2c22.2,91.8,55.2,182.1,98.3,268.4c42.3,84.7,94.6,166.4,155.5,242.8
								c60.3,75.7,129.6,146.8,205.9,211.5s160.2,123.4,249.5,174.5c90.1,51.6,186.4,95.9,286.3,131.7
								c69.2,24.8,139.8,45.5,211.5,62.1c-13,15.7-25.9,32.9-38.6,51.4c-13.5,19.1-25.1,36.8-35,53.4c-61-15.8-121-34.5-179.5-55.8
								c-106.1-38.7-208.5-86.6-304.3-142.4c-94.8-55.2-184-118.6-265-188.5c-81-69.8-154.5-146.6-218.5-228.3
								c-64.6-82.4-120.1-170.5-164.9-261.9c-45.6-93-80.7-190.3-104.2-289.2c-20.8-87.6-32.7-177.4-35.6-267.6l104.4-59.6
								c0,3.1,0,6.2,0,9.4C199.7,2799,211.2,2896,234,2990.2z M1198.6,1478.8l-12.4,301.4c-0.4,9.5,6.6,18.1,16.2,20.4h1365.7
								c9.5-2.3,16.6-10.9,16.2-20.4l-11.1-295c2.4,1,4.8,2,7.2,3l-0.2-6.1c66.9,27.6,131.7,59.3,193.4,94.6
								c84.1,48.2,163.1,103.4,235,164.3c71.8,60.9,137,127.9,193.8,199.1c57.3,71.9,106.5,148.7,146.3,228.4
								c40.5,81.1,71.6,166,92.4,252.3c21.4,88.5,32.2,179.6,32.2,270.8s-10.8,182.3-32.2,270.8c-20.8,86.3-51.9,171.2-92.4,252.3
								c-39.8,79.7-89,156.5-146.3,228.4c-56.8,71.2-122,138.2-193.8,199.1c-71.8,60.9-150.9,116.2-235,164.3
								c-84.9,48.6-175.7,90.4-269.8,124.1c-83.5,29.9-169.2,53.5-256.7,70.8c-0.3-0.2-0.6-0.4-0.9-0.6
								c-42.2-30.2-85.9-46.2-130.1-47.6h-0.5h-0.5c-145.4,9.5-300.1,9.5-459.7,0h-0.5h-0.5c-44.2,1.4-87.9,17.4-130.1,47.6
								c-0.3,0.2-0.6,0.4-0.9,0.6c-87.5-17.3-173.2-40.9-256.7-70.8c-94.1-33.7-184.9-75.5-269.8-124.1
								c-84.1-48.2-163.1-103.4-235-164.3c-71.8-60.9-137-127.9-193.8-199.1c-57.3-71.9-106.5-148.7-146.3-228.4
								c-40.5-81.1-71.6-166-92.4-252.3c-21.4-88.5-32.2-179.6-32.2-270.8s10.8-182.3,32.2-270.8c20.8-86.3,51.9-171.2,92.4-252.3
								c39.8-79.7,89-156.5,146.3-228.4c56.8-71.2,122-138.2,193.8-199.1s150.9-116.2,235-164.3c62-35.5,127.1-67.3,194.4-95.1v0.1
								C1193.8,1480.8,1196.2,1479.8,1198.6,1478.8z M1234.5,1656.4c3.7,3.9,9.9,6.3,16.3,6.3h1269c6.4,0,12.5-2.3,16.3-6.3
								c1.5-1.6,3.4-4.3,3.2-7.6l-8.5-180.7c4.8,1.9,9.6,3.7,14.5,5.6l8.2,174.4c0.3,6.5-2.2,12.9-7.1,18.1
								c-6.4,6.7-16.3,10.7-26.5,10.7h-1269c-10.3,0-20.2-4-26.6-10.7c-4.9-5.1-7.4-11.5-7-18l9.3-180.3c4.8-1.9,9.6-3.7,14.5-5.5
								l-9.6,186.5C1231.1,1652.2,1232.9,1654.8,1234.5,1656.4z M1755.6,1491.3c6.7,0,13.4,0,20.1,0c3.5,0,6.7-1,9.7-2.9
								c1.9-1.2,3.2-2.8,3.3-5.1c0-1-0.3-1.7-1-2.3c-1.5-1.2-3.2-1.6-5-1.8c-1-0.1-2-0.2-3.1-0.2c-14.3,0-28.8-0.1-43.2-0.1
								c-0.3,0-0.7,0-1.1,0c0.5-1.8,1-3.6,1.5-5.4c1.1-3.7,2.2-7.4,3.3-11.1c0.1-0.2,0-0.4,0-0.5c18.3,0,36.6,0.1,54.9,0.1
								c1.1,0.2,2.2,0.4,3.3,0.6c4,0.8,7.7,2.2,10.6,5c3.1,2.9,4.7,6.5,5.1,10.6c0.4,4.2-0.2,8.1-1.7,11.7s-3.8,6.9-7,9.9
								c-2.2,2.1-5,3.8-7.6,5.7c2.4,4.6,4.9,9.5,7.4,14.3c2.5,4.9,5.1,9.8,7.7,14.9c-0.4,0-0.6,0-0.8,0c-8.4,0-16.8,0-25.2,0
								c-0.5,0-0.8-0.1-1.1-0.6c-2-4.2-4.1-8.4-6.1-12.6c-2-4.1-4-8.3-6-12.4c-0.3-0.6-0.6-0.8-1.2-0.8c-7,0-14.1,0-21.2,0
								c-0.4,0-0.8,0-1.2,0c-1.3,4.4-2.5,8.7-3.7,13.1s-2.4,8.8-3.7,13.3c-7.9,0-15.9,0-23.9,0c0.7-2.5,1.5-5,2.2-7.5
								c1.4-4.8,2.8-9.6,4.2-14.4c1.4-4.7,2.8-9.5,4.2-14.2c1.4-4.6,2.7-9.3,4-13.8c0.1-0.4,0.2-0.5,0.7-0.5c7.5,0,14.9,0,22.4,0.1
								c0.1,0,0.2,0,0.3,0.1c-0.7,2.3-1.4,4.6-2.1,6.9C1755.2,1491.3,1755.4,1491.3,1755.6,1491.3z M1759.8,1305.6l0.6-0.5
								c0.3-0.4,0.8-0.8,1.4-1l4.6-3.3c5.3-3.8,5.4-3.9,10.3-6.9c1.2-0.7,2.6-1.6,4.5-2.7l3.2-1.9l1.8,3.3
								c13,23.9,38.7,42.1,68.9,48.6c9,1.9,18.3,2.8,27.6,2.7h0.1h0.1c9.3,0.1,18.6-0.8,27.6-2.7c30.1-6.5,55.9-24.6,68.9-48.6
								l1.8-3.3l3.2,1.9c1.9,1.1,3.3,2,4.5,2.7c4.9,3,5,3,10.3,6.9l4.6,3.3c0.6,0.3,1.1,0.6,1.4,1l0.6,0.4l-0.2,0.3
								c0.6,1.2,0.3,2.7,0.2,3.7c-0.1,0.6-0.2,1.3-0.3,2.1c-2,18.7-5,30.3-7.8,41.6c-1,4-2,7.7-2.9,11.7l-0.3,1.2l-0.9,0.8
								c-34.7,28.9-67.2,41.2-108.9,41.2c-0.7,0-1.3,0-2,0c-0.6,0-1.2,0-1.9,0c-41.6,0-74.2-12.3-108.9-41.2l-0.9-0.8l-0.3-1.2
								c-0.9-4-1.8-7.7-2.9-11.7c-2.9-11.3-5.8-22.9-7.8-41.6c-0.1-0.8-0.2-1.5-0.3-2.1c-0.1-1-0.4-2.4,0.2-3.7L1759.8,1305.6z
								 M2065.3,1480.9c-0.4,5.4-0.9,10.8-1.4,16.2c-4.7,0-9.3,0-13.9,0c-0.2,1.4-0.3,2.8-0.4,4.2c-0.5,4.9-0.9,9.8-1.4,14.7
								c-0.1,1.1,0.2,1.8,1.3,2.2s2.2,0.6,3.4,0.6c2.6,0.1,5.1,0,7.7,0c0.2,0,0.5,0,0.9,0c-0.5,5.4-1,10.8-1.4,16.3
								c-0.2,0-0.3,0-0.4,0c-5.7,0-11.5,0-17.2,0c-5.1-0.1-9.2-2.2-12.6-6.5c-2.1-2.7-2.8-5.7-2.6-8.8c0.3-4.4,0.7-8.8,1.1-13.2
								c0.4-4.1,0.9-8.1,1.3-12.1s0.9-8,1.4-12c0.3-3.2,0.7-6.4,1-9.5c0.3-3.2,0.6-6.3,1-9.4c0-0.1,0.1-0.2,0-0.3
								c6.7,0,13.4,0,20.1,0.1c-0.5,5.8-1.1,11.6-1.7,17.5C2056.1,1480.9,2060.7,1480.9,2065.3,1480.9z M2062.7,1468.8
								c-0.2-3,1.6-5.2,4.4-5.5c2.8-0.3,5.6,1.6,6.7,4.5c0,0.1,0.1,0.2,0.1,0.2c0.1,0.7,0.2,1.4,0.3,2.1c-0.3,1.5-0.8,2.8-2.1,3.7
								c-1.8,1.3-3.8,1.4-5.9,0.3C2064.2,1472.9,2062.9,1471.2,2062.7,1468.8z M2037.3,1557.5c2.5,0,4.8,0.5,6.9,1.6
								s3.9,2.7,5.4,4.9v-5.7h3.9v31h-3.9v-5.3c-1.7,2-3.5,3.6-5.6,4.6s-4.4,1.5-6.8,1.5c-4.4,0-8.1-1.6-11.2-4.8
								c-3.1-3.2-4.7-7-4.7-11.6c0-4.5,1.6-8.3,4.7-11.4C2029.2,1559.1,2032.9,1557.5,2037.3,1557.5z M2022.2,1518.8
								c-2.5,5.8-6.8,9.9-12.2,12.9c-5.3,3-11.3,4.4-17.5,4.9c-0.4,0-0.8,0.1-1.2,0.1c-2.2,0-4.4,0-6.7,0c-1.4-0.1-2.8-0.3-4.3-0.5
								c-4.9-0.6-9.6-1.9-14-4.5c-6.3-3.9-10-9.5-10.7-16.8c-0.7-6.6,0.3-12.9,3.6-18.4c2.6-4.4,6.2-7.6,10.5-10.2
								c6.1-3.6,12.6-5.6,19.7-6.1c5.6-0.4,11.2-0.1,16.8,1.5c4.1,1.1,7.9,3,11.2,5.8c4.2,3.6,6.7,8.1,7.2,13.5
								C2025.2,1507.2,2024.6,1513.2,2022.2,1518.8z M1992.8,1559c2.1-1,4.3-1.5,6.8-1.5c4.4,0,8.1,1.6,11.2,4.8
								c3.1,3.2,4.7,7,4.7,11.6c0,4.5-1.6,8.3-4.7,11.5s-6.9,4.8-11.3,4.8c-2.5,0-4.8-0.5-6.9-1.6c-2-1.1-3.9-2.7-5.4-4.9v5.7h-4
								v-42.9h4v17.3C1988.9,1561.6,1990.7,1560,1992.8,1559z M1969.8,1565.5c-0.5-1.2-1.3-2.2-2.4-3s-2.5-1.1-4.1-1.1
								c-1.9,0-3.7,0.6-5.3,1.7c-1.6,1.1-2.8,2.7-3.5,4.6s-1.1,5.1-1.1,9.5v12.1h-4v-15.9c0-3.7-0.2-6.3-0.7-7.6s-1.3-2.4-2.4-3.2
								c-1.1-0.8-2.5-1.2-4.1-1.2c-1.8,0-3.6,0.6-5.2,1.7s-2.8,2.6-3.6,4.5c-0.8,1.9-1.2,4.8-1.2,8.6v13.1h-4v-31h4v5.4
								c1.4-2,2.8-3.4,4.3-4.3c2-1.2,4.1-1.8,6.4-1.8c1.5,0,2.9,0.3,4.3,0.9c1.3,0.6,2.5,1.4,3.3,2.3c0.9,1,1.6,2.4,2.2,4.2
								c1.3-2.4,3-4.3,5-5.5c2-1.3,4.1-1.9,6.4-1.9c2.1,0,4,0.5,5.7,1.6s2.9,2.6,3.7,4.5s1.2,4.8,1.2,8.7v16.9h-4.1v-16.9
								C1970.5,1569,1970.2,1566.7,1969.8,1565.5z M1917.8,1536.8c-2.5,0-4.9,0-7.3,0c-1.3-0.1-2.7-0.3-4-0.5
								c-5.4-0.7-10.5-2.1-15.1-5.3c-6-4.2-8.7-10.1-8.1-17.5c0.3-3.5,0.8-7,1.5-10.4c0.6-3.4,1.3-6.8,2.1-10.2
								c1.1-5.1,2.1-10.2,3.2-15.2s2.1-10,3.1-14.9c0-0.1,0-0.2,0-0.3c7.3,0,14.5,0,21.6,0c-0.7,3.5-1.5,7-2.2,10.5
								c-0.6,2.5-1.1,5-1.6,7.6c0,0.1-0.1,0.3-0.1,0.5c1.6-0.3,3.2-0.5,4.8-0.7c8-0.8,15.9-0.4,23.5,2.9c3.1,1.4,6,3.2,8.2,5.8
								c2.3,2.8,3.6,6.1,4.2,9.6c1,6,0.6,11.8-1.4,17.5c-2.4,6.5-6.8,11.3-12.6,14.8c-5,2.9-10.4,4.6-16.1,5.3
								C1920.4,1536.5,1919.1,1536.6,1917.8,1536.8z M1920.9,1573.9c0,4.3-1.5,8.1-4.5,11.3c-3,3.2-6.9,4.9-11.6,4.9
								c-4.8,0-8.6-1.6-11.7-4.9c-3-3.2-4.5-7-4.5-11.3s1.4-8,4.3-11.2c3.1-3.5,7.1-5.2,11.9-5.2s8.7,1.7,11.9,5.2
								C1919.4,1565.8,1920.9,1569.5,1920.9,1573.9z M1844.2,1589.3h-5.2l-15.1-19.5h-2.4v19.5h-4.2v-41.9h8.3
								c4.7,0,7.8,0.2,9.5,0.6c2.5,0.6,4.5,1.8,6.1,3.7c1.6,1.9,2.3,4.2,2.3,6.9c0,2.3-0.5,4.3-1.6,6s-2.6,3-4.6,3.9
								s-4.7,1.3-8.3,1.4L1844.2,1589.3z M1837.7,1536.7c-1.9-0.2-3.8-0.4-5.6-0.6c-5.1-0.8-10-2.3-14.2-5.4
								c-5.1-3.9-7.7-9.1-7.9-15.7c-0.2-5.3,0.8-10.4,3.2-15.2c2.5-5.2,6.3-9.2,11.1-12.3c6.2-4,12.9-6.4,20.1-7.3
								c6.7-0.8,13.3-0.6,19.8,1.2c4.9,1.4,9.4,3.8,12.7,7.8c2.7,3.2,4.1,6.9,4.2,11.1c0.1,3.4-0.2,6.8-1,10.1
								c-0.7,3.3-2,6.5-3.7,9.5c-2.9,5.1-7.2,8.7-12.2,11.5c-5.3,2.9-11,4.5-17,5.1c-0.9,0.1-1.7,0.2-2.6,0.3
								C1842.2,1536.7,1839.9,1536.7,1837.7,1536.7z M1854.6,1562.7c3.1-3.5,7.1-5.2,11.9-5.2s8.7,1.7,11.9,5.2
								c2.9,3.2,4.3,6.9,4.3,11.2s-1.5,8.1-4.5,11.3c-3,3.2-6.9,4.9-11.6,4.9c-4.8,0-8.6-1.6-11.7-4.9c-3-3.2-4.5-7-4.5-11.3
								C1850.4,1569.6,1851.8,1565.8,1854.6,1562.7z M1729,1467.7c-1.1,3.7-2.2,7.4-3.3,11.2c-7.5,0-15,0-22.5-0.1
								c1.7-5.7,3.5-11.4,5.3-17c7.4,0,14.8,0,22.2,0.1C1730.1,1463.8,1729.6,1465.8,1729,1467.7z M1724,1484.2c0.1,0,0.1,0,0.2,0.1
								c-0.4,1.3-0.7,2.6-1.1,3.8c-1.7,5.9-3.5,11.8-5.3,17.7c-1.8,6-3.6,12-5.4,18.1c-1,3.3-2,6.7-3,10c-0.2,0.7-0.4,0.8-1,0.8
								c-5.2,0-10.4,0-15.6,0c-2.4,0-4.7,0-7.1,0c0-0.1,0-0.3,0-0.4c0.6-2,1.3-3.9,1.9-5.9c1.1-3.5,2.2-7,3.3-10.5
								c1.1-3.4,2.1-6.9,3.3-10.3c1.2-3.9,2.3-7.7,3.5-11.5s2.4-7.6,3.6-11.3c0.1-0.4,0.2-0.6,0.6-0.6
								C1709.5,1484.2,1716.8,1484.2,1724,1484.2z M2350.7,4144.6l0.1,0.1c11.7,16.6,22,32.1,30.9,46.7
								c-44.7,11.1-89.8,20.7-135.2,28.7c-118.1,20.8-239.6,31.4-361.2,31.4s-243.1-10.6-361.2-31.4c-45.4-8-90.6-17.6-135.3-28.7
								c8.9-14.5,19.2-30,30.9-46.7l0.1-0.1c13.8-20.2,27.8-38.6,41.9-55.2c-2.7-0.6-5.4-1.2-8.2-1.8l-11.5-2.6l7.6-8.9
								c20.7-24.4,42-45.2,63.3-62.1l-0.5-0.1l13.3-9.6l2.5-1.8l0,0c41-28.9,83.4-44.2,126.2-45.6h0.3h0.3
								c159.8,9.5,314.6,9.5,460.2,0h0.3h0.3c42.8,1.3,85.2,16.7,126.2,45.6l0,0l2.5,1.8l13.3,9.6l-0.5,0.1
								c21.3,16.9,42.6,37.8,63.3,62.1l7.6,8.9l-11.5,2.6c-2.7,0.6-5.4,1.2-8.2,1.8C2322.9,4106.1,2336.9,4124.5,2350.7,4144.6z
								 M2368.2,4132.5c-12.7-18.5-25.6-35.7-38.6-51.4c71.8-16.6,142.4-37.3,211.6-62.1c99.9-35.8,196.2-80.1,286.3-131.7
								c89.3-51.1,173.2-109.8,249.5-174.5s145.6-135.8,205.9-211.5c60.9-76.4,113.2-158.1,155.5-242.8
								c43.1-86.3,76.1-176.6,98.3-268.4c22.7-94.2,34.3-191.2,34.3-288.2c0-3,0-6.1,0-9.1l104.4,59.6
								c-2.9,90.1-14.8,179.8-35.6,267.3c-23.5,98.9-58.5,196.2-104.2,289.2c-44.8,91.3-100.3,179.5-164.9,261.9
								c-64,81.7-137.5,158.5-218.5,228.3s-170.2,133.2-265,188.5c-95.8,55.8-198.1,103.7-304.3,142.4
								c-58.5,21.3-118.5,40-179.5,55.8C2393.3,4169.4,2381.7,4151.6,2368.2,4132.5z M2257.2,1210.3c118.5,21,235,52.3,346.3,93
								c109.3,40,214.6,89.5,313.2,147.2c24.8,14.5,49.3,29.6,73.3,45.2c56.8,38.4,111,79.8,162,123.7
								c81,69.8,154.5,146.6,218.5,228.3c64.6,82.4,120.1,170.5,164.9,261.9c45.6,93,80.7,190.3,104.2,289.2
								c20.6,86.7,32.5,175.7,35.5,264.9l-108.4-61.9c-5.2-63.4-15.3-126.3-30.2-188.1c-22.2-91.8-55.2-182.1-98.3-268.4
								c-42.3-84.7-94.6-166.4-155.5-242.8c-60.3-75.7-129.6-146.8-205.9-211.5c-76.3-64.7-160.2-123.4-249.5-174.5
								c-90.1-51.6-186.4-95.9-286.3-131.7c-178.4-64-366.4-100.8-560-110c10.2-16.5,15.2-35.2,14.3-54.6
								c-0.7-14.2-4.5-27.8-11-40.2C2076.3,1184.4,2167.7,1194.5,2257.2,1210.3z M1782.4,1221c1-23.2,11.9-44.8,30.7-60.8
								c18.6-15.8,42.9-24.6,68.6-24.6c25.6,0,50,8.7,68.6,24.6c18.9,16,29.8,37.6,30.9,60.8c1.1,24-8.4,46.8-26.7,64.4
								c-19,18.2-44.7,28.2-72.5,28.2c-27.9,0-53.7-10-72.7-28.1C1790.9,1267.9,1781.4,1245.1,1782.4,1221z M400,1847.8
								c64-81.7,137.5-158.5,218.5-228.3c51-43.9,105.2-85.3,162-123.7c24-15.6,48.5-30.7,73.3-45.2
								c98.6-57.6,203.9-107.1,313.2-147.2c111.3-40.8,227.8-72.1,346.3-93c87.2-15.4,176.1-25.4,265.7-29.8
								c-6.4,12.3-10.1,25.9-10.7,39.9c-0.9,19.5,4.2,38.4,14.5,54.9c-191.3,9.7-377,46.4-553.5,109.6
								c-99.9,35.8-196.2,80.1-286.3,131.7c-89.2,51.1-173.1,109.8-249.4,174.4c-76.3,64.7-145.6,135.8-205.9,211.5
								c-60.9,76.4-113.2,158.1-155.5,242.8c-43.1,86.3-76.1,176.6-98.3,268.4c-14.9,61.7-25,124.5-30.2,187.8l-108.3,61.9
								c3-89.2,14.9-178,35.5-264.7c23.5-98.9,58.5-196.2,104.2-289.2C279.9,2018.3,335.4,1930.2,400,1847.8z M79.8,2449.8
								c24.1-102.1,60.1-202.5,107-298.4c18.7-38.2,39.2-75.9,61.4-112.9c-11.3,20.4-22,41-32.2,61.8
								c-46.3,94.4-81.9,193.2-105.8,293.7c-22.3,94.1-34.6,190.7-36.6,287.5l-30.2,38.3C46.7,2628.8,58.9,2538.2,79.8,2449.8z
								 M43.3,2815.5l31.6-42c4,84.7,15.8,168.9,35.4,251.2c23.8,100.5,59.4,199.3,105.8,293.7c45.5,92.7,101.7,182,167.3,265.6
								c64.9,82.8,139.3,160.6,221.4,231.3C686.8,3886,777,3950.2,873,4006c96.8,56.4,200.4,104.8,307.7,144
								c57.4,20.9,116.2,39.3,175.9,55c-17.4,32-27.5,59.2-30.7,82.5c-53.8-14.8-106.8-31.7-158.6-50.7
								c-109.3-40-214.6-89.5-313.2-147.2c-97.6-57.1-189.3-122.6-272.7-194.7c-83.3-72.1-158.9-151.4-224.8-235.8
								c-66.4-85.1-123.4-176-169.5-270.3c-46.9-96-82.9-196.4-107-298.4C58.5,3000.4,46.3,2908.2,43.3,2815.5z M3506.2,3687.7
								c-73,154.2-164.5,288.9-271.9,400.5c-84,81.6-177.3,155.9-277.4,220.7c-101.1,65.5-209.8,121.8-323.1,167.5
								c-115.4,46.5-236.5,82.2-360,106.2c-126.8,24.6-257.5,37.1-388.4,37.1s-261.6-12.5-388.4-37.1
								c-123.5-24-244.6-59.7-360-106.2c-113.3-45.6-222-102-323.1-167.5c-100.1-64.9-193.5-139.1-277.4-220.7
								c-107.4-111.5-198.9-246.3-271.9-400.5c-32.7-69.1-62.1-142.9-88.1-221.1c36.4,67.5,78.2,133,125.2,196
								c112.1,150.2,250.9,282.7,412.7,394c163.1,112.3,344.9,199.7,540.4,259.8c25.7,7.9,51.5,15.3,77.6,22.2
								c11.6,25.3,36.5,43.3,76,55h0.1c118,33.3,278.5,52,476.9,55.6h0.2h0.2c198.4-3.6,358.9-22.3,476.9-55.6h0.1
								c39.4-11.7,64.4-29.8,76-55c26-6.9,51.9-14.3,77.6-22.2c195.4-60.1,377.2-147.6,540.4-259.8
								c161.8-111.3,300.6-243.9,412.7-394c47.1-63.1,88.9-128.5,125.2-196C3568.3,3544.8,3538.9,3618.7,3506.2,3687.7z
								 M3690.7,3090.4c-24.1,102.1-60.1,202.5-107,298.4c-46.1,94.3-103.1,185.2-169.5,270.3c-65.8,84.4-141.5,163.7-224.8,235.8
								c-83.4,72.2-175.1,137.7-272.7,194.7c-98.6,57.6-203.9,107.1-313.2,147.2c-51.9,19-104.9,35.9-158.7,50.7
								c-3.1-23.4-13.2-50.5-30.7-82.5c59.7-15.7,118.5-34.1,175.9-55c107.3-39.1,210.8-87.6,307.7-144
								c95.9-55.9,186.2-120,268.2-190.7s156.5-148.5,221.4-231.3c65.5-83.6,121.8-173,167.3-265.6
								c46.3-94.4,81.9-193.2,105.8-293.7c19.5-82.1,31.3-166.1,35.3-250.6l31.6,42C3724.2,2908.6,3711.9,3000.6,3690.7,3090.4z"/>
							<path d="M1804.1,1343.1c22.3,14.1,48.9,21.5,76.8,21.5c0.6,0,1.3,0,1.9,0c0.7,0,1.4,0,2,0c27.9,0,54.5-7.4,76.8-21.5
								c14.7-9.3,24.4-22.2,34.3-35.9l-0.9-0.7c-5.1-3.7-5.1-3.7-9.8-6.5c-0.4-0.3-0.9-0.5-1.4-0.9c-14.6,24.4-40.5,42.2-71.8,48.9
								c-9.5,2-19.3,3-29.1,2.8c-9.8,0.1-19.7-0.8-29.1-2.8c-31.2-6.7-57.2-24.4-71.8-48.9c-0.5,0.3-1,0.6-1.4,0.9
								c-4.7,2.8-4.7,2.8-9.8,6.5l-0.9,0.7C1779.7,1321,1789.4,1333.9,1804.1,1343.1z"/>
							<path d="M1777.4,1362.2c32.9,27.2,63.9,38.8,103.4,38.8c0.6,0,1.3,0,1.9,0c0.7,0,1.4,0,2,0c39.5,0,70.5-11.6,103.4-38.8
								c0.8-3.6,1.7-7.1,2.6-10.7c2.3-9.1,4.7-18.4,6.5-31.5c-9,12.5-12.6,16.9-32,29.1l0,0c-14.7,9.2-31,15.8-48.4,19.3
								c-10.4,2.2-21.2,3.3-32.2,3.3c-0.7,0-1.3,0-2,0c-0.6,0-1.2,0-1.9,0c-3.7,0-7.3-0.1-10.9-0.4c-3.6-0.2-7.2-0.6-10.7-1.1
								c-5.3-0.7-10.6-1.7-15.7-3c-15.4-3.8-30-9.9-43.2-18.2l0,0c-19.4-12.2-23-16.6-32-29.1c1.9,13.1,4.2,22.4,6.5,31.5
								C1775.7,1355.1,1776.6,1358.6,1777.4,1362.2z"/>
						</g>
					</g>
				</g>
			</g>
			<path d="M2007,1989c-31.4-28.8-73.1-44.7-117.5-44.7c-44.8,0-87.6,15.9-120.4,44.7c-33,29-52.4,68-54.4,109.9
				c-2.1,42.6,13.9,83,45,113.6c31.8,31.2,75.1,48.4,122.2,48.4c46.9,0,90.9-17.3,124.1-48.6c32.7-30.8,50.7-71.2,50.5-113.7
				C2056.4,2057.1,2038.8,2018.2,2007,1989z M1886.7,1992c0-1.2,1.1-2.1,2.5-2.1c1.1,0,2.2,0.9,2.1,2.1c-0.1,5.6-0.3,11.1-0.4,16.7
				c0,1.2-1.1,2.1-2.2,2.1c-1.4,0-2.4-0.9-2.4-2.1C1886.4,2003.1,1886.5,1997.5,1886.7,1992z M1872.7,2004.2
				c1.8-2.6,4.4-4.8,7.5-6.3c1.2-0.5,2.5-0.1,3,0.9c0.6,1,0.1,2.2-1,2.8c-2.3,1.1-4.3,2.7-5.7,4.8c-1.4,1.9-2.1,4.2-2.2,6.7
				c-0.1,3.6,1.4,6.8,3.9,9.2c2.5,2.3,6,3.8,10,3.8c3.8,0,7.3-1.5,10-3.8c2.6-2.3,4.3-5.6,4.3-9.2c0.1-2.5-0.7-4.9-2-6.9
				c-1.4-2.1-3.4-3.7-5.9-4.8c-1.1-0.5-1.5-1.7-1-2.7c0.6-1.1,1.9-1.5,3-1c3.2,1.4,5.9,3.6,7.8,6.3c1.7,2.6,2.6,5.8,2.5,9.1
				c-0.1,4.8-2.1,9-5.6,12.2c-3.4,3.1-8.2,5-13.2,5c-5.3,0-10-1.9-13.3-5c-3.4-3.1-5.4-7.4-5.2-12.2
				C1869.8,2009.9,1870.9,2006.8,1872.7,2004.2z M1797.8,2110.1c3.5,3.6,8.1,5.3,13.7,5.3c6.2,0,11.4-2.2,15.6-6.7
				c1.4,1,2,1.5,3.4,2.5c-2.3,2.6-5,4.6-8.4,6c-3.3,1.4-7,2.2-11.1,2.2c-7.7,0-13.7-2.5-18-7.6c-3.6-4.3-5.2-9.5-5-15.6
				c0.3-6.4,2.7-11.7,7.3-15.7c4.6-4,10.2-5.8,16.9-5.4c4,0.2,7.7,1.2,10.9,2.9c3.2,1.7,5.8,3.9,7.9,6.8c-1.4,1-2.1,1.4-3.5,2.4
				c-1.8-2.4-4.1-4.3-6.7-5.6s-5.5-2.1-8.7-2.3c-3.5-0.2-6.7,0.4-9.7,1.9s-5.4,3.6-7.1,6.3s-2.7,5.8-2.8,9.3
				C1792.6,2102.1,1794.2,2106.6,1797.8,2110.1z M1839.2,2118.5c0.3-13.6,0.5-27.3,0.8-40.9c1.7,0.1,2.6,0.1,4.3,0.1
				c-0.2,12.3-0.4,24.6-0.7,36.9c6.8,0,10.2,0,16.9,0.1c0.1,1.4,0.1,2.2,0.1,3.8C1852.1,2118.5,1847.8,2118.5,1839.2,2118.5z
				 M1892.7,2082.2c-8.2,0.1-12.3,0-20.5,0c0,5,0,7.6-0.1,12.6c8.2,0,12.3,0,20.5,0c0,1.6,0,2.4,0,3.9c-8.2,0-12.3,0-20.5,0
				c0,6.3-0.1,9.5-0.1,15.8c8.3,0,12.4,0,20.6,0c0,1.6,0,2.4,0,3.9c-9.9,0.1-15,0.1-25,0.1c0.1-13.4,0.2-26.9,0.3-40.3
				c9.9,0.1,14.9,0.1,24.8,0.1C1892.7,2079.9,1892.7,2080.7,1892.7,2082.2z M1934.3,2118.5c-2.9-5.4-4.3-8.1-7.2-13.4
				c-7.6,0.1-11.3,0.1-18.9,0.2c-2.7,5.3-4,8-6.7,13.3c-2,0-2.9,0-4.9,0c6.9-13.6,13.6-27.1,20.2-40.7c0.4,0,0.6,0,1.1,0
				c7,13.5,14.1,27.1,21.2,40.6C1937.2,2118.5,1936.2,2118.5,1934.3,2118.5z M1979.7,2118.4c-9.9-10.6-19.9-21.2-30-31.6
				c0.3,10.6,0.6,21.1,0.9,31.7c-1.8,0-2.7,0-4.6,0c-0.4-13.9-0.7-27.7-1.1-41.6c0.3-0.1,0.5-0.1,0.9-0.1
				c10.1,10.4,20.1,20.9,30.1,31.5c-0.4-11.1-0.9-22.1-1.3-33.2c1.7-0.1,2.6-0.2,4.3-0.3c0.6,14.5,1.2,29.1,1.8,43.6
				C1980.3,2118.4,1980.1,2118.4,1979.7,2118.4z"/>
		</g>
		<g id="buttom">
			<path id="button" class="fillpulse" d="M1516.2,2039.8c-35.4,0-66.5,26.7-69.4,59.4c-1.4,15.1,3.5,29.6,13.6,40.6c11.2,12.2,27.3,19,45.5,19
				c36.3,0,67.6-27.2,69.9-60.7c1-14.8-4-28.9-14.1-39.6C1550.5,2046.6,1533.9,2039.8,1516.2,2039.8z M1535.5,2121.6
				c-0.1,1.4-1.4,2.6-3,2.6c-6.5,0-12.8,0-19.2,0c0.5-5.8,0.9-11.5,1.4-17.3c-4.1,0-8.2,0-12.3,0c-0.5,5.8-0.9,11.5-1.4,17.3
				c-6.5,0-12.8,0-19.2,0c-2,0-2.9-1.9-2.7-3.7c0.6-6.9,1.1-13.8,1.7-20.7c0.1-1.1,6-4.8,7.3-5.7s2.4-1.8,3.8-2.7
				c2.4-1.6,17.4-12.8,18.9-13.5c1.3,0.8,2.1,1.5,3.3,2.5c5.5,4.5,11.1,9,16.8,13.5c1.2,1,2.2,1.8,3.3,2.7c1.3,1.2,3.1,2,3.1,2.9
				C1536.6,2106.9,1536.1,2114.3,1535.5,2121.6z M1546.7,2098.2c-1.1,1.1-1.3,1.8-3,2.2c-1.5-0.7-2.9-2.1-4.1-3.1
				c-8.1-6.6-16.2-13.2-24.2-19.8c-1.5-1.2-2.6-2.2-4.2-3.3c-2.3,1.1-35.4,26.2-36.4,26.3c-1.3,0.2-4.7-3.9-4.6-5.2
				c0.1-0.9,4.7-3.9,5.6-4.6s2.1-1.5,3-2.2c1-0.8,2.1-1.6,3.2-2.1c0.3-3.6,0.8-17.6,2.3-19.9c2.8-0.6,7.1-0.3,10.1-0.3
				c2.4,0,2.1,1.8,1.9,4c-0.2,2-0.3,4-0.5,6c3.6-2.6,7.3-5.3,11-8c2.5-1.8,2.4-2,5.7-2c2.5,0,3.8,1.8,5.9,3.4
				c3.4,2.8,6.8,5.7,10.5,8.5c4.8,3.6,10.6,9,15.5,12.7c0.9,0.7,1.7,1.3,2.5,2c0.6,0.5,0.7,0.6,1.3,1.1
				C1549.9,2095.4,1548.3,2096.5,1546.7,2098.2z"/>
		</g>
	</g>
</g>
<g id="Dock">
	<g>
		
			<rect x="2374.5" y="601.6" transform="matrix(0.1294 -0.9916 0.9916 0.1294 1674.7761 3144.7849)" class="st0" width="507.7" height="34"/>
	</g>
	<g>
		
			<rect x="1125.2" y="364.9" transform="matrix(0.9916 -0.1294 0.1294 0.9916 -70.4633 153.0028)" class="st0" width="34" height="507.7"/>
	</g>
	<g>
		<path class="st0" d="M1783.4,732.4c-16.3,0-32.6-6.1-46-17.2c-14.3-11.8-24.2-28.2-27.9-46.1c-3.9-19.3-0.3-38.1,10.3-52.9
			c11-15.4,28.5-24.8,48-25.8l0,0c9.2-0.5,18.6-1,27.7-1.5c28.7-1.6,58.4-3.3,87.8-3.4c29.4-0.1,59.1,1.3,87.8,2.7
			c9.2,0.4,18.7,0.9,28.1,1.3c19.5,0.8,37.2,10.1,48.7,25.4c11.1,14.9,15.4,33.6,11.9,52.9c-3.2,17.9-12.7,34.5-27,46.5
			c-13.4,11.3-29.7,17.5-46.1,17.5c-0.5,0-1,0-1.5,0c-5.6-0.1-11.2-0.3-16.8-0.4c-27.3-0.7-55.6-1.3-83.3-1.3
			c-27.2,0.1-54.9,0.9-81.6,1.7c-6.1,0.2-12.1,0.4-18.2,0.5C1784.6,732.4,1784,732.4,1783.4,732.4z M1768.9,611.7
			c-13.2,0.7-24.5,6.7-31.8,16.9c-7.1,10-9.5,22.8-6.8,36.3c2.7,13.1,10,25.2,20.6,33.9c10,8.3,22,12.6,33.7,12.3
			c6-0.2,12.1-0.3,18.2-0.5c26.9-0.8,54.8-1.6,82.2-1.7c28-0.1,56.4,0.6,83.8,1.3c5.6,0.1,11.2,0.3,16.8,0.4
			c11.7,0.3,23.6-4.2,33.4-12.5c10.5-8.9,17.5-20.9,19.8-34c2.4-13.4-0.4-26.3-8-36.4c-7.7-10.3-19.3-16.3-32.5-16.9
			c-9.4-0.4-18.9-0.9-28.2-1.3c-28.5-1.4-57.9-2.8-86.7-2.7c-28.8,0.1-58.2,1.8-86.7,3.4C1787.6,610.7,1778.2,611.3,1768.9,611.7
			L1768.9,611.7z"/>
	</g>
	<g>
		<path class="st0" d="M2300.8,284.9c-0.1,0-0.1,0-0.2,0c-5.2,0-10.2-0.9-14.8-2.7c-4.5-1.7-8.4-4-11.7-7.1c-3.2-3-5.6-6.3-7.1-10.1
			c-1.5-3.8-2-7.8-1.5-11.8c0.5-3.8,1.9-7.3,4.2-10.6c2.1-3,4.7-5.6,8-7.8c3.1-2,6.5-3.6,10.3-4.7c7.6-2.2,16.2-2.2,23.9,0
			c3.8,1.1,7.3,2.7,10.4,4.7c3.3,2.2,6.1,4.8,8.2,7.7c2.4,3.3,3.9,6.8,4.5,10.6c0.7,4,0.3,8-1.1,11.9c-1.4,3.8-3.7,7.2-6.9,10.2
			s-7.1,5.4-11.6,7.1C2310.8,284.1,2305.9,284.9,2300.8,284.9z M2299.8,237c-3.3,0-6.5,0.5-9.5,1.3c-2.9,0.9-5.6,2.1-7.9,3.6
			c-2.3,1.6-4.3,3.4-5.7,5.5c-1.5,2.1-2.4,4.4-2.7,6.9c-0.3,2.6,0,5.1,1,7.5c1,2.5,2.7,4.9,5,7c2.5,2.3,5.5,4.1,8.9,5.4
			c3.7,1.4,7.7,2.1,11.9,2.1c0.1,0,0.1,0,0.2,0c4.1,0,8-0.7,11.6-2c3.4-1.2,6.4-3.1,8.7-5.3c2.2-2.1,3.8-4.4,4.7-6.9
			c0.9-2.4,1.1-5,0.7-7.5c-0.4-2.4-1.4-4.8-3-7c-1.6-2.1-3.6-4-6-5.6s-5.1-2.8-8.1-3.7C2306.3,237.5,2303.1,237,2299.8,237z"/>
	</g>
	<path class="st0" d="M2676.5,317c-6.3-53.3-28.7-104.7-64.9-148.7c-40.9-49.7-118.7-112.9-257.3-131.8h-0.1
		C2210.6,18,2068.3,8.2,1930.6,7c-0.3-0.1-0.6-0.2-0.9-0.3c-14.9-4.4-30.4-6.7-46.2-6.7c-15.8,0-31.3,2.3-46.1,6.7
		c-0.3,0.1-0.7,0.2-1,0.3c-136.6,1.3-277.6,11.2-419.8,29.4h-0.1c-138.7,19-216.5,82.1-257.3,131.8c-36.2,44-58.6,95.4-64.9,148.7
		c-6,51.2,3.8,100.8,27.6,139.7c19.7,32.2,48.5,56.4,83.2,69.9c37.5,14.6,80.8,16.7,128.6,6.4c183-27.5,368.7-41.6,551.8-42
		c183.1,0.4,368.7,14.5,551.8,42c19.8,4.3,38.8,6.4,57,6.4c25.7,0,49.6-4.3,71.6-12.8c34.8-13.5,63.5-37.7,83.2-69.9
		C2672.7,417.8,2682.5,368.1,2676.5,317z M2017.7,123.9c-0.3-1.6-0.6-3.2-1-4.8c3.8,7.5,6.4,15.4,7.8,23.5
		c2.5,14.2,1.1,28.3-4.1,41.9c-5.2,13.7-13.9,26.3-26,37.4c-12.5,11.6-28.6,21.1-46.4,27.6c-19,6.9-39.6,10.4-61.2,10.3
		s-42.3-3.7-61.5-10.8c-18.1-6.6-34-16-47.2-27.9c-12.4-11.1-21.5-23.7-27.1-37.5c-5.5-13.6-7.3-27.6-5.4-41.8
		c1.3-9.2,4.1-18.1,8.4-26.5c-0.7,2.8-1.2,5.6-1.6,8.5c-2,14.5-0.2,28.8,5.5,42.6c5.6,13.7,14.5,26.1,26.6,37
		c12.6,11.3,27.6,20.2,44.7,26.5c18,6.6,37.3,10,57.3,10.1c0.2,0,0.5,0,0.7,0c19.8,0,38.8-3.2,56.3-9.6c17.1-6.2,32-15.1,44.2-26.3
		c11.9-11,20.5-23.4,25.7-37.1C2018.8,152.8,2020.2,138.4,2017.7,123.9z M2033.7,189.5c0.1-0.4,0.3-0.7,0.4-1.1
		c0.4,11.3-1.5,22.6-5.5,33.5c-5.5,14.8-14.8,28.5-27.6,40.5c-13.3,12.5-30.3,22.8-49.2,29.8c-20.2,7.5-41.9,11.2-64.8,11.1
		c-22.8-0.1-44.8-4-65.2-11.7c-19.2-7.2-36-17.3-50-30.1c-13.1-12-22.8-25.7-28.8-40.6c-4.6-11.7-6.8-23.7-6.5-35.8
		c0.5,1.3,0.9,2.5,1.4,3.8c6.4,15.8,16.8,30.1,30.7,42.7c14.6,13.1,32,23.4,51.8,30.6c20.8,7.6,43.2,11.6,66.4,11.7
		c0.3,0,0.6,0,0.9,0c22.9,0,44.9-3.8,65.3-11.2c19.8-7.2,37-17.5,51.1-30.5C2017.8,219.6,2027.7,205.2,2033.7,189.5z M2000.3,161.8
		c-4.4,11.6-11.8,22.3-22,31.7c-10.7,9.8-24.3,17.9-39.4,23.4c-16.2,5.9-33.8,8.9-52.2,8.8c-18.4-0.1-36-3.2-52.5-9.2
		c-15.4-5.7-28.9-13.6-40.2-23.7c-10.5-9.4-18.2-20.1-23-31.8c-1.5-3.6-2.6-7.2-3.5-10.9c5.1,8,11.5,15.5,19.1,22.3
		c12.3,10.9,26.9,19.5,43.4,25.6c17.3,6.3,35.8,9.5,55.1,9.5c0.1,0,0.1,0,0.2,0c19.1,0,37.6-3.2,54.7-9.4c16.5-6,31-14.6,43.1-25.6
		c8.7-7.9,15.7-16.6,21-26.1C2003.5,151.6,2002.2,156.7,2000.3,161.8z M1996,130.8c-4.6,11.5-12.1,21.9-22.3,31.2
		c-10.7,9.7-23.7,17.4-38.4,22.8c-15.6,5.7-32.5,8.6-50,8.6c-17.6,0-34.5-2.9-50.2-8.7c-14.9-5.4-27.9-13.1-38.9-22.8
		c-10.3-9.2-18-19.7-22.8-31.2c-4.8-11.4-6.5-23.3-5.1-35.4c1.3-11.4,5.4-22.4,12.2-32.6c6.5-9.7,15.1-18.4,25.8-25.7
		c10.3-7.1,22.2-12.7,35.3-16.6c13.5-4,27.6-6.1,42.1-6.1c14.4,0,28.6,2.1,42.1,6.1c13.2,3.9,25.2,9.6,35.7,16.7
		c10.8,7.3,19.7,16,26.4,25.8c7,10.2,11.3,21.2,12.9,32.7C2002.1,107.5,2000.6,119.4,1996,130.8z M1754.8,88.6
		c-1.9,2.3-3.7,4.7-5.5,7.1c-9.6,13.6-15.6,28.5-17.7,44.1c-0.3,1.9-0.5,3.9-0.6,5.8c-3.9,9-6.5,18.3-7.8,28
		c-2.4,17.9-0.2,35.5,6.6,52.6c6.8,16.9,17.6,32.3,32.4,45.8c15.4,14.1,33.7,25.1,54.6,33c22,8.2,45.6,12.5,70.1,12.6
		c0.3,0,0.6,0,0.9,0c24.2,0,47.4-4,68.9-12c20.9-7.8,39-18.8,53.9-32.8c14.4-13.6,24.9-29,31.2-46c6.4-17.2,8-34.9,5-52.8
		c-1.4-8.4-3.9-16.5-7.3-24.4c-0.2-3.1-0.6-6.3-1.2-9.4c-2.7-15.7-9.3-30.6-19.5-44.2c-1.6-2.1-3.3-4.2-5-6.2
		c-1-5.8-2.7-11.4-4.9-16.9c115.8,3.7,228.3,12.7,336,26.9c63.7,8.4,152.3,33.7,212.4,106.8c30.2,36.8,48.1,80.9,50.4,124.3
		c2,39-8.4,73.6-29.5,97.6c-19.3,21.9-56.9,44.9-126.8,29.6l-1.4-0.3l-2.1-0.3c-189.1-28.4-378.4-42.8-562.7-42.8
		c-184.4,0-373.7,14.4-562.7,42.8l-1.4,0.2l-2,0.4c-15.8,3.4-29.9,4.9-42.6,4.9c-43.4,0-69.3-17.6-84.3-34.6
		c-21.1-24-31.6-58.6-29.5-97.6c2.3-43.4,20.2-87.5,50.4-124.3c60.1-73.1,148.7-98.5,212.4-106.8c106.9-14.1,218.7-23,333.6-26.8
		C1757.2,78,1755.8,83.2,1754.8,88.6z M2619.8,439c-15.8,25.8-38.8,45.2-66.5,55.9c-31.3,12.2-68.2,13.8-109.6,4.7l-1.1-0.2
		c-184.9-27.8-372.4-42.1-557.3-42.4h-0.1c-185,0.4-372.5,14.6-557.3,42.4l-1.1,0.2c-41.3,9-78.2,7.4-109.6-4.7
		c-27.7-10.8-50.7-30.1-66.5-55.9c-19.9-32.5-28-74.4-22.9-118c5.5-46.8,25.3-92.1,57.4-131.1c37-45,107.9-102.2,235.6-119.7
		c120.8-15.5,240.7-24.8,357.7-28c-2.7,2.9-5.2,5.9-7.5,9.1c-120.1,3.6-236.8,12.7-348.3,27.4c-67.5,8.9-161.5,36-226,114.4
		c-33.1,40.2-52.7,88.8-55.2,136.7c-2.3,44.6,10,84.6,34.8,112.8c17.8,20.3,41.2,33.4,69.3,38.8c23.5,4.5,49.7,3.7,78.1-2.5l1-0.2
		l1-0.2c188-28.3,376.3-42.6,559.6-42.6s371.6,14.3,559.6,42.6l1,0.2l1,0.2c16.3,3.6,32,5.3,46.8,5.3c10.9,0,21.3-1,31.3-2.9
		c28.1-5.4,51.4-18.5,69.3-38.8c24.8-28.2,37.1-68.2,34.8-112.8c-2.5-47.9-22.1-96.4-55.2-136.7c-64.5-78.5-158.5-105.5-226-114.4
		c-112.3-14.8-230-24-351.1-27.5c-2.4-3.1-4.9-6.2-7.7-9.1c117.9,3.1,238.8,12.5,360.7,28.1c127.7,17.5,198.6,74.7,235.6,119.7
		c32,39,51.9,84.3,57.4,131.1C2647.8,364.6,2639.7,406.5,2619.8,439z"/>
</g>
</svg>
