<?xml version="1.0" encoding="utf-8"?>
<!-- Generator: Adobe Illustrator 21.0.0, SVG Export Plug-In . SVG Version: 6.00 Build 0)  -->
<svg version="1.1" id="Layer_1" xmlns="http://www.w3.org/2000/svg" xmlns:xlink="http://www.w3.org/1999/xlink" x="0px" y="0px"
	 viewBox="0 0 3770.5 3540.7" style="enable-background:new 0 0 3770.5 3540.7;" xml:space="preserve">
<style type="text/css">
	.st0{fill:#1A1A18;}
	.st1{display:none;}
	.st2{display:inline;}
	.st3{fill:#FFFFFF;}
	.st4{fill:#FFFFFF;stroke:#FFFFFF;stroke-miterlimit:10;}
</style>
<g id="Layer_2">
	<g>
		<path class="st0" d="M2724.9,1548.9L2688,683.4c-1.9-42.2-9.1-69.8-23.2-89.2c-16.2-22.4-41.5-33.3-77.3-33.3v28.3
			c50.6,0,68.8,24.1,72.1,95.5l36.9,865.4c3.7,97.6-1.2,168.3-15.9,229.2c-16.3,67.8-44.9,123.3-90,174.7
			c-52.8,60.1-113.6,122.1-200.3,168.3c-96,51.2-211.2,76.1-351.9,76.1h-308.3c-140.8,0-255.9-24.9-351.9-76.1
			c-86.7-46.2-147.5-108.2-200.3-168.3c-45.1-51.3-73.7-106.8-90-174.7c-14.6-60.9-19.5-131.6-15.9-229.1l36.9-865.4
			c3.3-71.4,21.5-95.5,72.1-95.5V561c-35.8,0-61.1,10.9-77.3,33.3c-14.1,19.5-21.2,47-23.2,89.3l-36.9,865.6
			c-3.8,100.3,1.4,173.4,16.6,236.9c17.2,71.5,48.6,132.6,96.2,186.8c54.6,62.1,117.5,126.2,208.2,174.6
			c100.2,53.5,219.7,79.5,365.3,79.5h308.3c145.5,0,265-26,365.3-79.5c90.7-48.4,153.7-112.5,208.2-174.6
			c47.6-54.2,79.1-115.3,96.2-186.8C2723.5,1722.3,2728.7,1649.3,2724.9,1548.9z"/>
		<path d="M2238.9,2896.1c-1.4,0.3-2.9,0.5-4.3,0.8c-1.7,0.3-3.3,0.6-5,0.9c-2,0.4-3.9,0.7-5.9,1.1c-1.7,0.3-3.3,0.6-5,0.9
			c-2,0.4-3.9,0.7-5.9,1c-1.7,0.3-3.4,0.6-5,0.9c-2,0.3-3.9,0.7-5.9,1c-1.7,0.3-3.4,0.6-5.1,0.9c-1.9,0.3-3.9,0.6-5.8,1
			c-1.7,0.3-3.4,0.6-5.1,0.8c-1.9,0.3-3.9,0.6-5.8,0.9c-1.7,0.3-3.4,0.5-5.1,0.8c-2,0.3-3.9,0.6-5.9,0.9c-1.7,0.3-3.4,0.5-5.1,0.8
			c-1.9,0.3-3.9,0.6-5.8,0.9c-1.7,0.3-3.4,0.5-5.2,0.7c-1.9,0.3-3.9,0.5-5.8,0.8c-1.7,0.2-3.5,0.5-5.2,0.7c-1.9,0.3-3.9,0.5-5.8,0.8
			c-1.7,0.2-3.5,0.5-5.2,0.7c-1.9,0.3-3.9,0.5-5.8,0.7c-1.7,0.2-3.5,0.4-5.2,0.7c-1.9,0.2-3.9,0.5-5.8,0.7c-1.8,0.2-3.5,0.4-5.3,0.6
			c-1.9,0.2-3.8,0.4-5.8,0.7c-1.8,0.2-3.5,0.4-5.3,0.6c-1.9,0.2-3.9,0.4-5.8,0.6c-1.8,0.2-3.5,0.4-5.3,0.6c-1.9,0.2-3.9,0.4-5.8,0.6
			c-1.8,0.2-3.5,0.4-5.3,0.5c-1.9,0.2-3.9,0.4-5.8,0.6c-1.8,0.2-3.5,0.3-5.3,0.5c-1.9,0.2-3.9,0.4-5.8,0.5c-1.8,0.2-3.5,0.3-5.3,0.5
			c-1.9,0.2-3.9,0.3-5.8,0.5c-1.8,0.2-3.5,0.3-5.3,0.5c-1.9,0.2-3.9,0.3-5.8,0.5c-1.8,0.1-3.5,0.3-5.3,0.4c-1.9,0.1-3.9,0.3-5.8,0.4
			c-1.8,0.1-3.5,0.3-5.3,0.4c-1.9,0.1-3.9,0.3-5.8,0.4c-1.8,0.1-3.5,0.2-5.3,0.4c-2,0.1-3.9,0.2-5.9,0.4c-1.8,0.1-3.6,0.2-5.3,0.3
			c-1.9,0.1-3.9,0.2-5.8,0.3c-1.8,0.1-3.6,0.2-5.3,0.3c-2,0.1-3.9,0.2-5.9,0.3c-1.8,0.1-3.5,0.2-5.3,0.3c-2,0.1-4,0.2-6,0.3
			c-1.7,0.1-3.4,0.2-5.2,0.2c-2,0.1-4,0.2-6.1,0.2c-1.7,0.1-3.4,0.1-5.2,0.2c-2.1,0.1-4.1,0.1-6.2,0.2c-1.7,0.1-3.3,0.1-5,0.2
			c-2.1,0.1-4.3,0.1-6.4,0.2c-1.6,0-3.2,0.1-4.8,0.1c-2.2,0.1-4.4,0.1-6.5,0.1c-1.6,0-3.1,0.1-4.7,0.1c-2.3,0-4.6,0.1-6.9,0.1
			c-1.4,0-2.9,0-4.3,0.1c-2.6,0-5.3,0-7.9,0.1c-1.1,0-2.2,0-3.3,0c-3.7,0-7.5,0-11.2,0s-7.5,0-11.2,0c-1.2,0-2.4,0-3.6,0
			c-2.5,0-5.1,0-7.6-0.1c-1.6,0-3.2,0-4.8-0.1c-2.1,0-4.3-0.1-6.4-0.1c-1.6,0-3.3-0.1-4.9-0.1c-2.1,0-4.2-0.1-6.4-0.1
			c-1.6,0-3.3-0.1-4.9-0.1c-2.1-0.1-4.2-0.1-6.3-0.2c-1.7,0-3.4-0.1-5-0.2c-2.1-0.1-4.1-0.1-6.2-0.2c-1.7-0.1-3.4-0.1-5-0.2
			c-2.1-0.1-4.1-0.2-6.2-0.2c-1.7-0.1-3.4-0.2-5.2-0.2c-2-0.1-4-0.2-6-0.3c-1.8-0.1-3.5-0.2-5.3-0.3c-2-0.1-3.9-0.2-5.9-0.3
			c-1.8-0.1-3.5-0.2-5.3-0.3c-2-0.1-3.9-0.2-5.9-0.3c-1.8-0.1-3.5-0.2-5.3-0.3c-2-0.1-3.9-0.2-5.9-0.4c-1.8-0.1-3.5-0.2-5.3-0.4
			c-2-0.1-3.9-0.3-5.9-0.4c-1.8-0.1-3.5-0.3-5.3-0.4c-2-0.1-3.9-0.3-5.9-0.4c-1.8-0.1-3.5-0.3-5.3-0.4c-2-0.2-3.9-0.3-5.9-0.5
			c-1.8-0.1-3.5-0.3-5.3-0.5c-1.9-0.2-3.9-0.3-5.8-0.5c-1.8-0.2-3.5-0.3-5.3-0.5c-1.9-0.2-3.9-0.4-5.8-0.5c-1.8-0.2-3.5-0.3-5.3-0.5
			c-1.9-0.2-3.9-0.4-5.8-0.6c-1.8-0.2-3.5-0.4-5.3-0.5c-1.9-0.2-3.9-0.4-5.8-0.6c-1.8-0.2-3.5-0.4-5.3-0.6c-1.9-0.2-3.9-0.4-5.8-0.6
			c-1.8-0.2-3.5-0.4-5.3-0.6c-1.9-0.2-3.9-0.4-5.8-0.7c-1.8-0.2-3.5-0.4-5.3-0.6c-1.9-0.2-3.9-0.5-5.8-0.7c-1.8-0.2-3.5-0.4-5.3-0.7
			c-1.9-0.2-3.9-0.5-5.8-0.7c-1.7-0.2-3.5-0.5-5.2-0.7c-1.9-0.3-3.9-0.5-5.8-0.8c-1.7-0.2-3.5-0.5-5.2-0.7c-1.9-0.3-3.9-0.5-5.8-0.8
			c-1.7-0.2-3.4-0.5-5.2-0.7c-1.9-0.3-3.9-0.6-5.8-0.9c-1.7-0.3-3.4-0.5-5.1-0.8c-2-0.3-3.9-0.6-5.9-0.9c-1.7-0.3-3.4-0.5-5.1-0.8
			c-2-0.3-3.9-0.6-5.9-0.9c-1.7-0.3-3.4-0.6-5.1-0.8c-2-0.3-3.9-0.6-5.9-1c-1.7-0.3-3.4-0.6-5.1-0.9c-1.9-0.3-3.9-0.7-5.8-1
			c-1.7-0.3-3.4-0.6-5.1-0.9c-2-0.3-3.9-0.7-5.8-1c-1.7-0.3-3.3-0.6-5-0.9c-2-0.4-3.9-0.7-5.9-1.1c-1.7-0.3-3.3-0.6-5-0.9
			c-1.4-0.3-2.8-0.5-4.3-0.8c-21.2,15.6-42.5,35.3-63.3,58.8c135.5,29.4,275.7,44.3,417,44.3c141.2,0,281.4-14.9,417-44.3
			C2281.4,2931.4,2260.1,2911.6,2238.9,2896.1z"/>
		<path d="M1555.6,2886.1c1.9,0.3,3.8,0.7,5.7,1c1.7,0.3,3.3,0.6,5,0.9c1.9,0.3,3.8,0.7,5.7,1c1.7,0.3,3.3,0.6,5,0.8
			c1.9,0.3,3.8,0.6,5.7,0.9c1.7,0.3,3.3,0.5,5,0.8c1.9,0.3,3.8,0.6,5.7,0.9c1.7,0.3,3.3,0.5,5,0.8c1.9,0.3,3.8,0.6,5.7,0.9
			c1.6,0.2,3.3,0.5,4.9,0.7c1.9,0.3,3.9,0.6,5.8,0.9c1.6,0.2,3.3,0.5,4.9,0.7c2,0.3,4,0.6,5.9,0.8c1.6,0.2,3.2,0.4,4.8,0.7
			c2,0.3,4,0.5,6.1,0.8c1.6,0.2,3.1,0.4,4.7,0.6c2.1,0.3,4.3,0.5,6.4,0.8c1.5,0.2,2.9,0.4,4.4,0.6c2.4,0.3,4.8,0.6,7.3,0.9
			c1.2,0.1,2.3,0.3,3.5,0.4c3.6,0.4,7.1,0.8,10.7,1.2c1.2,0.1,2.3,0.3,3.5,0.4c2.4,0.3,4.8,0.5,7.3,0.8c1.5,0.2,3,0.3,4.5,0.5
			c2.1,0.2,4.2,0.4,6.3,0.7c1.6,0.2,3.2,0.3,4.8,0.5c2,0.2,4,0.4,6,0.6c1.7,0.2,3.3,0.3,5,0.5c2,0.2,3.9,0.4,5.9,0.5
			c1.7,0.2,3.4,0.3,5.1,0.4c1.9,0.2,3.8,0.3,5.8,0.5c1.7,0.1,3.4,0.3,5.1,0.4c1.9,0.2,3.8,0.3,5.7,0.5c1.7,0.1,3.4,0.3,5.2,0.4
			c1.9,0.1,3.8,0.3,5.7,0.4c1.7,0.1,3.5,0.2,5.2,0.4c1.9,0.1,3.8,0.3,5.7,0.4c1.7,0.1,3.5,0.2,5.2,0.3c1.9,0.1,3.8,0.2,5.7,0.4
			c1.7,0.1,3.4,0.2,5.2,0.3c1.9,0.1,3.8,0.2,5.8,0.3c1.7,0.1,3.4,0.2,5.1,0.3c1.9,0.1,3.9,0.2,5.8,0.3c1.7,0.1,3.4,0.2,5.1,0.2
			c1.9,0.1,3.9,0.2,5.8,0.3c1.7,0.1,3.4,0.1,5.1,0.2c2,0.1,3.9,0.2,5.9,0.2c1.7,0.1,3.4,0.1,5,0.2c2,0.1,4,0.1,6,0.2
			c1.7,0.1,3.3,0.1,5,0.2c2,0.1,4,0.1,6,0.2c1.6,0,3.3,0.1,4.9,0.1c2.1,0,4.1,0.1,6.2,0.1c1.6,0,3.1,0.1,4.7,0.1
			c2.2,0,4.3,0.1,6.5,0.1c1.5,0,3,0,4.4,0.1c2.4,0,4.9,0,7.3,0.1c1.2,0,2.4,0,3.6,0c3.6,0,7.3,0,10.9,0s7.3,0,10.9,0
			c1.2,0,2.5,0,3.7,0c2.4,0,4.8,0,7.2-0.1c1.5,0,3,0,4.4-0.1c2.2,0,4.3-0.1,6.5-0.1c1.6,0,3.1-0.1,4.7-0.1c2.1,0,4.1-0.1,6.2-0.1
			c1.6,0,3.3-0.1,4.9-0.1c2-0.1,4-0.1,6-0.2c1.7,0,3.4-0.1,5-0.2c2-0.1,3.9-0.1,5.9-0.2c1.7-0.1,3.4-0.1,5.1-0.2
			c1.9-0.1,3.8-0.1,5.8-0.2c1.7-0.1,3.5-0.1,5.2-0.2c1.9-0.1,3.8-0.2,5.7-0.3c1.7-0.1,3.5-0.2,5.2-0.2c1.9-0.1,3.8-0.2,5.7-0.3
			c1.8-0.1,3.5-0.2,5.3-0.3c1.9-0.1,3.7-0.2,5.6-0.3c1.8-0.1,3.5-0.2,5.3-0.3s3.7-0.2,5.5-0.3s3.6-0.2,5.3-0.3
			c1.8-0.1,3.7-0.2,5.5-0.4c1.8-0.1,3.6-0.2,5.4-0.4c1.8-0.1,3.7-0.3,5.5-0.4c1.8-0.1,3.6-0.3,5.4-0.4c1.8-0.1,3.6-0.3,5.4-0.4
			c1.8-0.1,3.6-0.3,5.4-0.4c1.8-0.2,3.6-0.3,5.4-0.5c1.8-0.2,3.6-0.3,5.4-0.5c1.8-0.2,3.6-0.3,5.4-0.5c1.8-0.2,3.6-0.3,5.4-0.5
			c1.8-0.2,3.6-0.4,5.4-0.5c1.8-0.2,3.6-0.3,5.4-0.5c1.8-0.2,3.6-0.4,5.5-0.6c1.8-0.2,3.6-0.4,5.3-0.6c1.9-0.2,3.7-0.4,5.6-0.6
			c1.7-0.2,3.5-0.4,5.2-0.6c3.5-0.4,7-0.8,10.5-1.2c1.7-0.2,3.3-0.4,5-0.6c1.9-0.2,3.9-0.5,5.8-0.7c1.7-0.2,3.5-0.4,5.2-0.7
			c1.9-0.2,3.7-0.5,5.6-0.7c1.7-0.2,3.5-0.5,5.2-0.7c1.8-0.2,3.7-0.5,5.5-0.7c1.7-0.2,3.5-0.5,5.2-0.7c1.8-0.3,3.7-0.5,5.5-0.8
			c1.7-0.2,3.5-0.5,5.2-0.8c1.8-0.3,3.6-0.5,5.5-0.8c1.7-0.3,3.5-0.5,5.2-0.8c1.8-0.3,3.6-0.6,5.5-0.8c1.7-0.3,3.5-0.5,5.2-0.8
			c1.8-0.3,3.7-0.6,5.5-0.9c1.7-0.3,3.4-0.6,5.2-0.8c1.8-0.3,3.7-0.6,5.5-0.9c1.7-0.3,3.4-0.6,5.1-0.9c1.9-0.3,3.7-0.6,5.6-1
			c1.7-0.3,3.4-0.6,5.1-0.9c1.9-0.3,3.7-0.7,5.6-1c1.7-0.3,3.3-0.6,5-0.9c0.8-0.1,1.6-0.3,2.5-0.5c-34.9-22.2-70.6-34-106.4-35.1
			c-145.9,9.5-301.1,9.5-461.3,0c-35.8,1.2-71.6,13-106.5,35.1c0.8,0.2,1.7,0.3,2.5,0.5C1552.3,2885.5,1554,2885.8,1555.6,2886.1z"
			/>
		<path d="M1761.6,1953.8H2012c52.8,0,87.8-11.5,107.2-35.3c18.8-23,21.3-55.6,21.4-84.5l-8.2-150c-0.5-9-5.7-38.3-53.2-38.3h-393.6
			c-47.5,0-52.7,29.3-53.2,38.3l-8.2,150.1c0,38.4,8.1,65.2,25.5,84.2C1671.5,1942.1,1708.1,1953.8,1761.6,1953.8z"/>
		<path d="M1537.8,1579.3l-11.2,262.9c0,47.9,17.1,88.2,49.3,116.6c37.8,33.2,94.9,50.1,169.8,50.1h271.5
			c75.1,0,132.5-16.9,170.7-50.1c32.8-28.5,50.1-68.8,50.2-116.5l-11.2-262.9c-2.7-50.8-58.3-54.8-75.4-54.8H1613
			C1596.2,1524.5,1540.5,1528.5,1537.8,1579.3z M1685.6,1631.5h393.6c39.9,0,65.7,19.8,67.3,51.7l8.2,150.4v0.2
			c0,31.4-2.9,67.2-24.6,93.7c-22.2,27.2-60.9,40.5-118.2,40.5h-250.4c-57.7,0-97.7-13.2-122.3-40.2c-19.9-21.9-29.2-51.7-29.2-94
			v-0.4l8.2-150.2C1620,1651.3,1645.8,1631.5,1685.6,1631.5z"/>
		<path d="M1917.5,965c-2.9,5.9-4.3,8.9-7.3,14.8c6-0.1,9-0.1,15-0.2C1922.1,973.7,1920.5,970.8,1917.5,965z"/>
		<path d="M2229.6,978.9c0.9,6.5,4.2,12.6,9.4,17.4c5.2,4.7,11.9,7.6,19,8.3l-0.8-25.7H2229.6z"/>
		<path d="M2256,947.5c-6.9,0.7-13.4,3.6-18.2,8.2c-4.9,4.7-7.8,10.8-8.4,17.2h27.4L2256,947.5z"/>
		<path d="M2281.4,955.7c-5.2-4.6-12-7.5-19-8.2l0.8,25.4h27.7C2289.9,966.5,2286.6,960.4,2281.4,955.7z"/>
		<path d="M2282.8,996.2c4.9-4.7,7.8-10.9,8.3-17.4h-27.6l0.8,25.7C2271.4,1003.9,2277.8,1001,2282.8,996.2z"/>
		<path d="M2262.4,1037.1L2262.4,1037.1c18.2,0,35.3-7.1,47.2-19.4c10.6-11.1,16.1-25.4,15.4-40.3c-1.4-32.5-31.4-58.9-67-58.9l0,0
			c-17.8,0-34.8,6.9-46.5,18.9c-10.5,10.8-16.1,24.8-15.8,39.6C2196.4,1010.1,2226.3,1037.1,2262.4,1037.1
			C2262.3,1037.1,2262.4,1037.1,2262.4,1037.1z M2258.4,1019.7c-0.1-3-0.2-6.1-0.3-9.2c-8.7-0.7-17.1-4.2-23.6-10.1
			c-6.4-5.8-10.5-13.5-11.4-21.6h-9.7c-1.8,0-3.3-1.3-3.3-3c0-0.7,0.3-1.4,0.8-2c0.6-0.6,1.4-0.9,2.4-0.9h9.7
			c0.5-8,4.1-15.7,10.2-21.4c6-5.7,14.1-9.2,22.7-9.9l-0.3-9c0-0.7,0.3-1.4,0.8-2c0.6-0.6,1.4-1,2.3-1c1.7,0,3.2,1.3,3.2,2.9l0.3,9
			c8.8,0.7,17.1,4.2,23.6,9.9c6.4,5.8,10.5,13.4,11.5,21.4h9.8c1.8,0,3.3,1.3,3.3,2.9c0,0.8-0.2,1.5-0.8,2.1s-1.4,1-2.3,1h-9.8
			c-0.4,8.1-3.9,15.7-10,21.6c-6.1,5.8-14.3,9.4-23,10.1l0.3,9.2c0,0.8-0.3,1.5-0.8,2.1c-0.6,0.6-1.4,0.9-2.3,0.9
			C2259.9,1022.7,2258.4,1021.4,2258.4,1019.7z"/>
		<g>
			<path d="M1516.2,918.3c-35.4,0-66.5,26.7-69.4,59.4c-1.4,15.1,3.5,29.6,13.6,40.6c11.2,12.2,27.3,19,45.5,19
				c36.3,0,67.6-27.2,69.9-60.7c1-14.8-4-28.9-14.1-39.6C1550.5,925.1,1533.9,918.3,1516.2,918.3z M1535.5,1000.1
				c-0.1,1.4-1.4,2.6-3,2.6c-6.5,0-12.8,0-19.2,0c0.5-5.8,0.9-11.5,1.4-17.3c-4.1,0-8.2,0-12.3,0c-0.5,5.8-0.9,11.5-1.4,17.3
				c-6.5,0-12.8,0-19.2,0c-2,0-2.9-1.9-2.7-3.7c0.6-6.9,1.1-13.8,1.7-20.7c0.1-1.1,6-4.8,7.3-5.7s2.4-1.8,3.8-2.7
				c2.4-1.6,17.4-12.8,18.9-13.5c1.3,0.8,2.1,1.5,3.3,2.5c5.5,4.5,11.1,9,16.8,13.5c1.2,1,2.2,1.8,3.3,2.7c1.3,1.2,3.1,2,3.1,2.9
				C1536.6,985.4,1536.1,992.8,1535.5,1000.1z M1546.7,976.7c-1.1,1.1-1.3,1.8-3,2.2c-1.5-0.7-2.9-2.1-4.1-3.1
				c-8.1-6.6-16.2-13.2-24.2-19.8c-1.5-1.2-2.6-2.2-4.2-3.3c-2.3,1.1-35.4,26.2-36.4,26.3c-1.3,0.2-4.7-3.9-4.6-5.2
				c0.1-0.9,4.7-3.9,5.6-4.6c0.9-0.7,2.1-1.5,3-2.2c1-0.8,2.1-1.6,3.2-2.1c0.3-3.6,0.8-17.6,2.3-19.9c2.8-0.6,7.1-0.3,10.1-0.3
				c2.4,0,2.1,1.8,1.9,4c-0.2,2-0.3,4-0.5,6c3.6-2.6,7.3-5.3,11-8c2.5-1.8,2.4-2,5.7-2c2.5,0,3.8,1.8,5.9,3.4
				c3.4,2.8,6.8,5.7,10.5,8.5c4.8,3.6,10.6,9,15.5,12.7c0.9,0.7,1.7,1.3,2.5,2c0.6,0.5,0.7,0.6,1.3,1.1
				C1549.9,973.9,1548.3,975,1546.7,976.7z"/>
			<g>
				<path d="M1908.2,383c-0.5,2.8-1.1,5.7-1.5,8.6c-0.4,3.3,0.8,5.1,3.9,6.2c1.4,0.5,4,0.7,5.2,0.7c4.3-0.1,7.9-1.6,10.6-5
					c2.2-2.8,3.3-6.1,3.7-9.6c0.5-4.5-1.7-7.7-6-8.7c-3.2-0.8-6.4-0.6-9.5,0.5C1911.1,377,1908.8,379.2,1908.2,383z"/>
				<path d="M1996.4,375.4c-2.9-0.8-5.8-0.7-8.6,0.1c-6.1,1.8-10,7.4-9.7,14c0.2,3.1,1.3,5.8,4,7.5c1.9,1.2,4,1.6,6.1,1.5
					c0.2,0,0.4,0,0.7,0c4.4-0.1,8-1.7,10.6-5.3c1.8-2.7,2.7-5.8,3-9.1C2002.9,379.9,2000.5,376.5,1996.4,375.4z"/>
				<path d="M2069.8,346c-0.1-0.6-0.6-0.9-1.2-0.9c-0.6,0-1.3,0-1.9,0c0.1,0.8,0.2,1.4,0.3,2.2c0.6,0,1.1,0,1.6,0c0.1,0,0.3,0,0.3,0
					C2069.5,347,2069.9,346.6,2069.8,346z"/>
				<path d="M1990.5,461.1c2.4,2.4,5.3,3.6,8.7,3.6c2.2,0,4.3-0.5,6.1-1.6c1.9-1.1,3.4-2.6,4.5-4.6s1.7-4.1,1.7-6.3
					s-0.6-4.3-1.7-6.3s-2.6-3.5-4.5-4.7s-3.9-1.7-6-1.7c-2.2,0-4.2,0.6-6.2,1.7s-3.5,2.6-4.5,4.5c-1.1,1.9-1.6,4-1.6,6.3
					C1986.9,455.7,1988.1,458.7,1990.5,461.1z"/>
				<path d="M1838.1,440.9c0.8-1.2,1.1-2.5,1.1-3.9s-0.4-2.7-1.1-3.8c-0.8-1.1-1.8-2-3-2.5s-3.3-0.7-6.2-0.7h-7.4v14.2l7.2,0.1
					c2.8,0,4.9-0.3,6.2-0.8C1836.3,442.9,1837.4,442.1,1838.1,440.9z"/>
				<path d="M1851.7,375.3c-2.4-0.8-4.8-0.8-7.2-0.4c-6,0.9-13.3,6.1-12.9,16c0.1,2.7,1.4,4.9,3.7,6.3c1.8,1.1,3.7,1.4,5.8,1.4
					c0.2,0,0.4,0,0.6,0c4.2-0.1,8-1.5,10.8-4.9c2.4-2.9,3.7-6.3,4.3-10C1857.4,379.6,1855.5,376.5,1851.7,375.3z"/>
				<path d="M1904.7,439.9c-3.3,0-6.2,1.2-8.5,3.7c-2.4,2.4-3.6,5.4-3.6,8.9c0,2.2,0.5,4.3,1.6,6.3s2.6,3.4,4.4,4.5s3.9,1.6,6.1,1.6
					s4.2-0.5,6.1-1.6c1.8-1.1,3.3-2.5,4.4-4.5s1.6-4,1.6-6.3c0-3.5-1.2-6.4-3.6-8.9S1908,439.9,1904.7,439.9z"/>
				<path d="M2073.3,347.5c-0.3-2.8-2.8-4.9-5.5-4.9c-2.6,0-4.6,2.3-4.2,4.9c0.3,2.7,2.8,5,5.5,5
					C2071.7,352.4,2073.7,350.2,2073.3,347.5z M2067,348c0.1,0.9,0.2,1.8,0.3,2.8c-0.3,0-0.6,0-1,0c-0.3-2.2-0.5-4.4-0.8-6.6
					c1.1,0,2.2,0,3.3,0c1,0.1,1.6,0.7,1.9,1.5c0.2,0.7-0.1,1.5-0.8,1.9l-0.1,0.1c0.5,1,1.1,1.9,1.7,3c-0.8,0.3-1.3,0-1.6-0.7
					c-0.1-0.3-0.3-0.5-0.4-0.8C2068.7,347.8,2068.7,347.9,2067,348z"/>
				<path d="M2027.1,458.6c1.1,2,2.6,3.5,4.5,4.7c1.9,1.1,3.9,1.7,6.1,1.7s4.2-0.6,6.2-1.7s3.5-2.6,4.5-4.5c1.1-1.9,1.6-4,1.6-6.3
					c0-3.6-1.2-6.6-3.5-9s-5.3-3.6-8.7-3.6c-2.2,0-4.3,0.5-6.1,1.6c-1.9,1.1-3.4,2.6-4.5,4.6s-1.7,4.1-1.7,6.3
					C2025.4,454.5,2025.9,456.6,2027.1,458.6z"/>
				<path d="M1866.5,439.9c-3.3,0-6.2,1.2-8.5,3.7s-3.6,5.4-3.6,8.9c0,2.2,0.5,4.3,1.6,6.3c1.1,1.9,2.6,3.4,4.4,4.5s3.9,1.6,6.1,1.6
					s4.2-0.5,6.1-1.6c1.8-1.1,3.3-2.5,4.4-4.5c1.1-1.9,1.6-4,1.6-6.3c0-3.5-1.2-6.4-3.6-8.9S1869.8,439.9,1866.5,439.9z"/>
				<g>
					<path d="M1202.2,714l-36.5,840.1c-3.6,84.7-2.8,183,32.9,261.7c12.7,28.1,29.5,53.2,49.8,76.3c51.7,58.9,104.2,110.3,174,147.5
						c94.2,50.2,202.4,65.1,307.9,65.1h308.3c105.5,0,213.7-14.9,307.9-65.1c69.8-37.2,122.3-88.7,174-147.5
						c20.3-23.1,37.1-48.2,49.8-76.3c35.6-78.7,36-179.5,32.4-264.2l-36.6-857.9l-7.1,0.7l-0.1-1.2H1210.5l-0.1,1.3l-7.1-0.9
						L1202.2,714z M2201.3,927.5c14.4-14.7,35.1-23.2,56.7-23.2l0,0c43,0,79.4,32.5,81.1,72.5c0.8,18.8-6.1,36.9-19.4,50.7
						c-14.5,15.1-35.4,23.8-57.4,23.8c0,0,0,0-0.1,0c-43.7,0-80-33.2-80.8-74.1C2181,958.7,2188.1,941,2201.3,927.5z M1700.6,976.7
						c2.3-45.7,23.3-88.3,59.3-119.8c35.4-31.1,81.5-48.2,129.8-48.2c48,0,93.1,17.2,127,48.4c34.7,31.9,53.9,74.5,54,120
						c0.1,46.5-19.4,90.5-55,124.1c-35.8,33.8-83.4,52.4-133.8,52.4c-50.8,0-97.7-18.6-132.1-52.4
						C1715.8,1067.7,1698.3,1023.5,1700.6,976.7z M2151.7,1510.3c41.5,0,86.9,17.9,89.5,68.3l11.2,263.3v0.2c0,52-19,96-55,127.3
						c-40.9,35.5-101.5,53.6-180,53.6h-271.5c-78.5,0-138.8-18-179.2-53.6c-35.4-31.2-54.1-75.2-54.1-127.3v-0.3l11.2-263.1
						c2.6-50.4,48-68.3,89.5-68.3L2151.7,1510.3L2151.7,1510.3z M1432.7,976.5c1.7-19.5,11.4-37.8,27.2-51.4
						c15.7-13.5,35.7-21,56.3-21c21.6,0,41.9,8.5,55.7,23.2c12.8,13.7,19.1,31.5,17.9,50.3l0,0c-2.8,40.7-40.5,73.9-84,73.9
						c-21.8,0-42.2-8.6-55.9-23.6C1437.1,1013.9,1431,995.6,1432.7,976.5z"/>
					<g>
						<path d="M3770.5,1648.6c0-111.1-12.9-222.2-38.4-330.1c-24.9-105.1-61.9-208.5-110.2-307.3c-47.4-96.9-106-190.4-174.2-277.8
							c-67.5-86.5-145.1-167.9-230.5-241.8c-85.3-73.9-179.2-140.9-279-199.3c-100.7-58.9-208.4-109.5-320-150.4
							c-113.7-41.6-232.6-73.6-353.5-95c-106.3-18.8-215.3-29.7-324.8-32.4C1922.4,5.1,1902.4,0,1881.7,0c-20.9,0-41,5.1-58.6,14.8
							c-106.9,3-213.3,13.8-317.2,32.2c-120.9,21.4-239.8,53.4-353.5,95c-111.6,40.9-219.3,91.5-320,150.4
							c-99.8,58.4-193.7,125.4-279,199.3C468,565.6,390.5,647,322.9,733.5c-68.2,87.4-126.8,180.9-174.2,277.8
							c-48.3,98.8-85.3,202.2-110.2,307.3C12.9,1426.4,0,1537.5,0,1648.6s12.9,222.2,38.4,330.1c5.1,21.4,10.6,42.8,16.7,64
							l-1.4,0.3c39.4,201.3,97.3,383.4,172.1,541.4c75.1,158.5,169.3,297.1,280,412l0.5,0.5c86,83.7,181.7,159.8,284.2,226.2
							c103.4,67,214.5,124.6,330.3,171.2c117.9,47.5,241.7,84,367.8,108.5c129.5,25.1,262.9,37.9,396.5,37.9s267-12.7,396.5-37.9
							c126.1-24.5,249.9-61,367.8-108.5c115.8-46.6,226.9-104.2,330.3-171.2c102.5-66.4,198.2-142.5,284.2-226.2l0.5-0.5
							c110.7-114.9,204.9-253.5,280-412c74.8-158,132.7-340.1,172.1-541.4l-1.4-0.3c6.1-21.3,11.7-42.6,16.7-64
							C3757.6,1870.8,3770.5,1759.7,3770.5,1648.6z M3583.7,1029.9c46.9,96,82.9,196.4,107,298.4c20.9,88.6,33.2,179.4,36.4,270.6
							l-30.3-38.3c-1.9-97.1-14.2-193.9-36.6-288.1c-23.8-100.5-59.4-199.3-105.8-293.7c-10.2-20.8-20.9-41.4-32.2-61.8
							C3544.5,954,3565,991.7,3583.7,1029.9z M2257.2,3208.4c-121.6,21.5-246.7,32.5-372,32.5c-125.2,0-250.4-10.9-372-32.5
							c-56.2-10-111.9-22.2-166.9-36.7c2.4-22.3,12.7-49.5,31.2-82.6c47.1,11.8,94.8,22,142.8,30.5c119.3,21,242,31.7,364.9,31.7
							c122.8,0,245.6-10.7,364.9-31.7c48-8.5,95.7-18.7,142.8-30.5c18.5,33.1,28.8,60.4,31.2,82.6
							C2369.1,3186.2,2313.4,3198.4,2257.2,3208.4z M2407,3225.3c-11.2,11-27.9,19.8-50.5,26.6c-116.2,32.8-274.8,51.2-471.2,54.8
							c-196.5-3.6-355-22-471.2-54.8c-22.6-6.7-39.3-15.5-50.5-26.6c168.9,42.1,343.9,63.4,521.7,63.4
							C2063.1,3288.8,2238.1,3267.4,2407,3225.3z M234,1868.7c22.2,91.8,55.2,182.1,98.3,268.4c42.3,84.7,94.6,166.4,155.5,242.8
							c60.3,75.7,129.6,146.8,205.9,211.5s160.2,123.4,249.5,174.5c90.1,51.6,186.4,95.9,286.3,131.7
							c69.2,24.8,139.8,45.5,211.5,62.1c-13,15.7-25.9,32.9-38.6,51.4c-13.5,19.1-25.1,36.8-35,53.4c-61-15.8-121-34.5-179.5-55.8
							c-106.1-38.7-208.5-86.6-304.3-142.4c-94.8-55.2-184-118.6-265-188.5c-81-69.8-154.5-146.6-218.5-228.3
							c-64.6-82.4-120.1-170.5-164.9-261.9c-45.6-93-80.7-190.3-104.2-289.2c-20.8-87.6-32.7-177.4-35.6-267.6l104.4-59.6
							c0,3.1,0,6.2,0,9.4C199.7,1677.5,211.2,1774.5,234,1868.7z M1198.6,357.3l-12.4,301.4c-0.4,9.5,6.6,18.1,16.2,20.4h1365.7
							c9.5-2.3,16.6-10.9,16.2-20.4l-11.1-295c2.4,1,4.8,2,7.2,3l-0.2-6.1c66.9,27.6,131.7,59.3,193.4,94.6
							c84.1,48.2,163.1,103.4,235,164.3c71.8,60.9,137,127.9,193.8,199.1c57.3,71.9,106.5,148.7,146.3,228.4
							c40.5,81.1,71.6,166,92.4,252.3c21.4,88.5,32.2,179.6,32.2,270.8s-10.8,182.3-32.2,270.8c-20.8,86.3-51.9,171.2-92.4,252.3
							c-39.8,79.7-89,156.5-146.3,228.4c-56.8,71.2-122,138.2-193.8,199.1c-71.8,60.9-150.9,116.2-235,164.3
							c-84.9,48.6-175.7,90.4-269.8,124.1c-83.5,29.9-169.2,53.5-256.7,70.8c-0.3-0.2-0.6-0.4-0.9-0.6
							c-42.2-30.2-85.9-46.2-130.1-47.6h-0.5h-0.5c-145.4,9.5-300.1,9.5-459.7,0h-0.5h-0.5c-44.2,1.4-87.9,17.4-130.1,47.6
							c-0.3,0.2-0.6,0.4-0.9,0.6c-87.5-17.3-173.2-40.9-256.7-70.8c-94.1-33.7-184.9-75.5-269.8-124.1
							c-84.1-48.2-163.1-103.4-235-164.3c-71.8-60.9-137-127.9-193.8-199.1c-57.3-71.9-106.5-148.7-146.3-228.4
							c-40.5-81.1-71.6-166-92.4-252.3c-21.4-88.5-32.2-179.6-32.2-270.8s10.8-182.3,32.2-270.8c20.8-86.3,51.9-171.2,92.4-252.3
							c39.8-79.7,89-156.5,146.3-228.4c56.8-71.2,122-138.2,193.8-199.1c71.8-60.9,150.9-116.2,235-164.3
							c62-35.5,127.1-67.3,194.4-95.1v0.1C1193.8,359.3,1196.2,358.3,1198.6,357.3z M1234.5,534.9c3.7,3.9,9.9,6.3,16.3,6.3h1269
							c6.4,0,12.5-2.3,16.3-6.3c1.5-1.6,3.4-4.3,3.2-7.6l-8.5-180.7c4.8,1.9,9.6,3.7,14.5,5.6l8.2,174.4c0.3,6.5-2.2,12.9-7.1,18.1
							c-6.4,6.7-16.3,10.7-26.5,10.7h-1269c-10.3,0-20.2-4-26.6-10.7c-4.9-5.1-7.4-11.5-7-18l9.3-180.3c4.8-1.9,9.6-3.7,14.5-5.5
							l-9.6,186.5C1231.1,530.7,1232.9,533.3,1234.5,534.9z M1755.6,369.8c6.7,0,13.4,0,20.1,0c3.5,0,6.7-1,9.7-2.9
							c1.9-1.2,3.2-2.8,3.3-5.1c0-1-0.3-1.7-1-2.3c-1.5-1.2-3.2-1.6-5-1.8c-1-0.1-2-0.2-3.1-0.2c-14.3,0-28.8-0.1-43.2-0.1
							c-0.3,0-0.7,0-1.1,0c0.5-1.8,1-3.6,1.5-5.4c1.1-3.7,2.2-7.4,3.3-11.1c0.1-0.2,0-0.4,0-0.5c18.3,0,36.6,0.1,54.9,0.1
							c1.1,0.2,2.2,0.4,3.3,0.6c4,0.8,7.7,2.2,10.6,5c3.1,2.9,4.7,6.5,5.1,10.6c0.4,4.2-0.2,8.1-1.7,11.7s-3.8,6.9-7,9.9
							c-2.2,2.1-5,3.8-7.6,5.7c2.4,4.6,4.9,9.5,7.4,14.3c2.5,4.9,5.1,9.8,7.7,14.9c-0.4,0-0.6,0-0.8,0c-8.4,0-16.8,0-25.2,0
							c-0.5,0-0.8-0.1-1.1-0.6c-2-4.2-4.1-8.4-6.1-12.6c-2-4.1-4-8.3-6-12.4c-0.3-0.6-0.6-0.8-1.2-0.8c-7,0-14.1,0-21.2,0
							c-0.4,0-0.8,0-1.2,0c-1.3,4.4-2.5,8.7-3.7,13.1s-2.4,8.8-3.7,13.3c-7.9,0-15.9,0-23.9,0c0.7-2.5,1.5-5,2.2-7.5
							c1.4-4.8,2.8-9.6,4.2-14.4c1.4-4.7,2.8-9.5,4.2-14.2c1.4-4.6,2.7-9.3,4-13.8c0.1-0.4,0.2-0.5,0.7-0.5c7.5,0,14.9,0,22.4,0.1
							c0.1,0,0.2,0,0.3,0.1c-0.7,2.3-1.4,4.6-2.1,6.9C1755.2,369.8,1755.4,369.8,1755.6,369.8z M1759.8,184.1l0.6-0.5
							c0.3-0.4,0.8-0.8,1.4-1l4.6-3.3c5.3-3.8,5.4-3.9,10.3-6.9c1.2-0.7,2.6-1.6,4.5-2.7l3.2-1.9l1.8,3.3
							c13,23.9,38.7,42.1,68.9,48.6c9,1.9,18.3,2.8,27.6,2.7h0.1h0.1c9.3,0.1,18.6-0.8,27.6-2.7c30.1-6.5,55.9-24.6,68.9-48.6
							l1.8-3.3l3.2,1.9c1.9,1.1,3.3,2,4.5,2.7c4.9,3,5,3,10.3,6.9l4.6,3.3c0.6,0.3,1.1,0.6,1.4,1l0.6,0.4l-0.2,0.3
							c0.6,1.2,0.3,2.7,0.2,3.7c-0.1,0.6-0.2,1.3-0.3,2.1c-2,18.7-5,30.3-7.8,41.6c-1,4-2,7.7-2.9,11.7l-0.3,1.2l-0.9,0.8
							c-34.7,28.9-67.2,41.2-108.9,41.2c-0.7,0-1.3,0-2,0c-0.6,0-1.2,0-1.9,0c-41.6,0-74.2-12.3-108.9-41.2l-0.9-0.8l-0.3-1.2
							c-0.9-4-1.8-7.7-2.9-11.7c-2.9-11.3-5.8-22.9-7.8-41.6c-0.1-0.8-0.2-1.5-0.3-2.1c-0.1-1-0.4-2.4,0.2-3.7L1759.8,184.1z
							 M2065.3,359.4c-0.4,5.4-0.9,10.8-1.4,16.2c-4.7,0-9.3,0-13.9,0c-0.2,1.4-0.3,2.8-0.4,4.2c-0.5,4.9-0.9,9.8-1.4,14.7
							c-0.1,1.1,0.2,1.8,1.3,2.2c1.1,0.4,2.2,0.6,3.4,0.6c2.6,0.1,5.1,0,7.7,0c0.2,0,0.5,0,0.9,0c-0.5,5.4-1,10.8-1.4,16.3
							c-0.2,0-0.3,0-0.4,0c-5.7,0-11.5,0-17.2,0c-5.1-0.1-9.2-2.2-12.6-6.5c-2.1-2.7-2.8-5.7-2.6-8.8c0.3-4.4,0.7-8.8,1.1-13.2
							c0.4-4.1,0.9-8.1,1.3-12.1s0.9-8,1.4-12c0.3-3.2,0.7-6.4,1-9.5c0.3-3.2,0.6-6.3,1-9.4c0-0.1,0.1-0.2,0-0.3
							c6.7,0,13.4,0,20.1,0.1c-0.5,5.8-1.1,11.6-1.7,17.5C2056.1,359.4,2060.7,359.4,2065.3,359.4z M2062.7,347.3
							c-0.2-3,1.6-5.2,4.4-5.5c2.8-0.3,5.6,1.6,6.7,4.5c0,0.1,0.1,0.2,0.1,0.2c0.1,0.7,0.2,1.4,0.3,2.1c-0.3,1.5-0.8,2.8-2.1,3.7
							c-1.8,1.3-3.8,1.4-5.9,0.3C2064.2,351.4,2062.9,349.7,2062.7,347.3z M2037.3,436c2.5,0,4.8,0.5,6.9,1.6s3.9,2.7,5.4,4.9v-5.7
							h3.9v31h-3.9v-5.3c-1.7,2-3.5,3.6-5.6,4.6s-4.4,1.5-6.8,1.5c-4.4,0-8.1-1.6-11.2-4.8c-3.1-3.2-4.7-7-4.7-11.6
							c0-4.5,1.6-8.3,4.7-11.4C2029.2,437.6,2032.9,436,2037.3,436z M2022.2,397.3c-2.5,5.8-6.8,9.9-12.2,12.9
							c-5.3,3-11.3,4.4-17.5,4.9c-0.4,0-0.8,0.1-1.2,0.1c-2.2,0-4.4,0-6.7,0c-1.4-0.1-2.8-0.3-4.3-0.5c-4.9-0.6-9.6-1.9-14-4.5
							c-6.3-3.9-10-9.5-10.7-16.8c-0.7-6.6,0.3-12.9,3.6-18.4c2.6-4.4,6.2-7.6,10.5-10.2c6.1-3.6,12.6-5.6,19.7-6.1
							c5.6-0.4,11.2-0.1,16.8,1.5c4.1,1.1,7.9,3,11.2,5.8c4.2,3.6,6.7,8.1,7.2,13.5C2025.2,385.7,2024.6,391.7,2022.2,397.3z
							 M1992.8,437.5c2.1-1,4.3-1.5,6.8-1.5c4.4,0,8.1,1.6,11.2,4.8c3.1,3.2,4.7,7,4.7,11.6c0,4.5-1.6,8.3-4.7,11.5
							s-6.9,4.8-11.3,4.8c-2.5,0-4.8-0.5-6.9-1.6c-2-1.1-3.9-2.7-5.4-4.9v5.7h-4V425h4v17.3C1988.9,440.1,1990.7,438.5,1992.8,437.5
							z M1969.8,444c-0.5-1.2-1.3-2.2-2.4-3s-2.5-1.1-4.1-1.1c-1.9,0-3.7,0.6-5.3,1.7c-1.6,1.1-2.8,2.7-3.5,4.6s-1.1,5.1-1.1,9.5
							v12.1h-4v-15.9c0-3.7-0.2-6.3-0.7-7.6c-0.5-1.3-1.3-2.4-2.4-3.2s-2.5-1.2-4.1-1.2c-1.8,0-3.6,0.6-5.2,1.7s-2.8,2.6-3.6,4.5
							c-0.8,1.9-1.2,4.8-1.2,8.6v13.1h-4v-31h4v5.4c1.4-2,2.8-3.4,4.3-4.3c2-1.2,4.1-1.8,6.4-1.8c1.5,0,2.9,0.3,4.3,0.9
							c1.3,0.6,2.5,1.4,3.3,2.3c0.9,1,1.6,2.4,2.2,4.2c1.3-2.4,3-4.3,5-5.5c2-1.3,4.1-1.9,6.4-1.9c2.1,0,4,0.5,5.7,1.6
							s2.9,2.6,3.7,4.5s1.2,4.8,1.2,8.7v16.9h-4.1v-16.9C1970.5,447.5,1970.2,445.2,1969.8,444z M1917.8,415.3c-2.5,0-4.9,0-7.3,0
							c-1.3-0.1-2.7-0.3-4-0.5c-5.4-0.7-10.5-2.1-15.1-5.3c-6-4.2-8.7-10.1-8.1-17.5c0.3-3.5,0.8-7,1.5-10.4
							c0.6-3.4,1.3-6.8,2.1-10.2c1.1-5.1,2.1-10.2,3.2-15.2s2.1-10,3.1-14.9c0-0.1,0-0.2,0-0.3c7.3,0,14.5,0,21.6,0
							c-0.7,3.5-1.5,7-2.2,10.5c-0.6,2.5-1.1,5-1.6,7.6c0,0.1-0.1,0.3-0.1,0.5c1.6-0.3,3.2-0.5,4.8-0.7c8-0.8,15.9-0.4,23.5,2.9
							c3.1,1.4,6,3.2,8.2,5.8c2.3,2.8,3.6,6.1,4.2,9.6c1,6,0.6,11.8-1.4,17.5c-2.4,6.5-6.8,11.3-12.6,14.8c-5,2.9-10.4,4.6-16.1,5.3
							C1920.4,415,1919.1,415.1,1917.8,415.3z M1920.9,452.4c0,4.3-1.5,8.1-4.5,11.3c-3,3.2-6.9,4.9-11.6,4.9
							c-4.8,0-8.6-1.6-11.7-4.9c-3-3.2-4.5-7-4.5-11.3s1.4-8,4.3-11.2c3.1-3.5,7.1-5.2,11.9-5.2s8.7,1.7,11.9,5.2
							C1919.4,444.3,1920.9,448,1920.9,452.4z M1844.2,467.8h-5.2l-15.1-19.5h-2.4v19.5h-4.2v-41.9h8.3c4.7,0,7.8,0.2,9.5,0.6
							c2.5,0.6,4.5,1.8,6.1,3.7c1.6,1.9,2.3,4.2,2.3,6.9c0,2.3-0.5,4.3-1.6,6s-2.6,3-4.6,3.9s-4.7,1.3-8.3,1.4L1844.2,467.8z
							 M1837.7,415.2c-1.9-0.2-3.8-0.4-5.6-0.6c-5.1-0.8-10-2.3-14.2-5.4c-5.1-3.9-7.7-9.1-7.9-15.7c-0.2-5.3,0.8-10.4,3.2-15.2
							c2.5-5.2,6.3-9.2,11.1-12.3c6.2-4,12.9-6.4,20.1-7.3c6.7-0.8,13.3-0.6,19.8,1.2c4.9,1.4,9.4,3.8,12.7,7.8
							c2.7,3.2,4.1,6.9,4.2,11.1c0.1,3.4-0.2,6.8-1,10.1c-0.7,3.3-2,6.5-3.7,9.5c-2.9,5.1-7.2,8.7-12.2,11.5c-5.3,2.9-11,4.5-17,5.1
							c-0.9,0.1-1.7,0.2-2.6,0.3C1842.2,415.2,1839.9,415.2,1837.7,415.2z M1854.6,441.2c3.1-3.5,7.1-5.2,11.9-5.2s8.7,1.7,11.9,5.2
							c2.9,3.2,4.3,6.9,4.3,11.2c0,4.3-1.5,8.1-4.5,11.3c-3,3.2-6.9,4.9-11.6,4.9c-4.8,0-8.6-1.6-11.7-4.9c-3-3.2-4.5-7-4.5-11.3
							C1850.4,448.1,1851.8,444.3,1854.6,441.2z M1729,346.2c-1.1,3.7-2.2,7.4-3.3,11.2c-7.5,0-15,0-22.5-0.1
							c1.7-5.7,3.5-11.4,5.3-17c7.4,0,14.8,0,22.2,0.1C1730.1,342.3,1729.6,344.3,1729,346.2z M1724,362.7c0.1,0,0.1,0,0.2,0.1
							c-0.4,1.3-0.7,2.6-1.1,3.8c-1.7,5.9-3.5,11.8-5.3,17.7c-1.8,6-3.6,12-5.4,18.1c-1,3.3-2,6.7-3,10c-0.2,0.7-0.4,0.8-1,0.8
							c-5.2,0-10.4,0-15.6,0c-2.4,0-4.7,0-7.1,0c0-0.1,0-0.3,0-0.4c0.6-2,1.3-3.9,1.9-5.9c1.1-3.5,2.2-7,3.3-10.5
							c1.1-3.4,2.1-6.9,3.3-10.3c1.2-3.9,2.3-7.7,3.5-11.5s2.4-7.6,3.6-11.3c0.1-0.4,0.2-0.6,0.6-0.6
							C1709.5,362.7,1716.8,362.7,1724,362.7z M2350.7,3023.1l0.1,0.1c11.7,16.6,22,32.1,30.9,46.7c-44.7,11.1-89.8,20.7-135.2,28.7
							c-118.1,20.8-239.6,31.4-361.2,31.4s-243.1-10.6-361.2-31.4c-45.4-8-90.6-17.6-135.3-28.7c8.9-14.5,19.2-30,30.9-46.7l0.1-0.1
							c13.8-20.2,27.8-38.6,41.9-55.2c-2.7-0.6-5.4-1.2-8.2-1.8l-11.5-2.6l7.6-8.9c20.7-24.4,42-45.2,63.3-62.1l-0.5-0.1l13.3-9.6
							l2.5-1.8l0,0c41-28.9,83.4-44.2,126.2-45.6h0.3h0.3c159.8,9.5,314.6,9.5,460.2,0h0.3h0.3c42.8,1.3,85.2,16.7,126.2,45.6l0,0
							l2.5,1.8l13.3,9.6l-0.5,0.1c21.3,16.9,42.6,37.8,63.3,62.1l7.6,8.9l-11.5,2.6c-2.7,0.6-5.4,1.2-8.2,1.8
							C2322.9,2984.6,2336.9,3003,2350.7,3023.1z M2368.2,3011c-12.7-18.5-25.6-35.7-38.6-51.4c71.8-16.6,142.4-37.3,211.6-62.1
							c99.9-35.8,196.2-80.1,286.3-131.7c89.3-51.1,173.2-109.8,249.5-174.5s145.6-135.8,205.9-211.5
							c60.9-76.4,113.2-158.1,155.5-242.8c43.1-86.3,76.1-176.6,98.3-268.4c22.7-94.2,34.3-191.2,34.3-288.2c0-3,0-6.1,0-9.1
							l104.4,59.6c-2.9,90.1-14.8,179.8-35.6,267.3c-23.5,98.9-58.5,196.2-104.2,289.2c-44.8,91.3-100.3,179.5-164.9,261.9
							c-64,81.7-137.5,158.5-218.5,228.3s-170.2,133.2-265,188.5c-95.8,55.8-198.1,103.7-304.3,142.4
							c-58.5,21.3-118.5,40-179.5,55.8C2393.3,3047.9,2381.7,3030.1,2368.2,3011z M2257.2,88.8c118.5,21,235,52.3,346.3,93
							c109.3,40,214.6,89.5,313.2,147.2c24.8,14.5,49.3,29.6,73.3,45.2c56.8,38.4,111,79.8,162,123.7
							c81,69.8,154.5,146.6,218.5,228.3c64.6,82.4,120.1,170.5,164.9,261.9c45.6,93,80.7,190.3,104.2,289.2
							c20.6,86.7,32.5,175.7,35.5,264.9l-108.4-61.9c-5.2-63.4-15.3-126.3-30.2-188.1c-22.2-91.8-55.2-182.1-98.3-268.4
							c-42.3-84.7-94.6-166.4-155.5-242.8c-60.3-75.7-129.6-146.8-205.9-211.5c-76.3-64.7-160.2-123.4-249.5-174.5
							c-90.1-51.6-186.4-95.9-286.3-131.7c-178.4-64-366.4-100.8-560-110c10.2-16.5,15.2-35.2,14.3-54.6c-0.7-14.2-4.5-27.8-11-40.2
							C2076.3,62.9,2167.7,73,2257.2,88.8z M1782.4,99.5c1-23.2,11.9-44.8,30.7-60.8c18.6-15.8,42.9-24.6,68.6-24.6
							c25.6,0,50,8.7,68.6,24.6c18.9,16,29.8,37.6,30.9,60.8c1.1,24-8.4,46.8-26.7,64.4c-19,18.2-44.7,28.2-72.5,28.2
							c-27.9,0-53.7-10-72.7-28.1C1790.9,146.4,1781.4,123.6,1782.4,99.5z M400,726.3c64-81.7,137.5-158.5,218.5-228.3
							c51-43.9,105.2-85.3,162-123.7c24-15.6,48.5-30.7,73.3-45.2c98.6-57.6,203.9-107.1,313.2-147.2
							c111.3-40.8,227.8-72.1,346.3-93c87.2-15.4,176.1-25.4,265.7-29.8c-6.4,12.3-10.1,25.9-10.7,39.9
							c-0.9,19.5,4.2,38.4,14.5,54.9c-191.3,9.7-377,46.4-553.5,109.6c-99.9,35.8-196.2,80.1-286.3,131.7
							C853.8,446.3,769.9,505,693.6,569.6C617.3,634.3,548,705.4,487.7,781.1c-60.9,76.4-113.2,158.1-155.5,242.8
							c-43.1,86.3-76.1,176.6-98.3,268.4c-14.9,61.7-25,124.5-30.2,187.8L95.4,1542c3-89.2,14.9-178,35.5-264.7
							c23.5-98.9,58.5-196.2,104.2-289.2C279.9,896.8,335.4,808.7,400,726.3z M79.8,1328.3c24.1-102.1,60.1-202.5,107-298.4
							C205.5,991.7,226,954,248.2,917c-11.3,20.4-22,41-32.2,61.8c-46.3,94.4-81.9,193.2-105.8,293.7
							c-22.3,94.1-34.6,190.7-36.6,287.5l-30.2,38.3C46.7,1507.3,58.9,1416.7,79.8,1328.3z M43.3,1694l31.6-42
							c4,84.7,15.8,168.9,35.4,251.2c23.8,100.5,59.4,199.3,105.8,293.7c45.5,92.7,101.7,182,167.3,265.6
							c64.9,82.8,139.3,160.6,221.4,231.3c82,70.7,172.2,134.9,268.2,190.7c96.8,56.4,200.4,104.8,307.7,144
							c57.4,20.9,116.2,39.3,175.9,55c-17.4,32-27.5,59.2-30.7,82.5c-53.8-14.8-106.8-31.7-158.6-50.7
							c-109.3-40-214.6-89.5-313.2-147.2c-97.6-57.1-189.3-122.6-272.7-194.7c-83.3-72.1-158.9-151.4-224.8-235.8
							c-66.4-85.1-123.4-176-169.5-270.3c-46.9-96-82.9-196.4-107-298.4C58.5,1878.9,46.3,1786.7,43.3,1694z M3506.2,2566.2
							c-73,154.2-164.5,288.9-271.9,400.5c-84,81.6-177.3,155.9-277.4,220.7c-101.1,65.5-209.8,121.8-323.1,167.5
							c-115.4,46.5-236.5,82.2-360,106.2c-126.8,24.6-257.5,37.1-388.4,37.1s-261.6-12.5-388.4-37.1c-123.5-24-244.6-59.7-360-106.2
							c-113.3-45.6-222-102-323.1-167.5c-100.1-64.9-193.5-139.1-277.4-220.7c-107.4-111.5-198.9-246.3-271.9-400.5
							c-32.7-69.1-62.1-142.9-88.1-221.1c36.4,67.5,78.2,133,125.2,196c112.1,150.2,250.9,282.7,412.7,394
							c163.1,112.3,344.9,199.7,540.4,259.8c25.7,7.9,51.5,15.3,77.6,22.2c11.6,25.3,36.5,43.3,76,55h0.1
							c118,33.3,278.5,52,476.9,55.6h0.2h0.2c198.4-3.6,358.9-22.3,476.9-55.6h0.1c39.4-11.7,64.4-29.8,76-55
							c26-6.9,51.9-14.3,77.6-22.2c195.4-60.1,377.2-147.6,540.4-259.8c161.8-111.3,300.6-243.9,412.7-394
							c47.1-63.1,88.9-128.5,125.2-196C3568.3,2423.3,3538.9,2497.2,3506.2,2566.2z M3690.7,1968.9
							c-24.1,102.1-60.1,202.5-107,298.4c-46.1,94.3-103.1,185.2-169.5,270.3c-65.8,84.4-141.5,163.7-224.8,235.8
							c-83.4,72.2-175.1,137.7-272.7,194.7c-98.6,57.6-203.9,107.1-313.2,147.2c-51.9,19-104.9,35.9-158.7,50.7
							c-3.1-23.4-13.2-50.5-30.7-82.5c59.7-15.7,118.5-34.1,175.9-55c107.3-39.1,210.8-87.6,307.7-144
							c95.9-55.9,186.2-120,268.2-190.7s156.5-148.5,221.4-231.3c65.5-83.6,121.8-173,167.3-265.6c46.3-94.4,81.9-193.2,105.8-293.7
							c19.5-82.1,31.3-166.1,35.3-250.6l31.6,42C3724.2,1787.1,3711.9,1879.1,3690.7,1968.9z"/>
						<path d="M1804.1,221.6c22.3,14.1,48.9,21.5,76.8,21.5c0.6,0,1.3,0,1.9,0c0.7,0,1.4,0,2,0c27.9,0,54.5-7.4,76.8-21.5
							c14.7-9.3,24.4-22.2,34.3-35.9l-0.9-0.7c-5.1-3.7-5.1-3.7-9.8-6.5c-0.4-0.3-0.9-0.5-1.4-0.9c-14.6,24.4-40.5,42.2-71.8,48.9
							c-9.5,2-19.3,3-29.1,2.8c-9.8,0.1-19.7-0.8-29.1-2.8c-31.2-6.7-57.2-24.4-71.8-48.9c-0.5,0.3-1,0.6-1.4,0.9
							c-4.7,2.8-4.7,2.8-9.8,6.5l-0.9,0.7C1779.7,199.5,1789.4,212.4,1804.1,221.6z"/>
						<path d="M1777.4,240.7c32.9,27.2,63.9,38.8,103.4,38.8c0.6,0,1.3,0,1.9,0c0.7,0,1.4,0,2,0c39.5,0,70.5-11.6,103.4-38.8
							c0.8-3.6,1.7-7.1,2.6-10.7c2.3-9.1,4.7-18.4,6.5-31.5c-9,12.5-12.6,16.9-32,29.1l0,0c-14.7,9.2-31,15.8-48.4,19.3
							c-10.4,2.2-21.2,3.3-32.2,3.3c-0.7,0-1.3,0-2,0c-0.6,0-1.2,0-1.9,0c-3.7,0-7.3-0.1-10.9-0.4c-3.6-0.2-7.2-0.6-10.7-1.1
							c-5.3-0.7-10.6-1.7-15.7-3c-15.4-3.8-30-9.9-43.2-18.2l0,0c-19.4-12.2-23-16.6-32-29.1c1.9,13.1,4.2,22.4,6.5,31.5
							C1775.7,233.6,1776.6,237.1,1777.4,240.7z"/>
					</g>
				</g>
			</g>
		</g>
		<path d="M2007.2,867.5c-31.4-28.8-73.1-44.7-117.5-44.7c-44.8,0-87.6,15.9-120.4,44.7c-33,29-52.4,68-54.4,109.9
			c-2.1,42.6,13.9,83,45,113.6c31.8,31.2,75.1,48.4,122.2,48.4c46.9,0,90.9-17.3,124.1-48.6c32.7-30.8,50.7-71.2,50.5-113.7
			C2056.6,935.6,2039,896.7,2007.2,867.5z M1886.8,870.5c0-1.2,1.1-2.1,2.5-2.1c1.1,0,2.2,0.9,2.1,2.1c-0.1,5.6-0.3,11.1-0.4,16.7
			c0,1.2-1.1,2.1-2.2,2.1c-1.4,0-2.4-0.9-2.4-2.1C1886.6,881.6,1886.7,876.1,1886.8,870.5z M1872.8,882.8c1.8-2.6,4.4-4.8,7.5-6.3
			c1.2-0.5,2.5-0.1,3,0.9c0.6,1,0.1,2.2-1,2.8c-2.3,1.1-4.3,2.7-5.7,4.8c-1.4,1.9-2.1,4.2-2.2,6.7c-0.1,3.6,1.4,6.8,3.9,9.2
			c2.5,2.3,6,3.8,10,3.8c3.8,0,7.3-1.5,10-3.8c2.6-2.3,4.3-5.6,4.3-9.2c0.1-2.5-0.7-4.9-2-6.9c-1.4-2.1-3.4-3.7-5.9-4.8
			c-1.1-0.5-1.5-1.7-1-2.7c0.6-1.1,1.9-1.5,3-1c3.2,1.4,5.9,3.6,7.8,6.3c1.7,2.6,2.6,5.8,2.5,9.1c-0.1,4.8-2.1,9-5.6,12.2
			c-3.4,3.1-8.2,5-13.2,5c-5.3,0-10-1.9-13.3-5c-3.4-3.1-5.4-7.4-5.2-12.2C1870,888.4,1871.1,885.3,1872.8,882.8z M1798,988.6
			c3.5,3.6,8.1,5.3,13.7,5.3c6.2,0,11.4-2.2,15.6-6.7c1.4,1,2,1.5,3.4,2.5c-2.3,2.6-5,4.6-8.4,6c-3.3,1.4-7,2.2-11.1,2.2
			c-7.7,0-13.7-2.5-18-7.6c-3.6-4.3-5.2-9.5-5-15.6c0.3-6.4,2.7-11.7,7.3-15.7c4.6-4,10.2-5.8,16.9-5.4c4,0.2,7.7,1.2,10.9,2.9
			c3.2,1.7,5.8,3.9,7.9,6.8c-1.4,1-2.1,1.4-3.5,2.4c-1.8-2.4-4.1-4.3-6.7-5.6c-2.6-1.3-5.5-2.1-8.7-2.3c-3.5-0.2-6.7,0.4-9.7,1.9
			s-5.4,3.6-7.1,6.3c-1.7,2.7-2.7,5.8-2.8,9.3C1792.8,980.6,1794.4,985.1,1798,988.6z M1839.4,997c0.3-13.6,0.5-27.3,0.8-40.9
			c1.7,0.1,2.6,0.1,4.3,0.1c-0.2,12.3-0.4,24.6-0.7,36.9c6.8,0,10.2,0,16.9,0.1c0.1,1.4,0.1,2.2,0.1,3.8
			C1852.3,997,1848,997,1839.4,997z M1892.9,960.7c-8.2,0.1-12.3,0-20.5,0c0,5,0,7.6-0.1,12.6c8.2,0,12.3,0,20.5,0
			c0,1.6,0,2.4,0,3.9c-8.2,0-12.3,0-20.5,0c0,6.3-0.1,9.5-0.1,15.8c8.3,0,12.4,0,20.6,0c0,1.6,0,2.4,0,3.9c-9.9,0.1-15,0.1-25,0.1
			c0.1-13.4,0.2-26.9,0.3-40.3c9.9,0.1,14.9,0.1,24.8,0.1C1892.9,958.4,1892.9,959.2,1892.9,960.7z M1934.5,997
			c-2.9-5.4-4.3-8.1-7.2-13.4c-7.6,0.1-11.3,0.1-18.9,0.2c-2.7,5.3-4,8-6.7,13.3c-2,0-2.9,0-4.9,0c6.9-13.6,13.6-27.1,20.2-40.7
			c0.4,0,0.6,0,1.1,0c7,13.5,14.1,27.1,21.2,40.6C1937.4,997,1936.4,997,1934.5,997z M1979.9,996.9c-9.9-10.6-19.9-21.2-30-31.6
			c0.3,10.6,0.6,21.1,0.9,31.7c-1.8,0-2.7,0-4.6,0c-0.4-13.9-0.7-27.7-1.1-41.6c0.3-0.1,0.5-0.1,0.9-0.1
			c10.1,10.4,20.1,20.9,30.1,31.5c-0.4-11.1-0.9-22.1-1.3-33.2c1.7-0.1,2.6-0.2,4.3-0.3c0.6,14.5,1.2,29.1,1.8,43.6
			C1980.5,996.9,1980.3,996.9,1979.9,996.9z"/>
	</g>
</g>
<g id="Layer_3" class="st1">
	<g class="st2">
		<path class="st3" d="M1745.8,2023c-78.5,0-138.8-18-179.2-53.6c-35.4-31.2-54.1-75.2-54.1-127.3v-0.3l11.2-263.1
			c2.6-50.4,48-68.3,89.5-68.3h538.5c41.5,0,86.9,17.9,89.5,68.3l11.2,263.3v0.2c0,52-19,96-55,127.3
			c-40.9,35.5-101.5,53.6-180,53.6L1745.8,2023z M1526.6,1842.2c0,47.9,17.1,88.2,49.3,116.6c37.8,33.2,94.9,50.1,169.8,50.1h271.5
			c75.1,0,132.5-16.9,170.7-50.1c32.8-28.5,50.1-68.8,50.2-116.5l-11.2-262.9c-2.7-50.8-58.3-54.8-75.4-54.8H1613
			c-17,0-72.7,4-75.4,54.8L1526.6,1842.2z"/>
	</g>
	<g class="st2">
		<path class="st3" d="M1745.8,2023c-78.5,0-138.8-18-179.2-53.6c-35.4-31.2-54.1-75.2-54.1-127.3v-0.3l11.2-263.1
			c2.6-50.4,48-68.3,89.5-68.3h538.5c41.5,0,86.9,17.9,89.5,68.3l11.2,263.3v0.2c0,52-19,96-55,127.3
			c-40.9,35.5-101.5,53.6-180,53.6L1745.8,2023z M1526.6,1842.2c0,47.9,17.1,88.2,49.3,116.6c37.8,33.2,94.9,50.1,169.8,50.1h271.5
			c75.1,0,132.5-16.9,170.7-50.1c32.8-28.5,50.1-68.8,50.2-116.5l-11.2-262.9c-2.7-50.8-58.3-54.8-75.4-54.8H1613
			c-17,0-72.7,4-75.4,54.8L1526.6,1842.2z M1761.6,1968c-57.7,0-97.7-13.2-122.3-40.2c-19.9-21.9-29.2-51.7-29.2-94v-0.4l8.2-150.2
			c1.7-31.9,27.5-51.7,67.3-51.7h393.6c39.9,0,65.7,19.8,67.3,51.7l8.2,150.4v0.2c0,31.4-2.9,67.2-24.6,93.7
			c-22.2,27.2-60.9,40.5-118.2,40.5H1761.6z M1624.3,1834c0,38.4,8.1,65.2,25.5,84.2c21.8,23.9,58.4,35.6,111.8,35.6H2012
			c52.8,0,87.8-11.5,107.2-35.3c18.8-23,21.3-55.6,21.4-84.5l-8.2-150c-0.5-9-5.7-38.3-53.2-38.3h-393.6
			c-47.5,0-52.7,29.3-53.2,38.3L1624.3,1834z"/>
	</g>
	<g class="st2">
		<path class="st3" d="M1792.3,335.9c1.1,0.2,2.2,0.4,3.3,0.6c4,0.8,7.7,2.2,10.6,5c3.1,2.9,4.7,6.5,5.1,10.6
			c0.4,4.2-0.2,8.1-1.7,11.7s-3.8,6.9-7,9.9c-2.2,2.1-5,3.8-7.6,5.7c2.4,4.6,4.9,9.5,7.4,14.3c2.5,4.9,5.1,9.8,7.7,14.9
			c-0.4,0-0.6,0-0.8,0c-8.4,0-16.8,0-25.2,0c-0.5,0-0.8-0.1-1.1-0.6c-2-4.2-4.1-8.4-6.1-12.6c-2-4.1-4-8.3-6-12.4
			c-0.3-0.6-0.6-0.8-1.2-0.8c-7,0-14.1,0-21.2,0c-0.4,0-0.8,0-1.2,0c-1.3,4.4-2.5,8.7-3.7,13.1s-2.4,8.8-3.7,13.3
			c-7.9,0-15.9,0-23.9,0c0.7-2.5,1.5-5,2.2-7.5c1.4-4.8,2.8-9.6,4.2-14.4c1.4-4.7,2.8-9.5,4.2-14.2c1.4-4.6,2.7-9.3,4-13.8
			c0.1-0.4,0.2-0.5,0.7-0.5c7.5,0,14.9,0,22.4,0.1c0.1,0,0.2,0,0.3,0.1c-0.7,2.3-1.4,4.6-2.1,6.9c0.3,0,0.5,0,0.7,0
			c6.7,0,13.4,0,20.1,0c3.5,0,6.7-1,9.7-2.9c1.9-1.2,3.2-2.8,3.3-5.1c0-1-0.3-1.7-1-2.3c-1.5-1.2-3.2-1.6-5-1.8
			c-1-0.1-2-0.2-3.1-0.2c-14.3,0-28.8-0.1-43.2-0.1c-0.3,0-0.7,0-1.1,0c0.5-1.8,1-3.6,1.5-5.4c1.1-3.7,2.2-7.4,3.3-11.1
			c0.1-0.2,0-0.4,0-0.5C1755.7,335.8,1774,335.8,1792.3,335.9"/>
	</g>
	<g class="st2">
		<path class="st3" d="M1913,393.8c4.3-0.1,7.9-1.6,10.6-5c2.2-2.8,3.3-6.1,3.7-9.6c0.5-4.5-1.7-7.7-6-8.7c-3.2-0.8-6.4-0.6-9.5,0.5
			c-3.4,1.3-5.7,3.5-6.4,7.3c-0.5,2.8-1.1,5.7-1.5,8.6c-0.4,3.3,0.8,5.1,3.9,6.2C1909.2,393.6,1911.8,393.8,1913,393.8
			 M1912.2,336.3c-0.7,3.5-1.5,7-2.2,10.5c-0.6,2.5-1.1,5-1.6,7.6c0,0.1-0.1,0.3-0.1,0.5c1.6-0.3,3.2-0.5,4.8-0.7
			c8-0.8,15.9-0.4,23.5,2.9c3.1,1.4,6,3.2,8.2,5.8c2.3,2.8,3.6,6.1,4.2,9.6c1,6,0.6,11.8-1.4,17.5c-2.4,6.5-6.8,11.3-12.6,14.8
			c-5,2.9-10.4,4.6-16.1,5.3c-1.3,0.2-2.6,0.3-3.8,0.4c-2.5,0-4.9,0-7.3,0c-1.3-0.1-2.7-0.3-4-0.5c-5.4-0.7-10.5-2.1-15.1-5.3
			c-6-4.2-8.7-10.1-8.1-17.5c0.3-3.5,0.8-7,1.5-10.4c0.6-3.4,1.3-6.8,2.1-10.2c1.1-5.1,2.1-10.2,3.2-15.2s2.1-10,3.1-14.9
			c0-0.1,0-0.2,0-0.3C1897.8,336.2,1905,336.2,1912.2,336.3z"/>
	</g>
	<g class="st2">
		<path class="st3" d="M1985.5,393.9c0.2,0,0.4,0,0.7,0c4.4-0.1,8-1.7,10.6-5.3c1.8-2.7,2.7-5.8,3-9.1c0.4-4.3-1.9-7.7-6.1-8.8
			c-2.9-0.8-5.8-0.7-8.6,0.1c-6.1,1.8-10,7.4-9.7,14c0.2,3.1,1.3,5.8,4,7.5C1981.2,393.6,1983.3,393.9,1985.5,393.9 M1981.8,410.5
			c-1.4-0.1-2.8-0.3-4.3-0.5c-4.9-0.6-9.6-1.9-14-4.5c-6.3-3.9-10-9.5-10.7-16.8c-0.7-6.6,0.3-12.9,3.6-18.4
			c2.6-4.4,6.2-7.6,10.5-10.2c6.1-3.6,12.6-5.6,19.7-6.1c5.6-0.4,11.2-0.1,16.8,1.5c4.1,1.1,7.9,3,11.2,5.8
			c4.2,3.6,6.7,8.1,7.2,13.5c0.6,6.2-0.1,12.2-2.5,17.8c-2.5,5.8-6.8,9.9-12.2,12.9c-5.3,3-11.3,4.4-17.5,4.9
			c-0.4,0-0.8,0.1-1.2,0.1C1986.3,410.5,1984.1,410.5,1981.8,410.5z"/>
	</g>
	<g class="st2">
		<path class="st3" d="M1838.4,393.8c0.2,0,0.4,0,0.6,0c4.2-0.1,8-1.5,10.8-4.9c2.4-2.9,3.7-6.3,4.3-10c0.6-4-1.3-7.2-5.1-8.4
			c-2.4-0.8-4.8-0.8-7.2-0.4c-6,0.9-13.3,6.1-12.9,16c0.1,2.7,1.4,4.9,3.7,6.3C1834.3,393.5,1836.3,393.8,1838.4,393.8
			 M1834.9,410.5c-1.9-0.2-3.8-0.4-5.6-0.6c-5.1-0.8-10-2.3-14.2-5.4c-5.1-3.9-7.7-9.1-7.9-15.7c-0.2-5.3,0.8-10.4,3.2-15.2
			c2.5-5.2,6.3-9.2,11.1-12.3c6.2-4,12.9-6.4,20.1-7.3c6.7-0.8,13.3-0.6,19.8,1.2c4.9,1.4,9.4,3.8,12.7,7.8
			c2.7,3.2,4.1,6.9,4.2,11.1c0.1,3.4-0.2,6.8-1,10.1c-0.7,3.3-2,6.5-3.7,9.5c-2.9,5.1-7.2,8.7-12.2,11.5c-5.3,2.9-11,4.5-17,5.1
			c-0.9,0.1-1.7,0.2-2.6,0.3C1839.4,410.5,1837.2,410.5,1834.9,410.5z"/>
	</g>
	<g class="st2">
		<path class="st3" d="M1683.2,408.1c0.6-2,1.3-3.9,1.9-5.9c1.1-3.5,2.2-7,3.3-10.5c1.1-3.4,2.1-6.9,3.3-10.3
			c1.2-3.9,2.3-7.7,3.5-11.5s2.4-7.6,3.6-11.3c0.1-0.4,0.2-0.6,0.6-0.6c7.3,0,14.6,0,21.9,0.1c0.1,0,0.1,0,0.2,0.1
			c-0.4,1.3-0.7,2.6-1.1,3.8c-1.7,5.9-3.5,11.8-5.3,17.7c-1.8,6-3.6,12-5.4,18.1c-1,3.3-2,6.7-3,10c-0.2,0.7-0.4,0.8-1,0.8
			c-5.2,0-10.4,0-15.6,0c-2.4,0-4.7,0-7.1,0C1683.2,408.4,1683.2,408.2,1683.2,408.1"/>
	</g>
	<g class="st2">
		<path class="st3" d="M1727.9,335.7c-0.5,1.9-1.1,3.9-1.6,5.8c-1.1,3.7-2.2,7.4-3.3,11.2c-7.5,0-15,0-22.5-0.1
			c1.7-5.7,3.5-11.4,5.3-17C1713.1,335.7,1720.5,335.7,1727.9,335.7"/>
	</g>
	<g class="st2">
		<path class="st3" d="M2060.8,342.8c0.3,2.7,2.8,5,5.5,5s4.7-2.3,4.3-5c-0.3-2.8-2.8-4.9-5.5-4.9
			C2062.4,337.9,2060.4,340.1,2060.8,342.8 M2071.5,343.9c-0.3,1.5-0.8,2.8-2.1,3.7c-1.8,1.3-3.8,1.4-5.9,0.3
			c-2.2-1.1-3.4-2.9-3.6-5.3c-0.2-3,1.6-5.2,4.4-5.5c2.8-0.3,5.6,1.6,6.7,4.5c0,0.1,0.1,0.2,0.1,0.2
			C2071.4,342.5,2071.5,343.2,2071.5,343.9z"/>
	</g>
	<g class="st2">
		<path class="st3" d="M2058.7,392.7c-0.5,5.4-1,10.8-1.4,16.3c-0.2,0-0.3,0-0.4,0c-5.7,0-11.5,0-17.2,0c-5.1-0.1-9.2-2.2-12.6-6.5
			c-2.1-2.7-2.8-5.7-2.6-8.8c0.3-4.4,0.7-8.8,1.1-13.2c0.4-4.1,0.9-8.1,1.3-12.1s0.9-8,1.4-12c0.3-3.2,0.7-6.4,1-9.5
			c0.3-3.2,0.6-6.3,1-9.4c0-0.1,0.1-0.2,0-0.3c6.7,0,13.4,0,20.1,0.1c-0.5,5.8-1.1,11.6-1.7,17.5c4.6,0,9.1,0,13.7,0
			c-0.4,5.4-0.9,10.8-1.4,16.2c-4.7,0-9.3,0-13.9,0c-0.2,1.4-0.3,2.8-0.4,4.2c-0.5,4.9-0.9,9.8-1.4,14.7c-0.1,1.1,0.2,1.8,1.3,2.2
			c1.1,0.4,2.2,0.6,3.4,0.6c2.6,0.1,5.1,0,7.7,0C2058,392.7,2058.3,392.7,2058.7,392.7"/>
	</g>
	<g class="st2">
		<path class="st3" d="M2063.9,340.3c0.1,0.8,0.2,1.4,0.3,2.2c0.6,0,1.1,0,1.6,0c0.1,0,0.3,0,0.3,0c0.6-0.1,1-0.6,0.8-1.2
			c-0.1-0.6-0.6-0.9-1.2-0.9C2065.2,340.3,2064.6,340.3,2063.9,340.3 M2068.8,346.1c-0.8,0.3-1.3,0-1.6-0.7
			c-0.1-0.3-0.3-0.5-0.4-0.8c-0.9-1.5-0.9-1.5-2.6-1.3c0.1,0.9,0.2,1.8,0.3,2.8c-0.3,0-0.6,0-1,0c-0.3-2.2-0.5-4.4-0.8-6.6
			c1.1,0,2.2,0,3.3,0c1,0.1,1.6,0.7,1.9,1.5c0.2,0.7-0.1,1.5-0.8,1.9l-0.1,0.1C2067.6,344.1,2068.2,345.1,2068.8,346.1z"/>
	</g>
	<g class="st2">
		<path class="st3" d="M1505.8,1051.5c-21.8,0-42.2-8.6-55.9-23.6c-12.8-14-18.9-32.3-17.2-51.4c1.7-19.5,11.4-37.8,27.2-51.4
			c15.7-13.5,35.7-21,56.3-21c21.6,0,41.9,8.5,55.7,23.2c12.8,13.7,19.1,31.5,17.9,50.3l0,0
			C1587.1,1018.3,1549.4,1051.5,1505.8,1051.5z M1516.2,918.3c-35.4,0-66.5,26.7-69.4,59.4c-1.4,15.1,3.5,29.6,13.6,40.6
			c11.2,12.2,27.3,19,45.5,19c36.3,0,67.6-27.2,69.9-60.7c1-14.8-4-28.9-14.1-39.6C1550.5,925.1,1533.9,918.3,1516.2,918.3z"/>
	</g>
	<g class="st2">
		<path class="st3" d="M2262.3,1051.3c-43.7,0-80-33.2-80.8-74.1c-0.4-18.5,6.6-36.2,19.8-49.8c14.4-14.7,35.1-23.2,56.7-23.2l0,0
			c43,0,79.4,32.5,81.1,72.5c0.8,18.8-6.1,36.9-19.4,50.7C2305.3,1042.6,2284.4,1051.3,2262.3,1051.3L2262.3,1051.3
			C2262.4,1051.3,2262.3,1051.3,2262.3,1051.3z M2258,918.4c-17.8,0-34.8,6.9-46.5,18.9c-10.5,10.8-16.1,24.8-15.8,39.6
			c0.7,33.2,30.6,60.2,66.7,60.2c0,0,0,0,0.1,0l0,0c18.1,0,35.3-7.1,47.2-19.4c10.6-11.1,16.1-25.4,15.4-40.3
			C2323.6,944.9,2293.5,918.5,2258,918.4L2258,918.4z"/>
	</g>
	<g class="st2">
		<path class="st3" d="M1882,1153.5c-50.8,0-97.7-18.6-132.1-52.4c-34.1-33.5-51.6-77.6-49.2-124.4c2.3-45.7,23.3-88.3,59.3-119.8
			c35.4-31.1,81.5-48.2,129.8-48.2c48,0,93.1,17.2,127,48.4c34.7,31.9,53.9,74.5,54,120c0.1,46.5-19.4,90.5-55,124.1
			C1979.9,1134.9,1932.4,1153.5,1882,1153.5z M1889.7,822.9c-44.8,0-87.6,15.9-120.4,44.7c-33,29-52.4,68-54.4,109.9
			c-2.1,42.6,13.9,83,45,113.6c31.8,31.2,75.1,48.4,122.2,48.4c46.8,0,90.9-17.2,124.1-48.5c32.7-30.8,50.7-71.2,50.5-113.7
			c-0.1-41.5-17.7-80.4-49.5-109.6C1975.8,838.8,1934,822.9,1889.7,822.9z"/>
	</g>
	<g class="st2">
		<path class="st3" d="M1894.3,867.7c-1.1-0.5-1.5-1.7-1-2.7c0.6-1.1,1.9-1.5,3-1c3.2,1.4,5.9,3.6,7.8,6.3c1.7,2.6,2.6,5.8,2.5,9.1
			c-0.1,4.8-2.1,9-5.6,12.2c-3.4,3.1-8.2,5-13.2,5c-5.3,0-10-1.9-13.3-5c-3.4-3.1-5.4-7.4-5.2-12.2c0.1-3.2,1.2-6.3,3-8.9
			c1.8-2.6,4.4-4.8,7.5-6.3c1.2-0.5,2.5-0.1,3,0.9c0.6,1,0.1,2.2-1,2.8c-2.3,1.1-4.3,2.7-5.7,4.8c-1.4,1.9-2.1,4.2-2.2,6.7
			c-0.1,3.6,1.4,6.8,3.9,9.2c2.5,2.3,6,3.8,10,3.8c3.8,0,7.3-1.5,10-3.8c2.6-2.3,4.3-5.6,4.3-9.2c0.1-2.5-0.7-4.9-2-6.9
			C1898.7,870.4,1896.7,868.7,1894.3,867.7z"/>
	</g>
	<g class="st2">
		<path class="st3" d="M1887.8,896.7c-5.2,0-9.9-1.8-13.4-5.1s-5.4-7.6-5.3-12.2c0.1-3.1,1.1-6.1,3-8.9c1.8-2.7,4.5-4.9,7.6-6.4
			c1.2-0.5,2.6-0.1,3.2,1c0.3,0.5,0.3,1,0.2,1.5c-0.2,0.6-0.6,1.1-1.3,1.4c-2.4,1.1-4.3,2.8-5.6,4.8c-1.4,1.9-2.1,4.2-2.2,6.6
			c-0.1,3.4,1.3,6.7,3.9,9.1c2.6,2.4,6.1,3.8,10,3.8c3.6,0,7.2-1.4,9.9-3.8c2.7-2.4,4.2-5.7,4.3-9.1c0.1-2.4-0.6-4.8-1.9-6.8
			c-1.5-2.1-3.4-3.7-5.8-4.8c-0.6-0.2-1-0.7-1.2-1.2s-0.1-1.2,0.1-1.7c0.6-1.1,2-1.6,3.1-1c3.2,1.3,5.9,3.5,7.8,6.4
			c1.7,2.7,2.6,5.9,2.6,9.2c-0.1,4.7-2.1,9.1-5.7,12.2C1897.5,894.8,1892.7,896.7,1887.8,896.7z M1880.7,864.1c-0.3,0-0.7,0.1-1,0.2
			c-3.1,1.5-5.7,3.6-7.5,6.3s-2.9,5.8-2.9,8.8c-0.1,4.5,1.7,8.8,5.2,12.1c3.4,3.2,8.1,5,13.2,5c4.9,0,9.7-1.8,13.2-5
			c3.5-3.1,5.5-7.4,5.6-12.1c0.1-3.3-0.8-6.4-2.5-9.1c-1.9-2.8-4.6-4.9-7.7-6.3c-1.1-0.5-2.3-0.1-2.9,0.9c-0.3,0.5-0.3,1-0.1,1.5
			c0.2,0.5,0.6,0.9,1.1,1.1l0,0c2.4,1.1,4.4,2.7,5.9,4.8c1.3,2.1,2,4.5,2,7c-0.1,3.5-1.6,6.8-4.4,9.3c-2.7,2.4-6.4,3.8-10,3.8
			c-3.9,0-7.5-1.4-10.1-3.8c-2.6-2.4-4-5.8-3.9-9.3c0.1-2.5,0.8-4.8,2.2-6.7c1.3-2,3.3-3.7,5.7-4.8c0.6-0.3,1-0.7,1.1-1.2
			s0.1-1-0.2-1.4C1882.3,864.5,1881.5,864.1,1880.7,864.1z"/>
	</g>
	<g class="st2">
		<path class="st3" d="M1886.2,858.3c0-1.2,1.1-2.1,2.5-2.1c1.1,0,2.2,0.9,2.1,2.1c-0.1,5.6-0.3,11.1-0.4,16.7
			c0,1.2-1.1,2.1-2.2,2.1c-1.4,0-2.4-0.9-2.4-2.1C1885.9,869.4,1886.1,863.8,1886.2,858.3z"/>
	</g>
	<g class="st2">
		<path class="st3" d="M1888.2,877.1c-0.8,0-1.5-0.3-1.9-0.8c-0.4-0.4-0.6-0.9-0.6-1.5c0.1-5.6,0.3-11.1,0.4-16.7
			c0-1.2,1.2-2.2,2.6-2.2c0.6,0,1.2,0.3,1.6,0.7s0.6,0.9,0.6,1.5l-0.4,16.7C1890.5,876.1,1889.5,877.1,1888.2,877.1z M1888.7,856.3
			c-1.3,0-2.4,0.9-2.4,2l0,0c-0.1,5.6-0.3,11.1-0.4,16.7c0,0.5,0.2,1,0.5,1.3c0.4,0.4,1.1,0.7,1.8,0.7c1.1,0,2.1-0.9,2.1-2l0.4-16.7
			c0-0.5-0.2-1-0.5-1.3C1889.8,856.5,1889.2,856.3,1888.7,856.3z"/>
	</g>
	<g class="st2">
		<path class="st3" d="M2263.4,978.8c0.3,8.6,0.6,17.3,0.8,25.9c7.4-0.7,13.8-3.8,18.7-8.3c4.8-4.6,7.8-10.7,8.3-17.6
			C2281.9,978.8,2272.6,978.8,2263.4,978.8z M2262.2,947.4c0.3,8.6,0.6,17.1,0.8,25.7c9.3,0,18.6,0,27.9,0c-1-6.8-4.5-12.9-9.5-17.4
			C2276.3,951.1,2269.6,948.1,2262.2,947.4z M2256.9,973.1c-0.3-8.6-0.5-17.1-0.8-25.7c-7.3,0.7-13.7,3.7-18.4,8.2
			c-4.8,4.6-7.9,10.6-8.4,17.4C2238.5,973.1,2247.6,973.1,2256.9,973.1z M2258,1004.7c-0.3-8.6-0.5-17.3-0.8-25.9
			c-9.3,0-18.6,0-27.8,0c0.9,6.8,4.4,12.9,9.4,17.6C2243.9,1000.9,2250.6,1004,2258,1004.7z M2262.1,941.7
			c9.1,0.7,17.4,4.3,23.6,9.9c6.2,5.6,10.4,13.1,11.5,21.5c3.3,0,6.6,0,9.9,0c1.7,0,3.2,1.3,3.2,2.8c0.1,1.7-1.3,2.9-3,2.9
			c-3.3,0-6.6,0-9.9,0c-0.4,8.4-4.1,16-9.9,21.6c-5.9,5.7-13.9,9.4-23,10.1c0.1,3.1,0.2,6.2,0.3,9.3c0.1,1.6-1.3,2.9-3,2.9
			s-3.2-1.3-3.2-2.9c-0.1-3.1-0.2-6.2-0.3-9.3c-9.1-0.7-17.3-4.4-23.6-10.1c-6.2-5.6-10.5-13.2-11.4-21.6c-3.3,0-6.6,0-9.8,0
			c-1.8,0-3.2-1.3-3.2-2.9c0-1.6,1.3-2.8,3.1-2.8c3.2,0,6.5,0,9.8,0c0.5-8.4,4.3-15.9,10.2-21.5s13.8-9.2,22.7-9.9
			c-0.1-3-0.2-6-0.3-9.1c0-1.6,1.3-2.8,3-2.8s3.1,1.3,3.1,2.8C2261.9,935.7,2262,938.7,2262.1,941.7z"/>
	</g>
	<g class="st2">
		<path class="st3" d="M2261.7,1022.7c-1.8,0-3.3-1.3-3.3-3c-0.1-3-0.2-6.1-0.3-9.2c-8.7-0.7-17.1-4.2-23.6-10.1
			c-6.4-5.8-10.5-13.5-11.4-21.6h-9.7c-1.8,0-3.3-1.3-3.3-3c0-0.7,0.3-1.4,0.8-2c0.6-0.6,1.4-0.9,2.4-0.9h9.7
			c0.5-8,4.1-15.7,10.2-21.4c6-5.7,14.1-9.2,22.7-9.9l-0.3-9c0-0.7,0.3-1.4,0.8-2c0.6-0.6,1.4-1,2.3-1c1.7,0,3.2,1.3,3.2,2.9l0.3,9
			c8.8,0.7,17.1,4.2,23.6,9.9c6.4,5.8,10.5,13.4,11.5,21.4h9.8c1.8,0,3.3,1.3,3.3,2.9c0,0.8-0.2,1.5-0.8,2.1s-1.4,1-2.3,1h-9.8
			c-0.4,8.1-3.9,15.7-10,21.6c-6.1,5.8-14.3,9.4-23,10.1l0.3,9.2c0,0.8-0.3,1.5-0.8,2.1C2263.4,1022.4,2262.6,1022.7,2261.7,1022.7z
			 M2213.2,973.2c-0.9,0-1.7,0.3-2.2,0.9c-0.5,0.5-0.7,1.1-0.7,1.8c0,1.6,1.4,2.8,3.1,2.8h9.9v0.1c0.9,8.1,4.9,15.8,11.4,21.6
			c6.4,5.8,14.8,9.4,23.5,10h0.1v0.1c0.1,3.1,0.2,6.2,0.3,9.3c0,1.5,1.4,2.8,3.1,2.8c0.8,0,1.6-0.3,2.1-0.9c0.5-0.5,0.8-1.2,0.7-1.9
			l-0.3-9.4h0.1c8.7-0.6,16.9-4.2,23-10c6-5.9,9.5-13.5,9.9-21.5v-0.1h10c0.8,0,1.6-0.3,2.2-0.9c0.5-0.5,0.8-1.2,0.7-1.9
			c-0.1-1.5-1.5-2.7-3.1-2.7h-10v-0.1c-1-8-5-15.6-11.4-21.4c-6.4-5.7-14.8-9.2-23.6-9.9h-0.1v-0.1l-0.3-9.1c0-1.5-1.4-2.7-3-2.7
			c-0.8,0-1.6,0.3-2.2,0.9c-0.5,0.5-0.7,1.1-0.7,1.8l0.3,9.2h-0.1c-8.6,0.6-16.6,4.1-22.6,9.9c-6.1,5.8-9.7,13.4-10.2,21.4v0.1
			L2213.2,973.2L2213.2,973.2z M2258.1,1004.8h-0.1c-7.2-0.7-14-3.6-19.2-8.4c-5.2-4.8-8.6-11.1-9.5-17.6v-0.1h28v0.1L2258.1,1004.8
			z M2229.6,978.9c0.9,6.5,4.2,12.6,9.4,17.4c5.2,4.7,11.9,7.6,19,8.3l-0.8-25.7H2229.6z M2264.1,1004.8L2264.1,1004.8l-0.8-26.1
			h28.1v0.1c-0.4,6.6-3.4,12.8-8.3,17.6c-5.1,4.8-11.6,7.7-18.8,8.4H2264.1z M2263.5,978.9l0.8,25.7c7.1-0.7,13.5-3.6,18.5-8.3
			c4.9-4.7,7.8-10.9,8.3-17.4H2263.5z M2291.1,973.2H2263l-0.1-2.4l-0.8-23.5h0.1c7.2,0.7,14,3.6,19.3,8.3
			c5.2,4.7,8.6,10.9,9.6,17.5V973.2z M2263.2,972.9h27.7c-0.9-6.5-4.3-12.6-9.5-17.2c-5.2-4.6-12-7.5-19-8.2L2263.2,972.9z
			 M2257,973.2h-27.9v-0.1c0.5-6.5,3.5-12.8,8.4-17.5s11.5-7.6,18.5-8.3h0.1v0.1L2257,973.2z M2229.4,972.9h27.4l-0.8-25.4
			c-6.9,0.7-13.4,3.6-18.2,8.2C2232.9,960.4,2229.9,966.5,2229.4,972.9z"/>
	</g>
	<g class="st2">
		<path class="st3" d="M1534.1,975.1c-1.1-1-2.1-1.8-3.3-2.7c-5.6-4.5-11.3-9-16.8-13.5c-1.2-1-2-1.7-3.3-2.5
			c-1.5,0.7-16.5,11.9-18.9,13.5c-1.4,1-2.5,1.8-3.8,2.7c-1.2,0.9-7.2,4.7-7.3,5.7c-0.6,6.9-1.1,13.8-1.7,20.7
			c-0.2,1.9,0.8,3.7,2.7,3.7c6.4,0,12.7,0,19.2,0c0.5-5.8,0.9-11.5,1.4-17.3c4.1,0,8.2,0,12.3,0c-0.4,5.8-0.9,11.5-1.4,17.3
			c6.4,0,12.7,0,19.2,0c1.5,0,2.9-1.2,3-2.6c0.6-7.4,1.1-14.7,1.7-22.1C1537.3,977.1,1535.5,976.3,1534.1,975.1z"/>
		<path class="st3" d="M1548,972.4c-0.6-0.5-0.7-0.6-1.3-1.1c-0.8-0.7-1.6-1.3-2.5-2c-4.9-3.7-10.7-9.1-15.5-12.7
			c-3.6-2.8-7-5.7-10.5-8.5c-2.1-1.7-3.4-3.4-5.9-3.4c-3.3,0-3.2,0.2-5.7,2c-3.7,2.7-7.4,5.4-11,8c0.2-2,0.3-4,0.5-6
			c0.2-2.2,0.5-4-1.9-4c-2.9,0-7.3-0.3-10.1,0.3c-1.4,2.3-2,16.3-2.3,19.9c-1.1,0.5-2.2,1.3-3.2,2.1s-2.1,1.6-3,2.2
			c-0.9,0.7-5.6,3.7-5.6,4.6c-0.1,1.2,3.3,5.3,4.6,5.2c1.1-0.1,34.1-25.2,36.4-26.3c1.6,1.1,2.7,2.1,4.2,3.3
			c8,6.6,16.2,13.2,24.2,19.8c1.3,1.1,2.7,2.4,4.1,3.1c1.7-0.4,2-1.1,3-2.2C1548.3,975,1549.9,973.9,1548,972.4z"/>
	</g>
	<g class="st2">
		<path class="st4" d="M1814.6,421.2h8.3c4.7,0,7.8,0.2,9.5,0.6c2.5,0.6,4.5,1.8,6.1,3.7c1.6,1.9,2.3,4.2,2.3,6.9
			c0,2.3-0.5,4.3-1.6,6s-2.6,3-4.6,3.9s-4.7,1.3-8.3,1.4l15.1,19.5h-5.2l-15.1-19.5h-2.4v19.5h-4.2L1814.6,421.2L1814.6,421.2z
			 M1818.8,425.3v14.2l7.2,0.1c2.8,0,4.9-0.3,6.2-0.8c1.3-0.5,2.4-1.4,3.1-2.5c0.8-1.2,1.1-2.5,1.1-3.9s-0.4-2.7-1.1-3.8
			c-0.8-1.1-1.8-2-3-2.5s-3.3-0.7-6.2-0.7h-7.3V425.3z"/>
		<path class="st4" d="M1863.8,431.3c4.8,0,8.7,1.7,11.9,5.2c2.9,3.2,4.3,6.9,4.3,11.2c0,4.3-1.5,8.1-4.5,11.3
			c-3,3.2-6.9,4.9-11.6,4.9c-4.8,0-8.6-1.6-11.7-4.9c-3-3.2-4.5-7-4.5-11.3s1.4-8,4.3-11.2C1855,433,1859,431.3,1863.8,431.3z
			 M1863.8,435.2c-3.3,0-6.2,1.2-8.5,3.7s-3.6,5.4-3.6,8.9c0,2.2,0.5,4.3,1.6,6.3c1.1,1.9,2.6,3.4,4.4,4.5s3.9,1.6,6.1,1.6
			s4.2-0.5,6.1-1.6c1.8-1.1,3.3-2.5,4.4-4.5c1.1-1.9,1.6-4,1.6-6.3c0-3.5-1.2-6.4-3.6-8.9S1867.1,435.2,1863.8,435.2z"/>
		<path class="st4" d="M1902,431.3c4.8,0,8.7,1.7,11.9,5.2c2.9,3.2,4.3,6.9,4.3,11.2c0,4.3-1.5,8.1-4.5,11.3
			c-3,3.2-6.9,4.9-11.6,4.9c-4.8,0-8.6-1.6-11.7-4.9c-3-3.2-4.5-7-4.5-11.3s1.4-8,4.3-11.2C1893.2,433,1897.2,431.3,1902,431.3z
			 M1901.9,435.2c-3.3,0-6.2,1.2-8.5,3.7c-2.4,2.4-3.6,5.4-3.6,8.9c0,2.2,0.5,4.3,1.6,6.3s2.6,3.4,4.4,4.5s3.9,1.6,6.1,1.6
			s4.2-0.5,6.1-1.6c1.8-1.1,3.3-2.5,4.4-4.5s1.6-4,1.6-6.3c0-3.5-1.2-6.4-3.6-8.9S1905.2,435.2,1901.9,435.2z"/>
		<path class="st4" d="M1925.5,432.1h4v5.4c1.4-2,2.8-3.4,4.3-4.3c2-1.2,4.1-1.8,6.4-1.8c1.5,0,2.9,0.3,4.3,0.9
			c1.3,0.6,2.5,1.4,3.3,2.3c0.9,1,1.6,2.4,2.2,4.2c1.3-2.4,3-4.3,5-5.5c2-1.3,4.1-1.9,6.4-1.9c2.1,0,4,0.5,5.7,1.6s2.9,2.6,3.7,4.5
			s1.2,4.8,1.2,8.7v16.9h-4.1v-16.9c0-3.3-0.2-5.6-0.7-6.8c-0.5-1.2-1.3-2.2-2.4-3s-2.5-1.1-4.1-1.1c-1.9,0-3.7,0.6-5.3,1.7
			c-1.6,1.1-2.8,2.7-3.5,4.6s-1.1,5.1-1.1,9.5v12.1h-4v-15.9c0-3.7-0.2-6.3-0.7-7.6c-0.5-1.3-1.3-2.4-2.4-3.2s-2.5-1.2-4.1-1.2
			c-1.8,0-3.6,0.6-5.2,1.7s-2.8,2.6-3.6,4.5c-0.8,1.9-1.2,4.8-1.2,8.6v13.1h-4v-31.1H1925.5z"/>
		<path class="st4" d="M1980.4,463.1v-42.9h4v17.3c1.7-2,3.5-3.6,5.6-4.6s4.3-1.5,6.8-1.5c4.4,0,8.1,1.6,11.2,4.8
			c3.1,3.2,4.7,7,4.7,11.6c0,4.5-1.6,8.3-4.7,11.5s-6.9,4.8-11.3,4.8c-2.5,0-4.8-0.5-6.9-1.6c-2-1.1-3.9-2.7-5.4-4.9v5.7h-4V463.1z
			 M1996.4,460c2.2,0,4.3-0.5,6.1-1.6c1.9-1.1,3.4-2.6,4.5-4.6s1.7-4.1,1.7-6.3s-0.6-4.3-1.7-6.3s-2.6-3.5-4.5-4.7s-3.9-1.7-6-1.7
			c-2.2,0-4.2,0.6-6.2,1.7s-3.5,2.6-4.5,4.5c-1.1,1.9-1.6,4-1.6,6.3c0,3.6,1.2,6.6,3.5,9C1990,458.8,1992.9,460,1996.4,460z"/>
		<path class="st4" d="M2050.8,432.1v31h-3.9v-5.3c-1.7,2-3.5,3.6-5.6,4.6s-4.4,1.5-6.8,1.5c-4.4,0-8.1-1.6-11.2-4.8
			c-3.1-3.2-4.7-7-4.7-11.6c0-4.5,1.6-8.3,4.7-11.4c3.1-3.2,6.9-4.8,11.3-4.8c2.5,0,4.8,0.5,6.9,1.6s3.9,2.7,5.4,4.9v-5.7
			L2050.8,432.1L2050.8,432.1z M2034.9,435.1c-2.2,0-4.3,0.5-6.1,1.6c-1.9,1.1-3.4,2.6-4.5,4.6s-1.7,4.1-1.7,6.3
			c0,2.2,0.6,4.3,1.7,6.3s2.6,3.5,4.5,4.7c1.9,1.1,3.9,1.7,6.1,1.7s4.2-0.6,6.2-1.7s3.5-2.6,4.5-4.5c1.1-1.9,1.6-4,1.6-6.3
			c0-3.6-1.2-6.6-3.5-9S2038.4,435.1,2034.9,435.1z"/>
	</g>
	<g class="st2">
		<g>
			<path class="st4" d="M1831.2,963.3c-1.4,1-2.1,1.4-3.5,2.4c-1.8-2.4-4.1-4.3-6.7-5.6s-5.5-2.1-8.7-2.3c-3.5-0.2-6.7,0.4-9.7,1.9
				s-5.4,3.6-7.1,6.3s-2.7,5.8-2.8,9.3c-0.2,5.3,1.4,9.7,5,13.3c3.5,3.6,8.1,5.3,13.7,5.3c6.2,0,11.4-2.2,15.6-6.7
				c1.4,1,2,1.5,3.4,2.5c-2.3,2.6-5,4.6-8.4,6c-3.3,1.4-7,2.2-11.1,2.2c-7.7,0-13.7-2.5-18-7.6c-3.6-4.3-5.2-9.5-5-15.6
				c0.3-6.4,2.7-11.7,7.3-15.7c4.6-4,10.2-5.8,16.9-5.4c4,0.2,7.7,1.2,10.9,2.9C1826.5,958.3,1829.1,960.5,1831.2,963.3z"/>
			<path class="st4" d="M1840,956c1.7,0.1,2.6,0.1,4.3,0.1c-0.2,12.3-0.4,24.6-0.7,36.9c6.8,0,10.2,0,16.9,0.1c0,1.6,0,2.3,0,3.9
				c-8.5,0-12.8,0-21.4,0C1839.5,983.3,1839.8,969.7,1840,956z"/>
			<path class="st4" d="M1867.9,956.7c9.9,0.1,14.9,0.1,24.8,0.1c0,1.6,0,2.4,0,3.9c-8.2,0.1-12.3,0-20.5,0c0,5,0,7.6-0.1,12.6
				c8.2,0,12.3,0,20.5,0c0,1.6,0,2.4,0,3.9c-8.2,0-12.3,0-20.5,0c0,6.3-0.1,9.5-0.1,15.8c8.3,0,12.4,0,20.6,0c0,1.6,0,2.4,0,3.9
				c-10,0-15.1,0-25.1,0C1867.7,983.5,1867.8,970.1,1867.9,956.7z"/>
			<path class="st4" d="M1917.9,956.3c7,13.5,14.1,27.1,21.2,40.6c-1.9,0-2.9,0-4.8,0c-2.9-5.4-4.3-8.1-7.2-13.4
				c-7.6,0.1-11.3,0.1-18.9,0.2c-2.7,5.3-4,8-6.7,13.3c-2,0-2.9,0-4.9,0c6.9-13.5,13.6-27,20.2-40.6
				C1917.3,956.3,1917.5,956.3,1917.9,956.3z M1917.5,965c-2.9,5.9-4.3,8.9-7.3,14.8c6-0.1,9-0.1,15-0.2
				C1922.1,973.7,1920.5,970.8,1917.5,965z"/>
			<path class="st4" d="M1945.9,996.9c-0.4-13.9-0.7-27.7-1.1-41.6c0.4,0,0.6,0,0.9,0c10.1,10.4,20.1,20.9,30.1,31.5
				c-0.4-11.1-0.9-22.1-1.3-33.2c1.7-0.1,2.6-0.2,4.3-0.3c0.6,14.5,1.2,29.1,1.8,43.6c-0.4,0-0.6,0-1,0c-9.9-10.6-19.9-21.2-30-31.6
				c0.3,10.6,0.6,21.1,0.9,31.7C1948.7,996.9,1947.8,996.9,1945.9,996.9z"/>
		</g>
	</g>
	<g class="st2">
		<path class="st3" d="M1882,281.9c-0.7,0-1.3,0-2,0c-0.6,0-1.2,0-1.9,0c-41.6,0-74.2-12.3-108.9-41.2l-0.9-0.8l-0.3-1.2
			c-0.9-4-1.8-7.7-2.9-11.7c-2.9-11.3-5.8-22.9-7.8-41.6c-0.1-0.8-0.2-1.5-0.3-2.1c-0.2-1.5-0.6-4.3,2.1-5.4
			c2.8-1.1,4.4,1.1,6.1,3.4c1.8,2.5,3.4,4.7,4.9,6.7c9.6,13.3,12.1,16.8,31.2,28.9c22.3,14.1,48.9,21.5,76.8,21.5c0.6,0,1.3,0,1.9,0
			c0.7,0,1.4,0,2,0c27.9,0,54.5-7.4,76.8-21.5c19.1-12,21.6-15.6,31.2-28.9c1.4-2,3-4.2,4.9-6.7c1.7-2.3,3.3-4.6,6.1-3.4
			c2.7,1.1,2.3,3.9,2.1,5.4c-0.1,0.6-0.2,1.3-0.3,2.1c-2,18.7-5,30.3-7.8,41.6c-1,4-2,7.7-2.9,11.7l-0.3,1.2l-0.9,0.8
			C1956.2,269.6,1923.6,281.9,1882,281.9z M1880,274.8c0.7,0,1.4,0,2,0c39.5,0,70.5-11.6,103.4-38.8c0.8-3.6,1.7-7.1,2.6-10.7
			c2.3-9.1,4.7-18.4,6.5-31.5c-9,12.5-12.6,16.9-32,29.1c-23.4,14.8-51.3,22.6-80.5,22.6c-0.7,0-1.3,0-2,0c-0.6,0-1.2,0-1.9,0
			c-29.3,0-57.1-7.8-80.5-22.6l0,0c-19.4-12.3-23-16.6-32-29.1c1.9,13.1,4.2,22.4,6.5,31.5c0.9,3.6,1.8,7.1,2.6,10.7
			c32.9,27.2,63.9,38.8,103.4,38.8C1878.7,274.8,1879.3,274.8,1880,274.8z"/>
	</g>
	<g class="st2">
		<path class="st3" d="M1882,245.5c-0.7,0-1.3,0-2,0c-0.6,0-1.2,0-1.9,0c-29.3,0-57.1-7.8-80.5-22.6c-16.6-10.5-26.9-24.8-37.9-39.9
			l-2.6-3.6l6.7-4.8c5.3-3.8,5.4-3.9,10.3-6.9c1.2-0.7,2.6-1.6,4.5-2.7l3.2-1.9l1.8,3.3c13,23.9,38.7,42.1,68.9,48.6
			c9,1.9,18.3,2.8,27.6,2.7h0.1h0.1c9.3,0.1,18.6-0.8,27.6-2.7c30.1-6.5,55.9-24.6,68.9-48.6l1.8-3.3l3.2,1.9c1.9,1.1,3.3,2,4.5,2.7
			c4.9,3,5,3,10.3,6.9l6.7,4.8l-2.6,3.6c-10.9,15.1-21.2,29.4-37.9,39.9C1939.1,237.7,1911.2,245.5,1882,245.5z M1880,238.4
			c0.7,0,1.4,0,2,0c27.9,0,54.5-7.4,76.8-21.5c14.7-9.3,24.4-22.2,34.3-35.9l-0.9-0.7c-5.1-3.7-5.1-3.7-9.8-6.5
			c-0.4-0.3-0.9-0.5-1.4-0.9c-14.6,24.4-40.5,42.2-71.8,48.9c-9.5,2-19.3,3-29.1,2.8c-9.8,0.1-19.7-0.8-29.1-2.8
			c-31.2-6.7-57.2-24.4-71.8-48.9c-0.5,0.3-1,0.6-1.4,0.9c-4.7,2.8-4.7,2.8-9.8,6.5l-0.9,0.7c10,13.8,19.7,26.6,34.3,35.9
			c22.3,14.1,48.9,21.5,76.8,21.5C1878.7,238.4,1879.3,238.4,1880,238.4z"/>
	</g>
	<g class="st2">
		<path class="st3" d="M2584.3,658.6c0.4,9.5-6.7,18.1-16.2,20.4H1202.4c-9.6-2.3-16.6-10.8-16.2-20.4l12.4-301.4
			c-4.8,2-9.6,3.9-14.4,5.9L1172,658c-0.7,17.5,12.8,33.1,30.9,35.4l7.6,1l0.1-1.3H2559l0.1,1.2l7.4-0.7c18.6-1.8,32.7-17.4,32-35.5
			l-10.9-288.4c-4.8-2-9.6-4.1-14.4-6.1L2584.3,658.6z"/>
		<path class="st3" d="M1226.4,346.3l-9.3,180.3c-0.3,6.5,2.2,12.9,7,18c6.4,6.7,16.3,10.7,26.6,10.7h1269c10.2,0,20.1-4,26.5-10.7
			c4.9-5.1,7.4-11.5,7.1-18.1l-8.2-174.4c-4.8-1.9-9.6-3.8-14.5-5.6l8.5,180.7c0.2,3.3-1.7,6-3.2,7.6c-3.8,3.9-9.8,6.3-16.3,6.3
			h-1269c-6.4,0-12.6-2.4-16.3-6.3c-1.5-1.6-3.3-4.2-3.2-7.5l9.6-186.5C1236.1,342.6,1231.2,344.5,1226.4,346.3z"/>
	</g>
	<g class="st2">
		<path class="st3" d="M2584.3,658.6c0.4,9.5-6.7,18.1-16.2,20.4H1202.4c-9.6-2.3-16.6-10.8-16.2-20.4l12.4-301.4
			c-4.8,2-9.6,3.9-14.4,5.9L1172,658c-0.7,17.5,12.8,33.1,30.9,35.4l7.6,1l0.1-1.3H2559l0.1,1.2l7.4-0.7c18.6-1.8,32.7-17.4,32-35.5
			l-10.9-288.4c-4.8-2-9.6-4.1-14.4-6.1L2584.3,658.6z"/>
		<path class="st3" d="M1226.4,346.3l-9.3,180.3c-0.3,6.5,2.2,12.9,7,18c6.4,6.7,16.3,10.7,26.6,10.7h1269c10.2,0,20.1-4,26.5-10.7
			c4.9-5.1,7.4-11.5,7.1-18.1l-8.2-174.4c-4.8-1.9-9.6-3.8-14.5-5.6l8.5,180.7c0.2,3.3-1.7,6-3.2,7.6c-3.8,3.9-9.8,6.3-16.3,6.3
			h-1269c-6.4,0-12.6-2.4-16.3-6.3c-1.5-1.6-3.3-4.2-3.2-7.5l9.6-186.5C1236.1,342.6,1231.2,344.5,1226.4,346.3z"/>
	</g>
</g>
</svg>
