<?xml version="1.0" encoding="utf-8"?>
<!-- Generator: Adobe Illustrator 21.0.0, SVG Export Plug-In . SVG Version: 6.00 Build 0)  -->
<svg version="1.1" id="Layer_1" xmlns="http://www.w3.org/2000/svg" xmlns:xlink="http://www.w3.org/1999/xlink" x="0px" y="0px"
	 viewBox="0 0 100.7 100.7" style="enable-background:new 0 0 100.7 100.7;" xml:space="preserve">
<style type="text/css">
	.st0{fill:none;stroke:#FFFFFF;stroke-miterlimit:10;}
</style>
<path d="M50.3,0C22.5,0,0,22.5,0,50.3s22.5,50.3,50.3,50.3c27.8,0,50.3-22.5,50.3-50.3S78.1,0,50.3,0z M35.2,24.6
	c3.5,0,6.4,2.9,6.4,6.4c0,3.5-2.9,6.4-6.4,6.4s-6.4-2.9-6.4-6.4C28.8,27.4,31.7,24.6,35.2,24.6z M42.2,48.9c0,0-4.5,21.7-5.8,27.9
	c-5.6,0-11.2,0-16.9,0c0.4-1.7,0.7-3.5,1.1-5.2c1.4-6.7,0.4-2.2,1.9-8.9c2.4-11.4,15.5-16.1,20.4-16.9L42.2,48.9z M78.4,76.7
	c-5.9,0-11.9,0-17.8,0c-0.4,0-0.6-0.1-0.8-0.4c-3.2-5.8-6.4-11.6-9.6-17.4l-6.8-13.2c4.7,0,4.3,0,7.6,0c2.5,0,4.7-0.3,6.9-1.7
	c1.3-0.9,2.2-2,2.2-3.8c0-0.7-0.3-1.2-0.8-1.7c-1.1-0.9-2.4-1.2-3.8-1.3c-0.7-0.1-1.5-0.1-2.3-0.1c-10.5,0,3.1,0-7.4,0
	c-0.2,0-0.5,0-0.8,0c0.3-1.4,0.5-2.7,0.8-3.9c0.6-2.8,1.2-5.5,1.7-8.2c0-0.1,0-0.3,0-0.4c13.5,0,2.8,0,16.3,0c2.9,0,8.2,2,10.5,4.1
	c2.3,2.1,3.7,4.8,4.1,7.8c0.8,6.2-1.4,11.4-5.8,15.7c-1.6,1.5-3.5,2.7-5.4,4.1c1.9,3.3,3.8,6.7,5.7,10.1c1.9,3.4,3.9,6.8,5.9,10.3
	C78.8,76.7,78.6,76.7,78.4,76.7z"/>
</svg>
