<?xml version="1.0"?>
<svg xmlns="http://www.w3.org/2000/svg" id="outline" viewBox="0 0 512 512" width="512" height="512"><path d="M295.78259,180.46875A19.29188,19.29188,0,0,0,304,164.68652a24.31707,24.31707,0,0,0-3.69971-12.90039L272.18408,106.7998A39.8365,39.8365,0,0,0,254.596,91.47217l-6.43976-9.65967A39.92043,39.92043,0,0,0,214.874,64h-62.4541A64.19928,64.19928,0,0,0,105.521,84.45117L18.1377,178.55664l11.7246,10.88672,44.42481-47.84229,58.57825,58.57813L17.99414,330.71484l12.01172,10.57032L189.13855,160.45264,444.686,416H427.314l-13.65722-13.65723A8.00035,8.00035,0,0,0,408,400H334.76257a22.70811,22.70811,0,0,0-1.00085-16.25879l-4.35547-9.583a147.04941,147.04941,0,0,0-91.64355-79.98242l-.96729-.29A139.56325,139.56325,0,0,0,196.67822,288H96v16h64v96H16v16h88.67944A48.06964,48.06964,0,0,0,152,456H488.002A8.00119,8.00119,0,0,0,496,448V384a8.00076,8.00076,0,0,0-2.34326-5.65723ZM85.182,129.86816l32.0636-34.53027A48.15146,48.15146,0,0,1,152.41992,80H214.874a23.93709,23.93709,0,0,1,17.87854,8H192v16h46.26416a23.86181,23.86181,0,0,1,20.35156,11.28027l28.1167,44.98633A8.33373,8.33373,0,0,1,288,164.68652a3.31353,3.31353,0,0,1-5.65674,2.34278l-4.68652-4.68653-32-32A8.00035,8.00035,0,0,0,240,128H200a8.002,8.002,0,0,0-6.00586,2.71484l-50.537,57.42823ZM203.6167,144h33.06982l29.657,29.657-.00025.00025L480,387.31348v41.373L199.73029,148.41626ZM176,304h20.67822a123.5579,123.5579,0,0,1,35.52,5.21094l.9668.291a131.04629,131.04629,0,0,1,81.67529,71.27735l4.356,9.583A6.82061,6.82061,0,0,1,312.979,400h-.34521a7.11821,7.11821,0,0,1-6.17481-3.45117l-.28613-.47656a93.03078,93.03078,0,0,0-61.40625-43.27735l-3.19726-.63965a8.00021,8.00021,0,0,0-6.36914,14.24512l25.60009,19.2002A7.99975,7.99975,0,0,1,256,400H176Zm103.71924,84.36328A76.71106,76.71106,0,0,1,289.66992,400H278.62378a23.86389,23.86389,0,0,0,1.09546-11.63672ZM121.01221,416H404.686l13.65722,13.65723A8.00035,8.00035,0,0,0,424,432h36.686l8,8H152A32.05787,32.05787,0,0,1,121.01221,416Z"/></svg>
