<?xml version="1.0" encoding="iso-8859-1"?>
<!-- Generator: Adobe Illustrator 19.0.0, SVG Export Plug-In . SVG Version: 6.00 Build 0)  -->
<svg version="1.1" id="Capa_1" xmlns="http://www.w3.org/2000/svg" xmlns:xlink="http://www.w3.org/1999/xlink" x="0px" y="0px"
	 viewBox="0 0 480 480" style="enable-background:new 0 0 480 480;" xml:space="preserve">
<g>
	<g>
		<g>
			<path d="M124,227.64c4.418,0,8-3.582,8-8v-14.544c0-4.418-3.582-8-8-8s-8,3.582-8,8v14.544
				C116,224.058,119.582,227.64,124,227.64z"/>
			<path d="M124,271.272c4.418,0,8-3.582,8-8v-14.544c0-4.418-3.582-8-8-8s-8,3.582-8,8v14.544
				C116,267.69,119.582,271.272,124,271.272z"/>
			<path d="M124,184c4.418,0,8-3.582,8-8c4.418,0,8-3.582,8-8s-3.582-8-8-8h-8c-4.418,0-8,3.582-8,8v8
				C116,180.418,119.582,184,124,184z"/>
			<path d="M162.856,176h15.432c4.418,0,8-3.582,8-8s-3.582-8-8-8h-15.432c-4.418,0-8,3.582-8,8S158.438,176,162.856,176z"/>
			<path d="M301.712,176h15.432c4.418,0,8-3.582,8-8s-3.582-8-8-8h-15.432c-4.418,0-8,3.582-8,8S297.294,176,301.712,176z"/>
			<path d="M255.424,176h15.432c4.418,0,8-3.582,8-8s-3.582-8-8-8h-15.432c-4.418,0-8,3.582-8,8S251.006,176,255.424,176z"/>
			<path d="M209.144,176h15.424c4.418,0,8-3.582,8-8s-3.582-8-8-8h-15.424c-4.418,0-8,3.582-8,8S204.726,176,209.144,176z"/>
			<path d="M348,176c0,4.418,3.582,8,8,8s8-3.582,8-8v-8c0-4.418-3.582-8-8-8h-8c-4.418,0-8,3.582-8,8S343.582,176,348,176z"/>
			<path d="M356,284.36c-4.418,0-8,3.582-8,8v14.544c0,4.418,3.582,8,8,8s8-3.582,8-8V292.36C364,287.942,360.418,284.36,356,284.36
				z"/>
			<path d="M356,240.728c-4.418,0-8,3.582-8,8v14.544c0,4.418,3.582,8,8,8s8-3.582,8-8v-14.544
				C364,244.31,360.418,240.728,356,240.728z"/>
			<path d="M356,197.088c-4.418,0-8,3.582-8,8v14.552c0,4.418,3.582,8,8,8s8-3.582,8-8v-14.552
				C364,200.67,360.418,197.088,356,197.088z"/>
			<path d="M348,352h8c4.418,0,8-3.582,8-8v-8c0-4.418-3.582-8-8-8s-8,3.582-8,8c-4.418,0-8,3.582-8,8S343.582,352,348,352z"/>
			<path d="M388,0c-4.418,0-8,3.582-8,8v120h-32V80c0-4.418-3.582-8-8-8s-8,3.582-8,8v48h-32V56c0-4.418-3.582-8-8-8s-8,3.582-8,8
				v72h-32V80c0-4.418-3.582-8-8-8s-8,3.582-8,8v48h-40V56c0-4.418-3.582-8-8-8s-8,3.582-8,8v72h-32V80c0-4.418-3.582-8-8-8
				s-8,3.582-8,8v48h-32V8c0-4.418-3.582-8-8-8s-8,3.582-8,8v368c0,4.418,3.582,8,8,8h28.32c9.073,10.17,22.051,15.99,35.68,16h0.64
				c2.243,15.31,10.692,29.019,23.36,37.904V472c0,4.418,3.582,8,8,8h112c4.418,0,8-3.582,8-8v-34.096
				c14.997-10.481,23.952-27.608,24-45.904v-8h56c4.418,0,8-3.582,8-8V8C396,3.582,392.418,0,388,0z M316,392
				c-0.043,14.27-7.657,27.446-20,34.608c-2.473,1.428-3.997,4.065-4,6.92V464h-96v-30.472c-0.003-2.855-1.527-5.492-4-6.92
				c-12.343-7.162-19.957-20.338-20-34.608c0-4.418-3.582-8-8-8h-8c-17.673,0-32-14.327-32-32v-40c0-8.837,7.163-16,16-16
				s16,7.163,16,16v7.504c0,4.418,3.582,8,8,8s8-3.582,8-8v-92.872c0.135-5.042,3.753-9.315,8.704-10.28
				c4.083-0.983,8.392-0.065,11.72,2.496c2.192,1.639,3.51,4.192,3.576,6.928c0.046,0.376,0.121,0.748,0.224,1.112
				c-0.103,0.364-0.178,0.736-0.224,1.112v52c0,4.418,3.582,8,8,8s8-3.582,8-8v-52c-0.046-0.376-0.121-0.748-0.224-1.112
				c0.103-0.364,0.178-0.736,0.224-1.112c1.376-6.627,7.865-10.884,14.492-9.508c4.78,0.993,8.515,4.728,9.508,9.508
				c0.046,0.376,0.121,0.748,0.224,1.112c-0.103,0.364-0.178,0.736-0.224,1.112v52c0,4.418,3.582,8,8,8s8-3.582,8-8v-52
				c-0.046-0.376-0.121-0.748-0.224-1.112c0.103-0.364,0.178-0.736,0.224-1.112c1.376-6.627,7.865-10.884,14.492-9.508
				c4.78,0.993,8.516,4.728,9.508,9.508c0.046,0.376,0.121,0.748,0.224,1.112c-0.103,0.364-0.178,0.736-0.224,1.112v52
				c0,4.418,3.582,8,8,8s8-3.582,8-8v-52c-0.046-0.376-0.121-0.748-0.224-1.112c0.103-0.364,0.178-0.736,0.224-1.112
				c0.058-2.558,1.226-4.964,3.2-6.592c3.293-2.744,7.671-3.808,11.856-2.88c5.072,0.899,8.81,5.243,8.944,10.392V392z M380,368h-48
				V226.696c-0.148-12.789-9.291-23.701-21.856-26.088c-9.098-1.892-18.558,0.553-25.6,6.616l-0.56,0.512
				c-11.331-10.334-28.669-10.334-40,0c-11.331-10.334-28.669-10.334-40,0c-0.488-0.456-1-0.904-1.528-1.328
				c-7.077-5.615-16.32-7.713-25.128-5.704c-12.301,2.586-21.163,13.359-21.328,25.928v57.728
				c-15.213-8.89-34.752-3.763-43.642,11.45c-2.87,4.912-4.375,10.501-4.358,16.19v40c0.014,5.454,0.961,10.865,2.8,16H100V144h280
				V368z"/>
			<rect x="20" y="168" width="16" height="16"/>
			<rect x="52" y="232" width="16" height="16"/>
			<rect x="44" y="128" width="16" height="16"/>
			<rect x="36" y="16" width="16" height="16"/>
			<rect x="4" y="344" width="16" height="16"/>
			<rect x="12" y="72" width="16" height="16"/>
			<rect x="28" y="288" width="16" height="16"/>
			<rect x="444" y="168" width="16" height="16"/>
			<rect x="412" y="232" width="16" height="16"/>
			<rect x="420" y="128" width="16" height="16"/>
			<rect x="428" y="16" width="16" height="16"/>
			<rect x="460" y="344" width="16" height="16"/>
			<rect x="452" y="72" width="16" height="16"/>
			<rect x="436" y="288" width="16" height="16"/>
		</g>
	</g>
</g>
<g>
</g>
<g>
</g>
<g>
</g>
<g>
</g>
<g>
</g>
<g>
</g>
<g>
</g>
<g>
</g>
<g>
</g>
<g>
</g>
<g>
</g>
<g>
</g>
<g>
</g>
<g>
</g>
<g>
</g>
</svg>
