<?xml version="1.0" encoding="iso-8859-1"?>
<!-- Generator: Adobe Illustrator 19.0.0, SVG Export Plug-In . SVG Version: 6.00 Build 0)  -->
<svg version="1.1" id="Capa_1" xmlns="http://www.w3.org/2000/svg" xmlns:xlink="http://www.w3.org/1999/xlink" x="0px" y="0px"
	 viewBox="0 0 368 368" style="enable-background:new 0 0 368 368;" xml:space="preserve">
<g>
	<g>
		<path d="M336,184c0-19.32-13.768-35.472-32-39.192V79.192c18.232-3.72,32-19.872,32-39.192c0-22.056-17.944-40-40-40H72
			C49.944,0,32,17.944,32,40c0,19.312,13.768,35.472,32,39.192v65.616C45.768,148.528,32,164.68,32,184s13.768,35.472,32,39.192
			v65.616c-18.232,3.72-32,19.88-32,39.192c0,22.056,17.944,40,40,40h224c22.056,0,40-17.944,40-40
			c0-19.312-13.768-35.472-32-39.192v-65.616C322.232,219.472,336,203.32,336,184z M249.336,224H288v64H184c-4.424,0-8,3.576-8,8
			s3.576,8,8,8h112c13.232,0,24,10.768,24,24s-10.768,24-24,24H72c-13.232,0-24-10.768-24-24s10.768-24,24-24h48
			c4.424,0,8-3.576,8-8s-3.576-8-8-8H80v-64h104c4.424,0,8-3.576,8-8s-3.576-8-8-8H72c-13.232,0-24-10.768-24-24s10.768-24,24-24h48
			c4.424,0,8-3.576,8-8s-3.576-8-8-8H80V80h104c4.424,0,8-3.576,8-8s-3.576-8-8-8H72c-13.232,0-24-10.768-24-24s10.768-24,24-24h224
			c13.232,0,24,10.768,24,24s-10.768,24-24,24h-48c-4.424,0-8,3.576-8,8s3.576,8,8,8h40v64H184c-4.424,0-8,3.576-8,8s3.576,8,8,8
			h112c13.232,0,24,10.768,24,24s-10.768,24-24,24h-46.664c-4.424,0-8,3.576-8,8S244.912,224,249.336,224z"/>
	</g>
</g>
<g>
</g>
<g>
</g>
<g>
</g>
<g>
</g>
<g>
</g>
<g>
</g>
<g>
</g>
<g>
</g>
<g>
</g>
<g>
</g>
<g>
</g>
<g>
</g>
<g>
</g>
<g>
</g>
<g>
</g>
</svg>
